<svg width="38" height="40" viewBox="0 0 38 40" fill="none" xmlns="http://www.w3.org/2000/svg">
<path d="M21.5764 20.0033L1.48938 39.3458C0.548733 38.7029 -0.00974673 37.6337 0.000128818 36.4944V3.51228C-0.00974673 2.37302 0.548733 1.30374 1.48938 0.660889L21.5764 20.0033Z" fill="#2196F3"/>
<path d="M28.6051 13.2473L21.5764 20.0035L1.48938 0.661064C1.56506 0.602407 1.6439 0.547836 1.72546 0.497606C2.78708 -0.145837 4.11313 -0.166609 5.19441 0.443121L28.6051 13.2473Z" fill="#4CAF50"/>
<path d="M37.1231 20.0038C37.1362 21.2899 36.4373 22.4779 35.3069 23.0914L28.6052 26.76L21.5765 20.0038L28.6052 13.2476L35.3069 16.9162C36.4373 17.5297 37.1362 18.7177 37.1231 20.0038Z" fill="#FFC107"/>
<path d="M28.6051 26.7597L5.19441 39.5638C4.11074 40.1641 2.78972 40.1433 1.72546 39.5093C1.6439 39.4591 1.56506 39.4045 1.48938 39.3459L21.5765 20.0034L28.6051 26.7597Z" fill="#F44336"/>
</svg>
