<svg width="33" height="40" viewBox="0 0 33 40" fill="none" xmlns="http://www.w3.org/2000/svg">
<path d="M32.2963 27.7899C32.1641 27.5856 31.9492 27.4491 31.7079 27.4166C28.5344 27.002 26.2978 24.0934 26.7123 20.9199C27.0052 18.6782 28.5748 16.8115 30.733 16.1383C31.1713 15.9978 31.4128 15.5287 31.2723 15.0904C31.2504 15.0222 31.2199 14.9571 31.1814 14.8966C29.7251 12.2683 27.1356 10.4608 24.1664 10C22.6702 10.0714 21.1957 10.3873 19.8015 10.935C18.8001 11.338 17.7428 11.5848 16.6665 11.6666C15.5902 11.5848 14.5328 11.338 13.5315 10.935C12.1373 10.3873 10.6628 10.0714 9.16656 10C6.05495 10 0 14.4116 0 22.4999C0 30.1865 5.60659 39.9997 9.99991 39.9997C11.6762 40.0147 13.3324 39.6333 14.8332 38.8864C15.3985 38.5747 16.0232 38.3861 16.6666 38.333C17.3099 38.3861 17.9347 38.5747 18.4999 38.8864C20.0008 39.6333 21.6569 40.0147 23.3332 39.9997C26.8166 39.9997 30.7482 34.0198 32.3948 28.4782C32.4637 28.2455 32.4278 27.9941 32.2963 27.7899Z" fill="#37474F"/>
<path d="M15.8331 9.99991C20.8933 9.99437 24.9942 5.89362 24.9996 0.833352C24.9996 0.373122 24.6266 0 24.1663 0C19.1061 0.00554683 15.0053 4.10629 14.9998 9.16656C14.9997 9.62679 15.3728 9.99991 15.8331 9.99991Z" fill="#37474F"/>
</svg>
