<svg width="31" height="30" viewBox="0 0 31 30" fill="none" xmlns="http://www.w3.org/2000/svg">
<path d="M1.98102 0.124435L13.3333 11.4767L8.55375 16.2579L1.97933 9.68353C0.711966 8.41578 0 6.69658 0 4.90398C0 3.11139 0.711966 1.39218 1.97933 0.124435H1.98102ZM18.9596 14.2163L17.5162 15.6597L29.4668 27.6102L27.077 30L15.1265 18.0511L3.17591 30L0.786134 27.6102L16.5698 11.8266C15.576 9.36411 16.6036 5.81832 19.3077 3.11081C22.6085 -0.188231 27.1565 -0.991019 29.4668 1.31932C31.7772 3.62966 30.9744 8.17767 27.6753 11.4767C24.9678 14.1842 21.422 15.2118 18.9596 14.2163Z" fill="#F16214"/>
</svg>
