<svg width="42" height="30" viewBox="0 0 42 30" fill="none" xmlns="http://www.w3.org/2000/svg">
<path d="M14.9285 24.3655C14.7057 25.9291 13.9262 27.3599 12.7332 28.395C11.5401 29.4301 10.0137 30 8.4342 30C6.85472 30 5.32827 29.4301 4.13523 28.395C2.94219 27.3599 2.16268 25.9291 1.93987 24.3655H0V1.87427C0 1.37718 0.197467 0.900453 0.54896 0.54896C0.900453 0.197467 1.37718 0 1.87427 0H28.114C28.6111 0 29.0878 0.197467 29.4393 0.54896C29.7908 0.900453 29.9883 1.37718 29.9883 1.87427V5.6228H35.6111L41.2339 13.2248V24.3655H37.4197C37.1969 25.9291 36.4174 27.3599 35.2244 28.395C34.0313 29.4301 32.5049 30 30.9254 30C29.3459 30 27.8195 29.4301 26.6264 28.395C25.4334 27.3599 24.6539 25.9291 24.4311 24.3655H14.9285ZM26.2397 3.74853H3.74853V18.8364C4.48805 18.0814 5.39901 17.5163 6.4039 17.1891C7.40879 16.8619 8.47786 16.7824 9.5201 16.9572C10.5624 17.1321 11.5469 17.5561 12.39 18.1933C13.2332 18.8305 13.9098 19.662 14.3625 20.6169H24.9971C25.312 19.9553 25.7337 19.3537 26.2397 18.8364V3.74853ZM29.9883 14.9941H37.4853V14.46L33.7218 9.37133H29.9883V14.9941ZM30.9254 26.2397C31.6713 26.2397 32.3866 25.9434 32.914 25.416C33.4414 24.8886 33.7377 24.1733 33.7377 23.4274C33.7377 22.6815 33.4414 21.9662 32.914 21.4388C32.3866 20.9114 31.6713 20.6151 30.9254 20.6151C30.1795 20.6151 29.4642 20.9114 28.9368 21.4388C28.4094 21.9662 28.1131 22.6815 28.1131 23.4274C28.1131 24.1733 28.4094 24.8886 28.9368 25.416C29.4642 25.9434 30.1795 26.2397 30.9254 26.2397ZM11.2456 23.4283C11.2456 23.0591 11.1729 22.6935 11.0316 22.3525C10.8903 22.0114 10.6832 21.7014 10.4222 21.4404C10.1611 21.1793 9.85117 20.9722 9.51007 20.8309C9.16898 20.6896 8.8034 20.6169 8.4342 20.6169C8.065 20.6169 7.69942 20.6896 7.35832 20.8309C7.01723 20.9722 6.7073 21.1793 6.44624 21.4404C6.18518 21.7014 5.97809 22.0114 5.8368 22.3525C5.69552 22.6935 5.6228 23.0591 5.6228 23.4283C5.6228 24.174 5.919 24.889 6.44624 25.4163C6.97348 25.9435 7.68857 26.2397 8.4342 26.2397C9.17983 26.2397 9.89492 25.9435 10.4222 25.4163C10.9494 24.889 11.2456 24.174 11.2456 23.4283Z" fill="#F16214"/>
</svg>
