<svg width="13" height="13" viewBox="0 0 13 13" fill="none" xmlns="http://www.w3.org/2000/svg">
<path d="M6.84896 10.7273C6.54548 10.5574 6.17554 10.5574 5.87207 10.7273L3.70357 11.9411C2.95897 12.3579 2.06802 11.7106 2.23429 10.8736L2.71855 8.43608C2.78632 8.09496 2.67198 7.74313 2.41663 7.50701L0.591805 5.81962C-0.0347269 5.24028 0.305551 4.19287 1.15295 4.09237L3.62099 3.79966C3.96633 3.7587 4.26558 3.54128 4.41125 3.2255L5.45247 0.968401C5.8099 0.193581 6.91112 0.193582 7.26855 0.968401L8.30977 3.2255C8.45544 3.54128 8.7547 3.7587 9.10003 3.79966L11.5681 4.09237C12.4155 4.19287 12.7558 5.24028 12.1292 5.81962L10.3044 7.50701C10.049 7.74313 9.93471 8.09496 10.0025 8.43608L10.4867 10.8736C10.653 11.7106 9.76205 12.3579 9.01745 11.9411L6.84896 10.7273Z" fill="#F16214"/>
</svg>
