<svg width="13" height="13" viewBox="0 0 13 13" fill="none" xmlns="http://www.w3.org/2000/svg">
<path d="M6.5 4.55C5.98283 4.55 5.48684 4.75545 5.12114 5.12114C4.75545 5.48684 4.55 5.98283 4.55 6.5C4.55 7.01717 4.75545 7.51316 5.12114 7.87886C5.48684 8.24455 5.98283 8.45 6.5 8.45C7.01717 8.45 7.51316 8.24455 7.87886 7.87886C8.24455 7.51316 8.45 7.01717 8.45 6.5C8.45 5.98283 8.24455 5.48684 7.87886 5.12114C7.51316 4.75545 7.01717 4.55 6.5 4.55ZM6.5 3.25C7.36195 3.25 8.1886 3.59241 8.7981 4.2019C9.40759 4.8114 9.75 5.63805 9.75 6.5C9.75 7.36195 9.40759 8.1886 8.7981 8.7981C8.1886 9.40759 7.36195 9.75 6.5 9.75C5.63805 9.75 4.8114 9.40759 4.2019 8.7981C3.59241 8.1886 3.25 7.36195 3.25 6.5C3.25 5.63805 3.59241 4.8114 4.2019 4.2019C4.8114 3.59241 5.63805 3.25 6.5 3.25ZM10.725 3.0875C10.725 3.30299 10.6394 3.50965 10.487 3.66202C10.3347 3.8144 10.128 3.9 9.9125 3.9C9.69701 3.9 9.49035 3.8144 9.33797 3.66202C9.1856 3.50965 9.1 3.30299 9.1 3.0875C9.1 2.87201 9.1856 2.66535 9.33797 2.51298C9.49035 2.3606 9.69701 2.275 9.9125 2.275C10.128 2.275 10.3347 2.3606 10.487 2.51298C10.6394 2.66535 10.725 2.87201 10.725 3.0875ZM6.5 1.3C4.8919 1.3 4.6293 1.30455 3.88115 1.3377C3.37155 1.36175 3.02965 1.43 2.71245 1.5535C2.43035 1.6627 2.2269 1.79335 2.01045 2.01045C1.807 2.20701 1.65058 2.44698 1.55285 2.71245C1.42935 3.03095 1.3611 3.3722 1.3377 3.88115C1.3039 4.59875 1.3 4.84965 1.3 6.5C1.3 8.1081 1.30455 8.3707 1.3377 9.11885C1.36175 9.6278 1.43 9.97035 1.55285 10.2869C1.66335 10.5696 1.79335 10.7731 2.00915 10.9889C2.2282 11.2073 2.43165 11.3379 2.71115 11.4458C3.03225 11.57 3.37415 11.6389 3.88115 11.6623C4.59875 11.6961 4.84965 11.7 6.5 11.7C8.1081 11.7 8.3707 11.6954 9.11885 11.6623C9.62715 11.6382 9.9697 11.57 10.2869 11.4471C10.5683 11.3373 10.7731 11.2066 10.9889 10.9908C11.2079 10.7718 11.3386 10.5683 11.4465 10.2888C11.57 9.9684 11.6389 9.62585 11.6623 9.11885C11.6961 8.40125 11.7 8.15035 11.7 6.5C11.7 4.8919 11.6954 4.6293 11.6623 3.88115C11.6382 3.37285 11.57 3.02965 11.4465 2.71245C11.3485 2.44725 11.1924 2.20737 10.9895 2.01045C10.7931 1.8069 10.5531 1.65046 10.2875 1.55285C9.96905 1.42935 9.62715 1.3611 9.11885 1.3377C8.40125 1.3039 8.15035 1.3 6.5 1.3ZM6.5 0C8.26605 0 8.4864 0.00649996 9.1793 0.039C9.87155 0.0715 10.3428 0.18005 10.7575 0.34125C11.1865 0.50635 11.5479 0.72995 11.9093 1.0907C12.2398 1.41563 12.4956 1.80868 12.6587 2.2425C12.8193 2.65655 12.9285 3.12845 12.961 3.8207C12.9915 4.5136 13 4.73395 13 6.5C13 8.26605 12.9935 8.4864 12.961 9.1793C12.9285 9.87155 12.8193 10.3428 12.6587 10.7575C12.496 11.1916 12.2402 11.5847 11.9093 11.9093C11.5843 12.2397 11.1912 12.4954 10.7575 12.6587C10.3434 12.8193 9.87155 12.9285 9.1793 12.961C8.4864 12.9915 8.26605 13 6.5 13C4.73395 13 4.5136 12.9935 3.8207 12.961C3.12845 12.9285 2.6572 12.8193 2.2425 12.6587C1.80851 12.4959 1.41539 12.2401 1.0907 11.9093C0.760114 11.5844 0.504355 11.1914 0.34125 10.7575C0.18005 10.3434 0.0715 9.87155 0.039 9.1793C0.00844996 8.4864 0 8.26605 0 6.5C0 4.73395 0.00649996 4.5136 0.039 3.8207C0.0715 3.1278 0.18005 2.6572 0.34125 2.2425C0.503904 1.80842 0.759722 1.41526 1.0907 1.0907C1.41549 0.76 1.80858 0.504224 2.2425 0.34125C2.6572 0.18005 3.1278 0.0715 3.8207 0.039C4.5136 0.00844996 4.73395 0 6.5 0Z" fill="#F16214"/>
</svg>
