<svg width="16" height="13" viewBox="0 0 16 13" fill="none" xmlns="http://www.w3.org/2000/svg">
<path d="M15.9882 1.54324C15.3893 1.80812 14.7543 1.98209 14.1041 2.05937C14.7894 1.64947 15.3024 1.00438 15.5473 0.244297C14.9041 0.627078 14.199 0.895338 13.464 1.04045C12.9703 0.512227 12.3159 0.161908 11.6026 0.0439529C10.8893 -0.0740019 10.157 0.047017 9.51953 0.388195C8.88208 0.729374 8.3752 1.2716 8.07771 1.93057C7.78021 2.58954 7.70876 3.32833 7.87446 4.0321C6.57011 3.96673 5.29409 3.62777 4.12924 3.03724C2.96439 2.4467 1.93675 1.6178 1.11304 0.604331C0.821481 1.10512 0.668262 1.67441 0.669082 2.2539C0.669082 3.39126 1.24796 4.39606 2.12804 4.98435C1.60722 4.96795 1.09785 4.8273 0.642413 4.57411V4.6149C0.64257 5.37238 0.904688 6.1065 1.38432 6.69279C1.86396 7.27907 2.53159 7.68144 3.27403 7.83167C2.79055 7.96269 2.28359 7.98201 1.79154 7.88815C2.00087 8.54016 2.40886 9.11038 2.95839 9.51897C3.50792 9.92757 4.17147 10.1541 4.85614 10.1668C4.17567 10.7012 3.39653 11.0963 2.56328 11.3294C1.73003 11.5625 0.859004 11.6291 0 11.5253C1.49951 12.4897 3.24508 13.0017 5.02792 13C11.0622 13 14.3621 8.0011 14.3621 3.66579C14.3621 3.5246 14.3582 3.38184 14.3519 3.24222C14.9942 2.778 15.5486 2.20293 15.9889 1.54403L15.9882 1.54324Z" fill="#F16214"/>
</svg>
