<svg width="14" height="13" viewBox="0 0 14 13" fill="none" xmlns="http://www.w3.org/2000/svg">
<path d="M2.88873 1.44509C2.88854 1.82816 2.73618 2.19546 2.46517 2.46619C2.19417 2.73693 1.82671 2.88892 1.44364 2.88873C1.06057 2.88854 0.693269 2.73618 0.422534 2.46517C0.151798 2.19417 -0.000191354 1.82671 1.80807e-07 1.44364C0.000191715 1.06057 0.152549 0.693269 0.423555 0.422534C0.694562 0.151798 1.06202 -0.000191354 1.44509 1.80807e-07C1.82816 0.000191715 2.19546 0.152549 2.46619 0.423555C2.73693 0.694562 2.88892 1.06202 2.88873 1.44509ZM2.93206 3.95828H0.0433311V13H2.93206V3.95828ZM7.49625 3.95828H4.62197V13H7.46736V8.25526C7.46736 5.61208 10.9122 5.36654 10.9122 8.25526V13H13.7648V7.2731C13.7648 2.81723 8.66619 2.98333 7.46736 5.17155L7.49625 3.95828Z" fill="#F16214"/>
</svg>
