<svg width="14" height="16" viewBox="0 0 14 16" fill="none" xmlns="http://www.w3.org/2000/svg">
<path d="M6.62742 16L1.9411 11.3137C1.01425 10.3868 0.383055 9.20592 0.127341 7.92033C-0.128373 6.63474 0.00287692 5.30219 0.504493 4.0912C1.00611 2.8802 1.85556 1.84514 2.94543 1.11692C4.0353 0.388689 5.31664 0 6.62742 0C7.9382 0 9.21953 0.388689 10.3094 1.11692C11.3993 1.84514 12.2487 2.8802 12.7503 4.0912C13.252 5.30219 13.3832 6.63474 13.1275 7.92033C12.8718 9.20592 12.2406 10.3868 11.3137 11.3137L6.62742 16ZM10.2725 10.2724C10.9933 9.55153 11.4842 8.63305 11.6831 7.63316C11.8819 6.63327 11.7798 5.59687 11.3897 4.65501C10.9995 3.71315 10.3388 2.90813 9.49114 2.34175C8.64347 1.77538 7.64689 1.47307 6.62742 1.47307C5.60795 1.47307 4.61137 1.77538 3.7637 2.34175C2.91603 2.90813 2.25535 3.71315 1.86519 4.65501C1.47503 5.59687 1.37292 6.63327 1.57177 7.63316C1.77062 8.63305 2.2615 9.55153 2.98234 10.2724L6.62742 13.9175L10.2725 10.2724ZM6.62742 8.10012C6.23682 8.10012 5.86222 7.94495 5.58602 7.66876C5.30983 7.39256 5.15466 7.01796 5.15466 6.62736C5.15466 6.23676 5.30983 5.86216 5.58602 5.58596C5.86222 5.30977 6.23682 5.1546 6.62742 5.1546C7.01802 5.1546 7.39262 5.30977 7.66882 5.58596C7.94501 5.86216 8.10018 6.23676 8.10018 6.62736C8.10018 7.01796 7.94501 7.39256 7.66882 7.66876C7.39262 7.94495 7.01802 8.10012 6.62742 8.10012Z" fill="white"/>
</svg>
