<svg width="16" height="16" viewBox="0 0 16 16" fill="none" xmlns="http://www.w3.org/2000/svg">
<path d="M5.65867 6.82844C6.49274 8.29376 7.70624 9.50726 9.17156 10.3413L9.95733 9.24089C10.0837 9.06394 10.2705 8.93945 10.4825 8.89096C10.6945 8.84248 10.9168 8.87336 11.1076 8.97778C12.3647 9.66482 13.7531 10.078 15.1813 10.1902C15.4042 10.2079 15.6123 10.3089 15.764 10.4732C15.9158 10.6374 16 10.8528 16 11.0764V15.0427C16 15.2628 15.9184 15.475 15.771 15.6384C15.6235 15.8018 15.4207 15.9047 15.2018 15.9271C14.7307 15.976 14.256 16 13.7778 16C6.16889 16 0 9.83111 0 2.22222C0 1.744 0.024 1.26933 0.0728889 0.798222C0.0953374 0.579286 0.198208 0.376463 0.361591 0.229008C0.524974 0.0815531 0.73725 -4.74291e-05 0.957333 2.0682e-08H4.92356C5.14717 -2.80165e-05 5.36257 0.0842236 5.52683 0.235956C5.69108 0.387689 5.79211 0.595754 5.80978 0.818667C5.92198 2.24693 6.33518 3.63527 7.02222 4.89244C7.12664 5.08317 7.15752 5.30555 7.10904 5.51751C7.06055 5.72947 6.93606 5.9163 6.75911 6.04267L5.65867 6.82844ZM3.41689 6.24444L5.10578 5.03822C4.62647 4.00364 4.29809 2.90564 4.13067 1.77778H1.78667C1.78133 1.92533 1.77867 2.07378 1.77867 2.22222C1.77778 8.84978 7.15022 14.2222 13.7778 14.2222C13.9262 14.2222 14.0747 14.2196 14.2222 14.2133V11.8693C13.0944 11.7019 11.9964 11.3735 10.9618 10.8942L9.75556 12.5831C9.26992 12.3944 8.79823 12.1716 8.344 11.9164L8.29245 11.8871C6.54896 10.8949 5.10514 9.45104 4.11289 7.70756L4.08356 7.656C3.82836 7.20177 3.60559 6.73008 3.41689 6.24444Z" fill="white"/>
</svg>
