<svg width="23" height="11" viewBox="0 0 23 11" fill="none" xmlns="http://www.w3.org/2000/svg">
<path d="M5.49994 0.984204C5.63155 0.983443 5.76201 1.00867 5.88385 1.05843C6.00568 1.1082 6.1165 1.18152 6.20994 1.2742C6.30367 1.36717 6.37806 1.47777 6.42883 1.59963C6.4796 1.72149 6.50574 1.85219 6.50574 1.9842C6.50574 2.11621 6.4796 2.24692 6.42883 2.36878C6.37806 2.49064 6.30367 2.60124 6.20994 2.6942L2.89994 5.9842L6.07994 9.2942C6.26619 9.48157 6.37073 9.73502 6.37073 9.9992C6.37073 10.2634 6.26619 10.5168 6.07994 10.7042C5.98698 10.7979 5.87638 10.8723 5.75452 10.9231C5.63266 10.9739 5.50195 11 5.36994 11C5.23793 11 5.10722 10.9739 4.98536 10.9231C4.8635 10.8723 4.7529 10.7979 4.65994 10.7042L0.799941 6.7042C0.616713 6.51727 0.514083 6.26596 0.514083 6.0042C0.514083 5.74245 0.616713 5.49113 0.799941 5.3042L4.79994 1.3042C4.8897 1.20727 4.99777 1.12909 5.11792 1.07416C5.23807 1.01924 5.36791 0.988661 5.49994 0.984204Z" fill="white"/>
<line x1="2.99994" y1="5.98438" x2="21.9999" y2="5.98438" stroke="white" stroke-width="2" stroke-linecap="round"/>
</svg>
