<?xml version="1.0" standalone="no"?>
<!DOCTYPE svg PUBLIC "-//W3C//DTD SVG 1.1//EN" "http://www.w3.org/Graphics/SVG/1.1/DTD/svg11.dtd" >
<svg>
<metadata>
Created by FontForge 20090914 at Sat Feb 12 15:20:43 2022
 By www-data
</metadata>
<defs>
<font id="ProductSans-Bold" horiz-adv-x="574" >
  <font-face 
    font-family="Product Sans"
    font-weight="700"
    font-stretch="normal"
    units-per-em="1000"
    panose-1="2 11 7 3 3 5 2 4 2 3"
    ascent="800"
    descent="-200"
    x-height="490"
    cap-height="716"
    bbox="-176 -285 3284 964.002"
    underline-thickness="50"
    underline-position="-225"
    unicode-range="U+000D-U+2215"
  />
<missing-glyph horiz-adv-x="570" 
d="M72 716h426v-716h-426v716zM136 60h298v596h-298v-596z" />
    <glyph glyph-name="f_i" unicode="fi" horiz-adv-x="623" 
d="M243 0h-131.002v378h-88v112h88v48c0 30 4.5 56.5 13.5 79.5s21.833 42.333 38.5 58s36.334 27.667 59.001 36s47.667 12.5 75 12.5c13.333 0 24 -0.666992 32 -2s15.667 -3.33301 23 -6l-8 -123c-4.66699 2 -10 3.66699 -16 5s-13.667 2 -23 2
c-19.333 0 -34.666 -6.16699 -45.999 -18.5s-17 -29.5 -17 -51.5v-40h316v-490h-131v378h-185v-378zM492.998 561c-11.333 0 -22.166 2.16504 -32.499 6.49805s-19.333 10.333 -27 18s-13.667 16.5 -18 26.5s-6.5 21 -6.5 33s2.16699 23 6.5 33s10.333 18.833 18 26.5
s16.667 13.667 27 18s21.166 6.5 32.499 6.5c23.333 0 43.333 -8.16699 60 -24.5s25 -36.166 25 -59.499s-8.33301 -43.166 -25 -59.499s-36.667 -24.5 -60 -24.5z" />
    <glyph glyph-name="f_l" unicode="fl" horiz-adv-x="615" 
d="M428 0l-0.000976562 599h-116c-21.333 0 -38.166 -6.5 -50.499 -19.5s-18.5 -31.833 -18.5 -56.5v-33h115v-112h-115v-378h-131v378h-88v112h88v31c0 64.667 17 114 51 148s83.333 51 148 51h248v-720h-131z" />
    <glyph glyph-name="f_b" unicode="fb" horiz-adv-x="972" 
d="M428 599l-116.001 -0.00195312c-21.333 0 -38.166 -6.66699 -50.499 -20s-18.5 -32.333 -18.5 -57v-32h115v-112h-115v-378h-131v378h-88v112h88v31c0 64.667 17 114 51 148s83.333 51 148 51h248v-219l-8 -70h8c12 20.667 30.667 38.334 56 53.001s56.666 22 93.999 22
c31.333 0 61.166 -6.5 89.499 -19.5s53.333 -31 75 -54s38.834 -50.5 51.501 -82.5s19 -67 19 -105s-6.33301 -73 -19 -105s-29.834 -59.5 -51.501 -82.5s-46.667 -41 -75 -54s-58.166 -19.5 -89.499 -19.5c-37.333 0 -68.666 7.33301 -93.999 22s-44 32.334 -56 53.001h-8
v-59h-123v599zM681.999 104.998c17.333 0 33.833 3.33496 49.5 10.002s29.5 16 41.5 28s21.667 26.667 29 44s11 36.666 11 57.999s-3.66699 40.666 -11 57.999s-17 32 -29 44s-25.833 21.333 -41.5 28s-32.167 10 -49.5 10s-33.833 -3.16699 -49.5 -9.5
s-29.5 -15.5 -41.5 -27.5s-21.667 -26.667 -29 -44s-11 -37 -11 -59s3.66699 -41.667 11 -59s17 -32 29 -44s25.833 -21.167 41.5 -27.5s32.167 -9.5 49.5 -9.5z" />
    <glyph glyph-name="f_f" unicode="ff" horiz-adv-x="713" 
d="M614 724c18.667 0 35.9971 -1.66797 51.9971 -5.00098s30.333 -7.66602 43 -12.999l-37 -117c-6.66699 3.33301 -13.834 6 -21.501 8s-17.167 3 -28.5 3c-19.333 0 -34.666 -6.33301 -45.999 -19s-17 -30 -17 -52v-39h122v-112h-122v-378h-131v378h-185v-378h-131v378
h-88v112h88v48c0 30 4.5 56.5 13.5 79.5s21.833 42.333 38.5 58s36.334 27.667 59.001 36s47.667 12.5 75 12.5c13.333 0 24 -0.666992 32 -2s15.667 -3.33301 23 -6l-8 -123c-4.66699 2 -10 3.66699 -16 5s-13.667 2 -23 2c-19.333 0 -34.666 -6.33301 -45.999 -19
s-17 -30 -17 -52v-39h185v48c0 30 4.5 56.5 13.5 79.5s21.833 42.333 38.5 58s36.334 27.667 59.001 36s47.667 12.5 75 12.5z" />
    <glyph glyph-name="f_f_b" unicode="ffb" horiz-adv-x="1288" 
d="M744 599l-116.003 -0.00195312c-21.333 0 -38.166 -6.66699 -50.499 -20s-18.5 -32.333 -18.5 -57v-32h115v-112h-115v-378h-131v378h-185v-378h-131v378h-88v112h88v48c0 30 4.5 56.5 13.5 79.5s21.833 42.333 38.5 58s36.334 27.667 59.001 36s47.667 12.5 75 12.5
c13.333 0 24 -0.666992 32 -2s15.667 -3.33301 23 -6l-8 -123c-4.66699 2 -10 3.66699 -16 5s-13.667 2 -23 2c-19.333 0 -34.666 -6.33301 -45.999 -19s-17 -30 -17 -52v-39h185v31c0 64.667 17.167 114 51.5 148s83.833 51 148.5 51h247v-219l-8 -70h8
c12 20.667 30.667 38.334 56 53.001s56.666 22 93.999 22c31.333 0 61.166 -6.5 89.499 -19.5s53.333 -31 75 -54s38.834 -50.5 51.501 -82.5s19 -67 19 -105s-6.33301 -73 -19 -105s-29.834 -59.5 -51.501 -82.5s-46.667 -41 -75 -54s-58.166 -19.5 -89.499 -19.5
c-37.333 0 -68.666 7.33301 -93.999 22s-44 32.334 -56 53.001h-8v-59h-123v599zM997.997 104.998c17.333 0 33.833 3.33496 49.5 10.002s29.5 16 41.5 28s21.667 26.667 29 44s11 36.666 11 57.999s-3.66699 40.666 -11 57.999s-17 32 -29 44s-25.833 21.333 -41.5 28
s-32.167 10 -49.5 10s-33.833 -3.16699 -49.5 -9.5s-29.5 -15.5 -41.5 -27.5s-21.667 -26.667 -29 -44s-11 -37 -11 -59s3.66699 -41.667 11 -59s17 -32 29 -44s25.833 -21.167 41.5 -27.5s32.167 -9.5 49.5 -9.5z" />
    <glyph glyph-name="f_f_h" unicode="ffh" horiz-adv-x="1262" 
d="M112 378l-88.002 0.00195312v112h88v48c0 30 4.5 56.5 13.5 79.5s21.833 42.333 38.5 58s36.334 27.667 59.001 36s47.667 12.5 75 12.5c13.333 0 24 -0.666992 32 -2s15.667 -3.33301 23 -6l-8 -123c-4.66699 2 -10 3.66699 -16 5s-13.667 2 -23 2
c-19.333 0 -34.666 -6.33301 -45.999 -19s-17 -30 -17 -52v-39h185v31c0 64.667 17 114 51 148s83.333 51 148 51h248v-241l-8 -69h8c12 30 31.667 53.5 59 70.5s58 25.5 92 25.5c31.333 0 58.666 -5 81.999 -15s42.5 -24.333 57.5 -43s26.167 -40.834 33.5 -66.501
s11 -53.834 11 -84.501v-297h-131v281c0 34 -8 59.833 -24 77.5s-38.333 26.5 -67 26.5c-18 0 -34 -3.83301 -48 -11.5s-25.833 -18.167 -35.5 -31.5s-17 -28.833 -22 -46.5s-7.5 -36.5 -7.5 -56.5v-239h-131v599h-116c-21.333 0 -38.166 -6.66699 -50.499 -20
s-18.5 -32.333 -18.5 -57v-32h114v-112h-114v-378h-131v378h-185v-378h-131v378z" />
    <glyph glyph-name="f_f_i" unicode="ffi" horiz-adv-x="939" 
d="M559 0h-131.004v378h-185v-378h-131v378h-88v112h88v48c0 30 4.5 56.5 13.5 79.5s21.833 42.333 38.5 58s36.334 27.667 59.001 36s47.667 12.5 75 12.5c13.333 0 24 -0.666992 32 -2s15.667 -3.33301 23 -6l-8 -123c-4.66699 2 -10 3.66699 -16 5s-13.667 2 -23 2
c-19.333 0 -34.666 -6.33301 -45.999 -19s-17 -30 -17 -52v-39h185v48c0 30 4.5 56.5 13.5 79.5s21.833 42.333 38.5 58s36.334 27.667 59.001 36s47.667 12.5 75 12.5c13.333 0 24 -0.666992 32 -2s15.667 -3.33301 23 -6l-8 -123c-4.66699 2 -10 3.66699 -16 5
s-13.667 2 -23 2c-19.333 0 -34.666 -6.33301 -45.999 -19s-17 -30 -17 -52v-39h316v-490h-131v378h-185v-378zM808.996 561c-11.333 0 -22.166 2.16504 -32.499 6.49805s-19.333 10.333 -27 18s-13.667 16.5 -18 26.5s-6.5 21 -6.5 33s2.16699 23 6.5 33
s10.333 18.833 18 26.5s16.667 13.667 27 18s21.166 6.5 32.499 6.5c23.333 0 43.333 -8.16699 60 -24.5s25 -36.166 25 -59.499s-8.33301 -43.166 -25 -59.499s-36.667 -24.5 -60 -24.5z" />
    <glyph glyph-name="f_f_j" unicode="ffj" horiz-adv-x="939" 
d="M559 0l-131.004 -0.000976562v378h-185v-378h-131v378h-88v112h88v48c0 30 4.5 56.5 13.5 79.5s21.833 42.333 38.5 58s36.334 27.667 59.001 36s47.667 12.5 75 12.5c13.333 0 24 -0.666992 32 -2s15.667 -3.33301 23 -6l-8 -123c-4.66699 2 -10 3.66699 -16 5
s-13.667 2 -23 2c-19.333 0 -34.666 -6.33301 -45.999 -19s-17 -30 -17 -52v-39h185v48c0 30 4.5 56.5 13.5 79.5s21.833 42.333 38.5 58s36.334 27.667 59.001 36s47.667 12.5 75 12.5c13.333 0 24 -0.666992 32 -2s15.667 -3.33301 23 -6l-8 -123
c-4.66699 2 -10 3.66699 -16 5s-13.667 2 -23 2c-19.333 0 -34.666 -6.33301 -45.999 -19s-17 -30 -17 -52v-39h316v-540c0 -32 -4.33301 -59.167 -13 -81.5s-20.334 -40.5 -35.001 -54.5s-31.667 -24.167 -51 -30.5s-40 -9.5 -62 -9.5c-16.667 0 -31.667 1.16699 -45 3.5
s-25.666 5.83301 -36.999 10.5l33 116c5.33301 -3.33301 10.5 -5.66602 15.5 -6.99902s11.167 -2 18.5 -2c30 0 45 19.667 45 59v424h-185v-378zM808.996 560.999c-11.333 0 -22.166 2.16504 -32.499 6.49805s-19.333 10.333 -27 18s-13.667 16.5 -18 26.5s-6.5 21 -6.5 33
s2.16699 23 6.5 33s10.333 18.833 18 26.5s16.667 13.667 27 18s21.166 6.5 32.499 6.5c23.333 0 43.333 -8.16699 60 -24.5s25 -36.166 25 -59.499s-8.33301 -43.166 -25 -59.499s-36.667 -24.5 -60 -24.5z" />
    <glyph glyph-name="f_f_k" unicode="ffk" horiz-adv-x="1218" 
d="M744 599h-116.003c-21.333 0 -38.166 -6.66699 -50.499 -20s-18.5 -32.333 -18.5 -57v-32h114v-112h-114v-378h-131v378h-185v-378h-131v378h-88v112h88v48c0 30 4.5 56.5 13.5 79.5s21.833 42.333 38.5 58s36.334 27.667 59.001 36s47.667 12.5 75 12.5
c13.333 0 24 -0.666992 32 -2s15.667 -3.33301 23 -6l-8 -123c-4.66699 2 -10 3.66699 -16 5s-13.667 2 -23 2c-19.333 0 -34.666 -6.33301 -45.999 -19s-17 -30 -17 -52v-39h185v31c0 64.667 17 114 51 148s83.333 51 148 51h248v-394h6l164 164h162v-8l-182 -177l197 -297
v-8h-155l-134 215l-58 -57v-158h-131v599z" />
    <glyph glyph-name="f_f_l" unicode="ffl" horiz-adv-x="931" 
d="M673 490l-0.00292969 -112h-114v-378h-131v378h-185v-378h-131v378h-88v112h88v48c0 30 4.5 56.5 13.5 79.5s21.833 42.333 38.5 58s36.334 27.667 59.001 36s47.667 12.5 75 12.5c13.333 0 24 -0.666992 32 -2s15.667 -3.33301 23 -6l-8 -123
c-4.66699 2 -10 3.66699 -16 5s-13.667 2 -23 2c-19.333 0 -34.666 -6.16699 -45.999 -18.5s-17 -29.5 -17 -51.5v-40h185v31c0 64.667 17 114 51 148s83.333 51 148 51h248v-720h-131v599h-116c-21.333 0 -38.166 -6.5 -50.499 -19.5s-18.5 -31.833 -18.5 -56.5v-33h114z
" />
    <glyph glyph-name="f_f_t" unicode="fft" horiz-adv-x="1035" 
d="M744 378l-185.002 0.000976562v-378h-131v378h-185v-378h-131v378h-88v112h88v48c0 30 4.5 56.5 13.5 79.5s21.833 42.333 38.5 58s36.334 27.667 59.001 36s47.667 12.5 75 12.5c13.333 0 24 -0.666992 32 -2s15.667 -3.33301 23 -6l-8 -123
c-4.66699 2 -10 3.66699 -16 5s-13.667 2 -23 2c-19.333 0 -34.666 -6.33301 -45.999 -19s-17 -30 -17 -52v-39h185v48c0 30 4.5 56.5 13.5 79.5s21.833 42.333 38.5 58s36.334 27.667 59.001 36s47.667 12.5 75 12.5c13.333 0 24 -0.666992 32 -2s15.667 -3.33301 23 -6
l-8 -123c-4.66699 2 -10 3.66699 -16 5s-13.667 2 -23 2c-19.333 0 -34.666 -6.33301 -45.999 -19s-17 -30 -17 -52v-39h185v150h131v-150h120v-112h-120v-190c0 -11.333 1.16699 -21.833 3.5 -31.5s6.83301 -17.834 13.5 -24.501c9.33301 -10.667 22.666 -16 39.999 -16
c11.333 0 20.333 1.16699 27 3.5s13 5.5 19 9.5l37 -115c-15.333 -7.33301 -31.833 -12.833 -49.5 -16.5s-37.167 -5.5 -58.5 -5.5c-24.667 0 -46.834 3.83301 -66.501 11.5s-36.167 18.167 -49.5 31.5c-31.333 30 -47 72.667 -47 128v215z" />
    <glyph glyph-name="f_h" unicode="fh" horiz-adv-x="946" 
d="M428 599l-116 0.00195312c-21.333 0 -38.166 -6.66699 -50.499 -20s-18.5 -32.333 -18.5 -57v-32h114v-112h-114v-378h-131v378h-88v112h88v31c0 64.667 17 114 51 148s83.333 51 148 51h248v-241l-8 -69h8c12 30 31.667 53.5 59 70.5s58 25.5 92 25.5
c31.333 0 58.666 -5 81.999 -15s42.5 -24.333 57.5 -43s26.167 -40.834 33.5 -66.501s11 -53.834 11 -84.501v-297h-131v281c0 34 -8 59.833 -24 77.5s-38.333 26.5 -67 26.5c-18 0 -34 -3.83301 -48 -11.5s-25.833 -18.167 -35.5 -31.5s-17 -28.833 -22 -46.5
s-7.5 -36.5 -7.5 -56.5v-239h-131v599z" />
    <glyph glyph-name="f_j" unicode="fj" horiz-adv-x="623" 
d="M112 378l-88.002 -0.000976562v112h88v48c0 30 4.5 56.5 13.5 79.5s21.833 42.333 38.5 58s36.334 27.667 59.001 36s47.667 12.5 75 12.5c13.333 0 24 -0.666992 32 -2s15.667 -3.33301 23 -6l-8 -123c-4.66699 2 -10 3.66699 -16 5s-13.667 2 -23 2
c-19.333 0 -34.666 -6.16699 -45.999 -18.5s-17 -29.5 -17 -51.5v-40h316v-540c0 -32 -4.33301 -59.167 -13 -81.5s-20.334 -40.5 -35.001 -54.5s-31.667 -24.167 -51 -30.5s-40 -9.5 -62 -9.5c-16.667 0 -31.667 1.16699 -45 3.5s-25.666 5.83301 -36.999 10.5l33 116
c5.33301 -3.33301 10.5 -5.66602 15.5 -6.99902s11.167 -2 18.5 -2c30 0 45 19.667 45 59v424h-185v-378h-131v378zM492.998 560.999c-11.333 0 -22.166 2.16504 -32.499 6.49805s-19.333 10.333 -27 18s-13.667 16.5 -18 26.5s-6.5 21 -6.5 33s2.16699 23 6.5 33
s10.333 18.833 18 26.5s16.667 13.667 27 18s21.166 6.5 32.499 6.5c23.333 0 43.333 -8.16699 60 -24.5s25 -36.166 25 -59.499s-8.33301 -43.166 -25 -59.499s-36.667 -24.5 -60 -24.5z" />
    <glyph glyph-name="f_k" unicode="fk" horiz-adv-x="902" 
d="M428 599h-116.001c-21.333 0 -38.166 -6.66699 -50.499 -20s-18.5 -32.333 -18.5 -57v-32h114v-112h-114v-378h-131v378h-88v112h88v31c0 64.667 17 114 51 148s83.333 51 148 51h248v-394h6l164 164h162v-8l-182 -177l197 -297v-8h-155l-134 215l-58 -57v-158h-131v599z
" />
    <glyph glyph-name="f_t" unicode="ft" horiz-adv-x="719" 
d="M428 378l-185 0.000976562v-378h-131v378h-88v112h88v48c0 30 4.5 56.5 13.5 79.5s21.833 42.333 38.5 58s36.334 27.667 59.001 36s47.667 12.5 75 12.5c13.333 0 24 -0.666992 32 -2s15.667 -3.33301 23 -6l-8 -123c-4.66699 2 -10 3.66699 -16 5s-13.667 2 -23 2
c-19.333 0 -34.666 -6.33301 -45.999 -19s-17 -30 -17 -52v-39h185v150h131v-150h120v-112h-120v-190c0 -11.333 1.16699 -21.833 3.5 -31.5s6.83301 -17.834 13.5 -24.501c9.33301 -10.667 22.666 -16 39.999 -16c11.333 0 20.333 1.16699 27 3.5s13 5.5 19 9.5l37 -115
c-15.333 -7.33301 -31.833 -12.833 -49.5 -16.5s-37.167 -5.5 -58.5 -5.5c-24.667 0 -46.834 3.83301 -66.501 11.5s-36.167 18.167 -49.5 31.5c-31.333 30 -47 72.667 -47 128v215z" />
    <glyph glyph-name="r_f" unicode="rf" horiz-adv-x="809" 
d="M179 422h8c13.333 24.667 32.833 44.5 58.5 59.5s54.167 22.5 85.5 22.5c11.333 0 20.333 -0.333008 27 -1s13 -2 19 -4v-130c-7.33301 3.33301 -15.5 6 -24.5 8s-19.833 3 -32.5 3c-41.333 0 -73.833 -12.5 -97.5 -37.5s-35.5 -59.167 -35.5 -102.5v-240h-131v490h123
v-68zM710 724c18.667 0 35.999 -1.66797 51.999 -5.00098s30.333 -7.66602 43 -12.999l-37 -117c-6.66699 3.33301 -13.834 6 -21.501 8s-17.167 3 -28.5 3c-19.333 0 -34.666 -6.16699 -45.999 -18.5s-17 -29.5 -17 -51.5v-40h122v-112h-122v-378h-131v378h-88v112h88v48
c0 30 4.5 56.5 13.5 79.5s21.833 42.333 38.5 58s36.334 27.667 59.001 36s47.667 12.5 75 12.5z" />
    <glyph glyph-name="r_f_f" unicode="rff" horiz-adv-x="1125" 
d="M1026 724c18.667 0 35.9951 -1.66797 51.9951 -5.00098s30.333 -7.66602 43 -12.999l-37 -117c-6.66699 3.33301 -13.834 6 -21.501 8s-17.167 3 -28.5 3c-19.333 0 -34.666 -6.16699 -45.999 -18.5s-17 -29.5 -17 -51.5v-40h122v-112h-122v-378h-131v378h-185v-378h-131
v378h-88v112h88v48c0 30 4.5 56.5 13.5 79.5s21.833 42.333 38.5 58s36.334 27.667 59.001 36s47.667 12.5 75 12.5c13.333 0 25.333 -0.833008 36 -2.5s20.667 -4.16699 30 -7.5l-8 -125c-7.33301 3.33301 -14.666 6 -21.999 8s-16.666 3 -27.999 3
c-19.333 0 -34.666 -6.16699 -45.999 -18.5s-17 -29.5 -17 -51.5v-40h185v48c0 30 4.5 56.5 13.5 79.5s21.833 42.333 38.5 58s36.334 27.667 59.001 36s47.667 12.5 75 12.5zM178.995 421.999h8c13.333 24.667 32.833 44.5 58.5 59.5s54.167 22.5 85.5 22.5
c11.333 0 20.333 -0.333008 27 -1s13 -2 19 -4v-130c-7.33301 3.33301 -15.5 6 -24.5 8s-19.833 3 -32.5 3c-41.333 0 -73.833 -12.5 -97.5 -37.5s-35.5 -59.167 -35.5 -102.5v-240h-131v490h123v-68z" />
    <glyph glyph-name="r_t" unicode="rt" horiz-adv-x="813" 
d="M179 422h8c13.333 24.667 32.833 44.5 58.5 59.5s54.167 22.5 85.5 22.5c11.333 0 20.333 -0.333008 27 -1s13 -2 19 -4v-130c-7.33301 3.33301 -15.5 6 -24.5 8s-19.833 3 -32.5 3c-41.333 0 -73.833 -12.5 -97.5 -37.5s-35.5 -59.167 -35.5 -102.5v-240h-131v490h123
v-68zM522 378l-85.998 0.000976562v112h86v150h131v-150h120v-112h-120v-190c0 -11.333 1.16699 -21.833 3.5 -31.5s6.83301 -17.834 13.5 -24.501c9.33301 -10.667 22.666 -16 39.999 -16c11.333 0 20.333 1.16699 27 3.5s13 5.5 19 9.5l37 -115
c-15.333 -7.33301 -31.833 -12.833 -49.5 -16.5s-37.167 -5.5 -58.5 -5.5c-24.667 0 -46.834 3.83301 -66.501 11.5s-36.167 18.167 -49.5 31.5c-31.333 30 -47 72.667 -47 128v215z" />
    <glyph glyph-name="t_f" unicode="tf" horiz-adv-x="711" 
d="M612 724c18.667 0 36.002 -1.66602 52.002 -4.99902s30.333 -7.66602 43 -12.999l-37 -117c-6.66699 3.33301 -13.834 6 -21.501 8s-17.167 3 -28.5 3c-19.333 0 -34.666 -6.33301 -45.999 -19s-17 -30 -17 -52v-39h122v-112h-122v-378h-131v378h-185v-190
c0 -11.333 1.16699 -21.833 3.5 -31.5s6.83301 -17.834 13.5 -24.501c9.33301 -10.667 22.666 -16 39.999 -16c9.33301 0 17.333 1 24 3s14 4.66699 22 8l9 -123c-13.333 -4.66699 -25.833 -7.83398 -37.5 -9.50098s-25.834 -2.5 -42.501 -2.5
c-24.667 0 -46.834 3.83301 -66.501 11.5s-36.167 18.167 -49.5 31.5c-31.333 30 -47 72.667 -47 128v215h-86v112h86v150h131v-150h185v48c0 30 4.5 56.5 13.5 79.5s21.833 42.333 38.5 58s36.334 27.667 59.001 36s47.667 12.5 75 12.5z" />
    <glyph glyph-name="t_t" unicode="tt" horiz-adv-x="720" 
d="M241 188c0 -11.333 1.17188 -21.8301 3.50488 -31.4971s6.83301 -17.834 13.5 -24.501c9.33301 -10.667 22.666 -16 39.999 -16c9.33301 0 17.333 1 24 3s14 4.66699 22 8l9 -123c-13.333 -4.66699 -25.833 -7.83398 -37.5 -9.50098s-25.834 -2.5 -42.501 -2.5
c-24.667 0 -46.834 3.83301 -66.501 11.5s-36.167 18.167 -49.5 31.5c-31.333 30 -47 72.667 -47 128v215h-86v112h86v150h131v-150h188v150h131v-150h120v-112h-120v-190c0 -11.333 1.16699 -21.833 3.5 -31.5s6.83301 -17.834 13.5 -24.501
c9.33301 -10.667 22.666 -16 39.999 -16c11.333 0 20.333 1.16699 27 3.5s13 5.5 19 9.5l37 -115c-15.333 -7.33301 -31.833 -12.833 -49.5 -16.5s-37.167 -5.5 -58.5 -5.5c-24.667 0 -46.834 3.83301 -66.501 11.5s-36.167 18.167 -49.5 31.5
c-31.333 30 -47 72.667 -47 128v215h-188v-190z" />
    <glyph glyph-name=".notdef" horiz-adv-x="570" 
d="M72 716h426v-716h-426v716zM136 60h298v596h-298v-596z" />
    <glyph glyph-name="NULL" horiz-adv-x="0" 
d="M0 0z" />
    <glyph glyph-name="NULL" horiz-adv-x="0" 
d="M0 0z" />
    <glyph glyph-name="nonmarkingreturn" unicode="&#xd;" horiz-adv-x="333" 
 />
    <glyph glyph-name="space" unicode=" " horiz-adv-x="220" 
d="M0 0z" />
    <glyph glyph-name="exclam" unicode="!" horiz-adv-x="269" 
d="M135 -6c-24 0 -44.5 8.5 -61.5 25.5s-25.5 37.5 -25.5 61.5s8.5 44.333 25.5 61s37.5 25 61.5 25s44.333 -8.33301 61 -25s25 -37 25 -61s-8.33301 -44.5 -25 -61.5s-37 -25.5 -61 -25.5zM67 510v206h135v-206l-14 -264h-107z" />
    <glyph glyph-name="quotedbl" unicode="&#x22;" horiz-adv-x="379" 
d="M216 490v226h119v-226h-119zM44 490v226h119v-226h-119z" />
    <glyph glyph-name="numbersign" unicode="#" horiz-adv-x="657" 
d="M110 0l29 192h-116l17 102h114l15 105h-116l16 102h115l28 183h111l-28 -183h112l28 183h110l-27 -183h115l-16 -102h-114l-16 -105h117l-16 -102h-116l-29 -192h-110l28 192h-112l-28 -192h-111zM262 292h116l17 109h-116z" />
    <glyph glyph-name="dollar" unicode="$" horiz-adv-x="559" 
d="M241 -13c-50 7.33301 -94.501 26.666 -133.501 57.999s-66.833 76.333 -83.5 135l115 47c6.66699 -26.667 19 -50.5 37 -71.5s39.667 -35.5 65 -43.5v190l-9 4c-24.667 9.33301 -47.834 20.333 -69.501 33s-40.667 27.334 -57 44.001s-29.333 35.5 -39 56.5
s-14.5 44.5 -14.5 70.5c0 24 4.33301 46.667 13 68s21.167 40.333 37.5 57s36.166 30.5 59.499 41.5s49.666 18.167 78.999 21.5v86h89v-88c26.667 -4 49.834 -11 69.501 -21s36.667 -21.5 51 -34.5s25.833 -26.833 34.5 -41.5s15.334 -29 20.001 -43l-112 -50
c-4.66699 13.333 -12 26 -22 38s-23.667 21.667 -41 29v-179c28.667 -12 54.667 -24.333 78 -37s43.333 -27 60 -43s29.334 -34.167 38.001 -54.5s13 -43.833 13 -70.5c0 -30 -5.16699 -56.667 -15.5 -80s-24.166 -43.333 -41.499 -60s-37.5 -30 -60.5 -40
s-46.833 -17 -71.5 -21v-88h-89v87zM174.999 510c0 -16 5.16797 -29.833 15.501 -41.5s27.166 -23.5 50.499 -35.5v146c-20 -5.33301 -36 -14 -48 -26s-18 -26.333 -18 -43zM391 188c0 17.333 -4.66699 31.668 -14 43.001s-25 22.666 -47 33.999v-153
c18 6 32.667 15.5 44 28.5s17 28.833 17 47.5z" />
    <glyph glyph-name="percent" unicode="%" horiz-adv-x="841" 
d="M32 529c0 23.333 4.5 45.333 13.5 66s21.333 38.834 37 54.501s34.167 28 55.5 37s44.666 13.5 69.999 13.5s48.833 -4.5 70.5 -13.5s40.334 -21.333 56.001 -37s28 -33.834 37 -54.501s13.5 -42.667 13.5 -66s-4.5 -45.5 -13.5 -66.5s-21.333 -39.167 -37 -54.5
s-34.334 -27.5 -56.001 -36.5s-45.167 -13.5 -70.5 -13.5s-48.666 4.5 -69.999 13.5s-39.833 21.167 -55.5 36.5s-28 33.5 -37 54.5s-13.5 43.167 -13.5 66.5zM139 529c0 -22 6.66699 -39.667 20 -53s29.666 -20 48.999 -20s35.666 6.66699 48.999 20s20 31 20 53
s-6.66699 39.667 -20 53s-29.666 20 -48.999 20s-35.666 -6.66699 -48.999 -20s-20 -31 -20 -53zM159 37l444 663l79 -53l-444 -663zM456 155c0 23.333 4.5 45.333 13.5 66s21.333 38.834 37 54.501s34.167 28 55.5 37s44.666 13.5 69.999 13.5s48.833 -4.5 70.5 -13.5
s40.334 -21.333 56.001 -37s28 -33.834 37 -54.501s13.5 -42.667 13.5 -66s-4.5 -45.5 -13.5 -66.5s-21.333 -39.167 -37 -54.5s-34.334 -27.5 -56.001 -36.5s-45.167 -13.5 -70.5 -13.5s-48.666 4.5 -69.999 13.5s-39.833 21.167 -55.5 36.5s-28 33.5 -37 54.5
s-13.5 43.167 -13.5 66.5zM563 155c0 -22 6.66699 -39.667 20 -53s29.666 -20 48.999 -20s35.666 6.66699 48.999 20s20 31 20 53s-6.66699 39.667 -20 53s-29.666 20 -48.999 20s-35.666 -6.66699 -48.999 -20s-20 -31 -20 -53z" />
    <glyph glyph-name="ampersand" unicode="&#x26;" horiz-adv-x="647" 
d="M545 147l74.9961 -90.0029l-95 -73l-52 63c-47.333 -42 -104.333 -63 -171 -63c-37.333 0 -72.166 6.16699 -104.499 18.5s-60.5 29.666 -84.5 51.999s-42.833 48.833 -56.5 79.5s-20.5 64.334 -20.5 101.001c0 40 9.83301 78 29.5 114s47.167 66.667 82.5 92
c-12.667 17.333 -23 35.333 -31 54s-12 38.334 -12 59.001c0 24.667 4.5 47.834 13.5 69.501s21.833 40.5 38.5 56.5s36.334 28.667 59.001 38s47.667 14 75 14c48 0 86.5 -11.167 115.5 -33.5s49.833 -50.5 62.5 -84.5l-106 -56c-5.33301 16 -13.666 29.833 -24.999 41.5
s-26.333 17.5 -45 17.5c-19.333 0 -34.666 -5.66699 -45.999 -17s-17 -25.666 -17 -42.999c0 -10.667 2.33301 -20.5 7 -29.5s11 -18.5 19 -28.5l215 -262l59 96l95 -60zM307.996 101.997c37.333 0 67.999 10.999 91.999 32.999l-181 219c-18.667 -14 -33 -31.167 -43 -51.5
s-15 -41.166 -15 -62.499s4 -40.5 12 -57.5s18.833 -31.5 32.5 -43.5s29.334 -21.167 47.001 -27.5s36.167 -9.5 55.5 -9.5z" />
    <glyph glyph-name="quotesingle" unicode="'" horiz-adv-x="207" 
d="M44 490v226h119v-226h-119z" />
    <glyph glyph-name="parenleft" unicode="(" horiz-adv-x="359" 
d="M339 712c-43.333 -54 -78.166 -113.331 -104.499 -177.998s-39.5 -135.334 -39.5 -212.001s13.167 -147.334 39.5 -212.001s61.166 -124 104.499 -178l-99 -68c-20 22 -40.5 49 -61.5 81s-40 67.667 -57 107s-30.833 81.833 -41.5 127.5s-16 93.167 -16 142.5
s5.33301 96.833 16 142.5s24.5 88.167 41.5 127.5s36 75 57 107s41.5 59 61.5 81z" />
    <glyph glyph-name="parenright" unicode=")" horiz-adv-x="359" 
d="M119 780c20 -22 40.333 -49.002 61 -81.002s39.5 -67.667 56.5 -107s31 -81.833 42 -127.5s16.5 -93.167 16.5 -142.5s-5.5 -96.833 -16.5 -142.5s-25 -88.167 -42 -127.5s-35.833 -75 -56.5 -107s-41 -59 -61 -81l-99 68c43.333 54 78.166 113.333 104.499 178
s39.5 135.334 39.5 212.001s-13.167 147.334 -39.5 212.001s-61.166 124 -104.499 178z" />
    <glyph glyph-name="asterisk" unicode="*" horiz-adv-x="464" 
d="M71 636l105 -37l9 3v114h94v-114l8 -3l106 37l31 -89l-107 -38l-3 -9l72 -98l-76 -55l-74 100h-8l-74 -100l-76 55l72 98l-3 9l-107 38z" />
    <glyph glyph-name="plus" unicode="+" horiz-adv-x="569" 
d="M342 329h171v-116h-171v-170h-116v170h-170v116h170v170h116v-170z" />
    <glyph glyph-name="comma" unicode="," horiz-adv-x="271" 
d="M44 -89l59 91.002c-14.667 5.33301 -27.167 15 -37.5 29s-15.5 30.667 -15.5 50c0 24 8.5 44.333 25.5 61s37.5 25 61.5 25s44.333 -8.33301 61 -25s25 -37 25 -61c0 -12.667 -2 -23.834 -6 -33.501s-10.333 -20.834 -19 -33.501l-95 -142z" />
    <glyph glyph-name="hyphen" unicode="-" horiz-adv-x="451" 
d="M56 368h339v-116h-339v116z" />
    <glyph glyph-name="period" unicode="." horiz-adv-x="269" 
d="M135 -6c-24 0 -44.5 8.5 -61.5 25.5s-25.5 37.5 -25.5 61.5s8.5 44.333 25.5 61s37.5 25 61.5 25s44.333 -8.33301 61 -25s25 -37 25 -61s-8.33301 -44.5 -25 -61.5s-37 -25.5 -61 -25.5z" />
    <glyph glyph-name="slash" unicode="/" horiz-adv-x="480" 
d="M27 0l297 716h129l-297 -716h-129z" />
    <glyph glyph-name="zero" unicode="0" horiz-adv-x="662" 
d="M331 -16c-44 0 -83.667 9.16699 -119 27.5s-65.5 43.5 -90.5 75.5s-44.167 69.833 -57.5 113.5s-20 90.834 -20 141.501s6.66699 97.834 20 141.501s32.5 81.5 57.5 113.5s55.167 57.167 90.5 75.5s75 27.5 119 27.5s83.667 -9.16699 119 -27.5s65.5 -43.5 90.5 -75.5
s44.167 -69.833 57.5 -113.5s20 -90.834 20 -141.501s-6.66699 -97.834 -20 -141.501s-32.5 -81.5 -57.5 -113.5s-55.167 -57.167 -90.5 -75.5s-75 -27.5 -119 -27.5zM331 108c24 0 45.667 5.83301 65 17.5s35.833 28 49.5 49s24 45.833 31 74.5s10.5 59.667 10.5 93
c0 34 -3.5 65.167 -10.5 93.5s-17.333 53 -31 74s-30.167 37.333 -49.5 49s-41 17.5 -65 17.5c-24.667 0 -46.667 -5.83301 -66 -17.5s-35.666 -28 -48.999 -49s-23.5 -45.667 -30.5 -74s-10.5 -59.5 -10.5 -93.5c0 -33.333 3.5 -64.333 10.5 -93s17.167 -53.5 30.5 -74.5
s29.666 -37.333 48.999 -49s41.333 -17.5 66 -17.5z" />
    <glyph glyph-name="one" unicode="1" horiz-adv-x="424" 
d="M209 0v530l-121 -51l-48 111l201 94h99v-684h-131z" />
    <glyph glyph-name="two" unicode="2" horiz-adv-x="545" 
d="M46 0l-0.000976562 119.001l109 108l43 43l41 41l34 34.5c10 10.333 17.667 18.5 23 24.5l28.5 34c8.33301 10 15 19.833 20 29.5s8.83301 19.334 11.5 29.001s4 20.167 4 31.5c0 22 -8.66699 41.167 -26 57.5s-41 24.5 -71 24.5s-53.333 -8.5 -70 -25.5
s-28 -36.167 -34 -57.5l-119 49c5.33301 18 14 36.5 26 55.5s27.333 36 46 51s40.834 27.333 66.501 37s54.5 14.5 86.5 14.5c34.667 0 66 -5.16699 94 -15.5s51.667 -24.5 71 -42.5s34.333 -39.167 45 -63.5s16 -50.5 16 -78.5c0 -42.667 -10.5 -81.834 -31.5 -117.501
s-46.5 -68.834 -76.5 -99.501l-86 -86l-77 -76l4 -6h277v-115h-455z" />
    <glyph glyph-name="three" unicode="3" horiz-adv-x="560" 
d="M281 -16c-28 0 -54.8369 3.66406 -80.5039 10.9971s-49.167 18.5 -70.5 33.5s-40.166 33.833 -56.499 56.5s-28.833 49 -37.5 79l123 49c8.66699 -33.333 23.334 -58.5 44.001 -75.5s46.667 -25.5 78 -25.5c14 0 27.333 2.16699 40 6.5s23.667 10.5 33 18.5
s16.833 17.5 22.5 28.5s8.5 23.5 8.5 37.5c0 29.333 -10.833 52.333 -32.5 69s-51.5 25 -89.5 25h-59v119h54c13.333 0 26.333 1.66699 39 5s23.834 8.5 33.501 15.5s17.334 16 23.001 27s8.5 23.833 8.5 38.5c0 22.667 -8 41.167 -24 55.5s-37.667 21.5 -65 21.5
c-29.333 0 -51.833 -7.83301 -67.5 -23.5s-26.5 -33.167 -32.5 -52.5l-120 49c6 16.667 15 33.834 27 51.501s27.167 33.667 45.5 48s39.833 26 64.5 35s53 13.5 85 13.5c32.667 0 62.5 -4.66699 89.5 -14s50.167 -22.166 69.5 -38.499s34.333 -35.666 45 -57.999
s16 -46.5 16 -72.5c0 -20 -2.5 -38 -7.5 -54s-11.5 -30.333 -19.5 -43s-17.167 -23.5 -27.5 -32.5s-20.833 -16.167 -31.5 -21.5v-8c32 -12.667 58.5 -33 79.5 -61s31.5 -63.333 31.5 -106c0 -30 -5.66699 -57.5 -17 -82.5s-27.5 -46.833 -48.5 -65.5
s-46.167 -33.167 -75.5 -43.5s-62 -15.5 -98 -15.5z" />
    <glyph glyph-name="four" unicode="4" horiz-adv-x="616" 
d="M356 0v126h-316v106l304 452h142v-436h86v-122h-86v-126h-130zM356 489h-8l-163 -241h171v241z" />
    <glyph glyph-name="five" unicode="5" 
d="M283 -16c-26 0 -51.8291 3.66895 -77.4961 11.002s-49.5 18.666 -71.5 33.999s-41.167 34.5 -57.5 57.5s-28.5 50.5 -36.5 82.5l119 46c7.33301 -33.333 21.5 -60 42.5 -80s47.833 -30 80.5 -30c16 0 30.833 2.83301 44.5 8.5s25.667 13.5 36 23.5s18.333 21.833 24 35.5
s8.5 28.834 8.5 45.501c0 16 -2.83301 30.833 -8.5 44.5s-13.5 25.667 -23.5 36s-21.833 18.333 -35.5 24s-28.834 8.5 -45.501 8.5c-20.667 0 -39 -4.5 -55 -13.5s-29.667 -20.167 -41 -33.5l-127 58l40 342h385v-115h-276l-26 -160l8 -2
c13.333 11.333 29.666 21 48.999 29s42.666 12 69.999 12c28.667 0 56 -5.5 82 -16.5s49 -26.5 69 -46.5s36 -44.167 48 -72.5s18 -59.833 18 -94.5c0 -34 -6 -65.333 -18 -94s-28.833 -53.334 -50.5 -74.001s-47.334 -36.834 -77.001 -48.501s-62.167 -17.5 -97.5 -17.5z
" />
    <glyph glyph-name="six" unicode="6" horiz-adv-x="568" 
d="M322 440c26 0 51.333 -5.49902 76 -16.499s46.667 -26.167 66 -45.5s34.833 -42.666 46.5 -69.999s17.5 -57.333 17.5 -90c0 -34 -6.66699 -65.333 -20 -94s-31.166 -53.334 -53.499 -74.001s-48 -36.834 -77 -48.501s-59.5 -17.5 -91.5 -17.5
c-37.333 0 -71 6.5 -101 19.5s-55.833 30.333 -77.5 52s-38.334 47 -50.001 76s-17.5 59.5 -17.5 91.5c0 46 9.16699 88.167 27.5 126.5s41.5 77.5 69.5 117.5l166 237l101 -70l-140 -198l5 -6c15.333 6.66699 33 10 53 10zM284 105.001c14.667 0 29 2.66699 43 8
s26.333 13 37 23s19.167 21.833 25.5 35.5s9.5 28.834 9.5 45.501s-3.16699 32 -9.5 46s-14.833 26 -25.5 36s-23 17.667 -37 23s-28.333 8 -43 8c-15.333 0 -29.833 -2.66699 -43.5 -8s-26 -13 -37 -23s-19.667 -22 -26 -36s-9.5 -29.333 -9.5 -46
s3.16699 -31.834 9.5 -45.501s15 -25.5 26 -35.5s23.333 -17.667 37 -23s28.167 -8 43.5 -8z" />
    <glyph glyph-name="seven" unicode="7" horiz-adv-x="546" 
d="M73 45l285 509l-3 6h-315l2 124h464v-130l-323 -570z" />
    <glyph glyph-name="eight" unicode="8" horiz-adv-x="576" 
d="M288 -16c-36.667 0 -70.1709 5.33301 -100.504 16s-56.5 25.167 -78.5 43.5s-39 40 -51 65s-18 52.167 -18 81.5c0 20 2.83301 38.667 8.5 56s13.334 33 23.001 47s20.834 26.333 33.501 37s26 19.667 40 27v8c-22 14.667 -41.167 34 -57.5 58s-24.5 52 -24.5 84
c0 27.333 5.66699 52.833 17 76.5s27 44.167 47 61.5s43.667 30.833 71 40.5s57.333 14.5 90 14.5s62.667 -4.83301 90 -14.5s51 -23.167 71 -40.5s35.667 -37.833 47 -61.5s17 -49.167 17 -76.5c0 -32 -8.16699 -60 -24.5 -84s-35.5 -43.333 -57.5 -58v-8
c14 -7.33301 27.333 -16.333 40 -27s23.834 -23 33.501 -37s17.334 -29.667 23.001 -47s8.5 -36 8.5 -56c0 -29.333 -6 -56.5 -18 -81.5s-29 -46.667 -51 -65s-48.167 -32.833 -78.5 -43.5s-63.833 -16 -100.5 -16zM287.996 414c28 0 51.333 7.83301 70 23.5
s28 36.167 28 61.5c0 26 -9.33301 46.5 -28 61.5s-42 22.5 -70 22.5s-51.333 -7.5 -70 -22.5s-28 -35.5 -28 -61.5c0 -25.333 9.33301 -45.833 28 -61.5s42 -23.5 70 -23.5zM287.996 105c34 0 61.998 8.83301 83.998 26.5s33 41.5 33 71.5c0 14 -3 26.833 -9 38.5
s-14.167 21.834 -24.5 30.501s-22.666 15.334 -36.999 20.001s-29.833 7 -46.5 7s-32.167 -2.33301 -46.5 -7s-26.666 -11.334 -36.999 -20.001s-18.5 -18.834 -24.5 -30.501s-9 -24.5 -9 -38.5c0 -30 11 -53.833 33 -71.5s50 -26.5 84 -26.5z" />
    <glyph glyph-name="nine" unicode="9" horiz-adv-x="568" 
d="M246 245c-26 0 -51.333 5.33105 -76 15.998s-46.667 25.834 -66 45.501s-34.833 43 -46.5 70s-17.5 56.833 -17.5 89.5c0 34 6.66699 65.5 20 94.5s31.166 53.833 53.499 74.5s48 36.834 77 48.501s59.5 17.5 91.5 17.5c36.667 0 70.167 -6.5 100.5 -19.5
s56.333 -30.333 78 -52s38.334 -47 50.001 -76s17.5 -59.5 17.5 -91.5c0 -46 -9.16699 -88.167 -27.5 -126.5s-41.5 -77.5 -69.5 -117.5l-166 -237l-101 69l140 199l-5 6c-15.333 -6.66699 -33 -10 -53 -10zM284 579.998c-15.333 0 -29.833 -2.66699 -43.5 -8
s-25.834 -13 -36.501 -23s-19.167 -21.833 -25.5 -35.5s-9.5 -28.834 -9.5 -45.501c0 -17.333 3.16699 -32.833 9.5 -46.5s14.833 -25.5 25.5 -35.5s22.834 -17.667 36.501 -23s28.167 -8 43.5 -8c14.667 0 29 2.66699 43 8s26.5 13 37.5 23s19.667 21.833 26 35.5
s9.5 29.167 9.5 46.5c0 16.667 -3.16699 31.834 -9.5 45.501s-15 25.5 -26 35.5s-23.5 17.667 -37.5 23s-28.333 8 -43 8z" />
    <glyph glyph-name="colon" unicode=":" horiz-adv-x="269" 
d="M135 -6c-24 0 -44.5 8.5 -61.5 25.5s-25.5 37.5 -25.5 61.5s8.5 44.333 25.5 61s37.5 25 61.5 25s44.333 -8.33301 61 -25s25 -37 25 -61s-8.33301 -44.5 -25 -61.5s-37 -25.5 -61 -25.5zM135 329c-24 0 -44.5 8.5 -61.5 25.5s-25.5 37.5 -25.5 61.5s8.5 44.5 25.5 61.5
s37.5 25.5 61.5 25.5s44.333 -8.5 61 -25.5s25 -37.5 25 -61.5s-8.33301 -44.5 -25 -61.5s-37 -25.5 -61 -25.5z" />
    <glyph glyph-name="semicolon" unicode=";" horiz-adv-x="271" 
d="M137 329c-24 0 -44.5 8.5 -61.5 25.5s-25.5 37.5 -25.5 61.5s8.5 44.5 25.5 61.5s37.5 25.5 61.5 25.5s44.333 -8.5 61 -25.5s25 -37.5 25 -61.5s-8.33301 -44.5 -25 -61.5s-37 -25.5 -61 -25.5zM44 -83l59 91.002c-14.667 5.33301 -27.167 15 -37.5 29
s-15.5 30.667 -15.5 50c0 24 8.5 44.333 25.5 61s37.5 25 61.5 25s44.333 -8.33301 61 -25s25 -37 25 -61c0 -12.667 -2 -23.834 -6 -33.501s-10.333 -20.834 -19 -33.501l-95 -142z" />
    <glyph glyph-name="less" unicode="&#x3c;" horiz-adv-x="531" 
d="M56 219v104l415 191v-129l-258 -110v-8l258 -110v-129z" />
    <glyph glyph-name="equal" unicode="=" horiz-adv-x="581" 
d="M56 477h469v-116h-469v116zM56 277h469v-116h-469v116z" />
    <glyph glyph-name="greater" unicode="&#x3e;" horiz-adv-x="531" 
d="M60 28v129l258 110v8l-258 110v129l415 -191v-104z" />
    <glyph glyph-name="question" unicode="?" horiz-adv-x="514" 
d="M188 246l0.000976562 32.9951c0 16 1.66699 30.833 5 44.5s8.5 26.834 15.5 39.501s16.333 25.334 28 38.001s26.167 26.334 43.5 41.001c18 16 32 30.667 42 44s15 29.666 15 48.999c0 20 -7.5 37.667 -22.5 53s-35.5 23 -61.5 23c-14 0 -26.667 -2.33301 -38 -7
s-21.333 -11 -30 -19s-15.834 -17 -21.501 -27s-9.83398 -20.333 -12.501 -31l-115 48c5.33301 18.667 13.833 37.334 25.5 56.001s26.334 35.5 44.001 50.5s38.5 27.167 62.5 36.5s51 14 81 14c32 0 61.333 -4.83301 88 -14.5s49.5 -23 68.5 -40s33.833 -37.167 44.5 -60.5
s16 -48.333 16 -75c0 -19.333 -2.33301 -36.666 -7 -51.999s-11 -29.666 -19 -42.999s-17.333 -25.833 -28 -37.5s-22 -23.167 -34 -34.5c-11.333 -10.667 -20.833 -20.334 -28.5 -29.001s-13.667 -17.167 -18 -25.5s-7.5 -17.166 -9.5 -26.499s-3 -20 -3 -32v-16h-131z
M252.001 -6.00488c-24 0 -44.333 8.5 -61 25.5s-25 37.5 -25 61.5s8.33301 44.333 25 61s37 25 61 25s44.5 -8.33301 61.5 -25s25.5 -37 25.5 -61s-8.5 -44.5 -25.5 -61.5s-37.5 -25.5 -61.5 -25.5z" />
    <glyph glyph-name="at" unicode="@" horiz-adv-x="877" 
d="M440 690c58 0 111.171 -10.167 159.504 -30.5s89.833 -47.833 124.5 -82.5s61.5 -75.167 80.5 -121.5s28.5 -95.5 28.5 -147.5c0 -30 -3.66699 -58 -11 -84s-17.833 -48.5 -31.5 -67.5s-30.5 -33.833 -50.5 -44.5s-42.333 -16 -67 -16
c-25.333 0 -48.833 6.33301 -70.5 19s-37.834 30.334 -48.501 53.001c-30 -48 -75.667 -72 -137 -72c-27.333 0 -52.666 5 -75.999 15s-43.833 24 -61.5 42s-31.5 39.5 -41.5 64.5s-15 52.5 -15 82.5s5.16699 57.5 15.5 82.5s24.166 46.5 41.499 64.5s37.5 32 60.5 42
s47.167 15 72.5 15s47 -5 65 -15s32.333 -22.333 43 -37h8v38h98v-246c0 -17.333 4.33301 -31.833 13 -43.5s20.667 -17.5 36 -17.5c10.667 0 20 3.33301 28 10s14.667 15.667 20 27s9.16602 24.666 11.499 39.999s3.5 31.666 3.5 48.999c0 38 -7.33301 74.5 -22 109.5
s-35.334 65.833 -62.001 92.5s-58.167 48 -94.5 64s-76.5 24 -120.5 24c-41.333 0 -80 -7.16699 -116 -21.5s-67.333 -34.333 -94 -60s-47.667 -56.667 -63 -93s-23 -76.5 -23 -120.5s8.16699 -84.167 24.5 -120.5s38 -67.333 65 -93s58.333 -45.667 94 -60
s73.167 -21.5 112.5 -21.5c25.333 0 49.166 2.83301 71.499 8.5s42.833 13.834 61.5 24.501l34 -87c-24 -11.333 -50.333 -20.333 -79 -27s-58 -10 -88 -10c-58 0 -111.333 10 -160 30s-90.5 47.5 -125.5 82.5s-62.167 76 -81.5 123s-29 97.167 -29 150.5
c0 52.667 9.66699 102.5 29 149.5s46.5 88 81.5 123s76.833 62.667 125.5 83s102 30.5 160 30.5zM424.004 193c13.333 0 26 2.33398 38 7.00098s22.667 11.667 32 21s16.833 20.5 22.5 33.5s8.5 28.167 8.5 45.5c0 16.667 -2.83301 31.667 -8.5 45
s-13.167 24.666 -22.5 33.999s-20 16.333 -32 21s-24.667 7 -38 7c-27.333 0 -51 -9.33301 -71 -28s-30 -45 -30 -79s10 -60.333 30 -79s43.667 -28 71 -28z" />
    <glyph glyph-name="A" unicode="A" horiz-adv-x="716" 
d="M281 716h154l269 -716h-149l-59 171h-276l-59 -171h-149zM452 295l-64 179l-26 87h-8l-26 -87l-64 -179h188z" />
    <glyph glyph-name="B" unicode="B" horiz-adv-x="629" 
d="M72 716l279.995 -0.00292969c30.667 0 59.334 -4.83301 86.001 -14.5s49.834 -23 69.501 -40s35.167 -36.833 46.5 -59.5s17 -47 17 -73c0 -38 -9.16699 -69.833 -27.5 -95.5s-41.166 -45.167 -68.499 -58.5v-8c36.667 -13.333 66.167 -34.166 88.5 -62.499
s33.5 -63.5 33.5 -105.5c0 -30.667 -6.16699 -58.167 -18.5 -82.5s-29.166 -45.166 -50.499 -62.499s-46.166 -30.666 -74.499 -39.999s-58.833 -14 -91.5 -14h-290v716zM341.995 423.997c31.333 0 55.5 8.5 72.5 25.5s25.5 37.167 25.5 60.5s-8.33301 43.333 -25 60
s-39.667 25 -69 25h-139v-171h135zM356.995 123.997c34 0 60 8.49902 78 25.499s27 38.833 27 65.5s-9.16699 48.834 -27.5 66.501s-45.5 26.5 -81.5 26.5h-146v-184h150z" />
    <glyph glyph-name="C" unicode="C" horiz-adv-x="734" 
d="M698 115c-35.333 -42.667 -77 -75.1719 -125 -97.5049s-101.667 -33.5 -161 -33.5c-53.333 0 -102.833 9.66699 -148.5 29s-85.167 45.666 -118.5 78.999s-59.666 72.833 -78.999 118.5s-29 94.834 -29 147.501s9.66699 101.834 29 147.501s45.666 85.167 78.999 118.5
s72.833 59.666 118.5 78.999s95.167 29 148.5 29c57.333 0 107.833 -10 151.5 -30s82.5 -49 116.5 -87l-95 -92c-21.333 24.667 -45.833 44.334 -73.5 59.001s-60.5 22 -98.5 22c-33.333 0 -64.666 -5.83301 -93.999 -17.5s-54.833 -28.167 -76.5 -49.5
s-38.834 -47.166 -51.501 -77.499s-19 -64.166 -19 -101.499s6.33301 -71.166 19 -101.499s29.834 -56.166 51.501 -77.499s47.167 -37.833 76.5 -49.5s60.666 -17.5 93.999 -17.5c40 0 75.5 8.16699 106.5 24.5s58.5 39.5 82.5 69.5z" />
    <glyph glyph-name="D" unicode="D" horiz-adv-x="719" 
d="M72 716l242 -0.000976562c56.667 0 107.667 -8.66699 153 -26s84 -41.833 116 -73.5s56.5 -69.5 73.5 -113.5s25.5 -92.333 25.5 -145c0 -53.333 -8.5 -102 -25.5 -146s-41.5 -81.667 -73.5 -113s-70.667 -55.666 -116 -72.999s-96.333 -26 -153 -26h-242v716z
M308 127.999c39.333 0 74 5.5 104 16.5s55 26.5 75 46.5s35 44.167 45 72.5s15 59.833 15 94.5s-5 66.167 -15 94.5s-25 52.5 -45 72.5s-45 35.5 -75 46.5s-64.667 16.5 -104 16.5h-101v-460h101z" />
    <glyph glyph-name="E" unicode="E" horiz-adv-x="578" 
d="M207 588v-166h287v-128h-287v-166h319v-128h-454v716h454v-128h-319z" />
    <glyph glyph-name="F" unicode="F" horiz-adv-x="558" 
d="M72 716h454v-128h-319v-174h287v-128h-287v-286h-135v716z" />
    <glyph glyph-name="G" unicode="G" horiz-adv-x="810" 
d="M412 393l351.001 -0.00488281c2 -8 3.66699 -17.667 5 -29s2 -22.666 2 -33.999c0 -46 -7 -89.333 -21 -130s-36 -77 -66 -109c-32 -34 -70.333 -60.333 -115 -79s-95.667 -28 -153 -28c-52 0 -101 9.33301 -147 28s-86 44.667 -120 78s-61 72.833 -81 118.5
s-30 95.5 -30 149.5s10 103.833 30 149.5s47 85.167 81 118.5s74 59.333 120 78s95 28 147 28c58 0 109.833 -10 155.5 -30s84.834 -47.667 117.501 -83l-93 -91c-23.333 24.667 -49.333 43.5 -78 56.5s-63 19.5 -103 19.5c-32.667 0 -63.667 -5.83301 -93 -17.5
s-55 -28.167 -77 -49.5s-39.5 -47.166 -52.5 -77.499s-19.5 -64.166 -19.5 -101.499s6.5 -71.166 19.5 -101.499s30.667 -56.166 53 -77.499s48.166 -37.833 77.499 -49.5s60.666 -17.5 93.999 -17.5c38 0 70.167 5.5 96.5 16.5s48.833 25.167 67.5 42.5
c13.333 12 24.833 27.167 34.5 45.5s17.167 38.833 22.5 61.5h-225v115z" />
    <glyph glyph-name="H" unicode="H" horiz-adv-x="715" 
d="M72 716h135v-286h301v286h135v-716h-135v302h-301v-302h-135v716z" />
    <glyph glyph-name="I" unicode="I" horiz-adv-x="279" 
d="M72 716h135v-716h-135v716z" />
    <glyph glyph-name="J" unicode="J" horiz-adv-x="555" 
d="M261 -16c-56.667 0 -106.166 15.3311 -148.499 45.998s-71.833 73 -88.5 127l124 51c8.66699 -32 22.667 -56 42 -72s43 -24 71 -24c31.333 0 55.666 10 72.999 30s26 48 26 84v490h135v-489c0 -40 -6.16699 -75.167 -18.5 -105.5s-29 -55.666 -50 -75.999
s-45.667 -35.666 -74 -45.999s-58.833 -15.5 -91.5 -15.5z" />
    <glyph glyph-name="K" unicode="K" horiz-adv-x="669" 
d="M72 716h135v-307h8l262 307h163v-8l-259 -296l286 -404v-8h-165l-213 305l-82 -95v-210h-135v716z" />
    <glyph glyph-name="L" unicode="L" horiz-adv-x="534" 
d="M72 716h135v-588h303v-128h-438v716z" />
    <glyph glyph-name="M" unicode="M" horiz-adv-x="857" 
d="M72 716h133l219 -379h8l219 379h134v-716h-134v353l8 120h-8l-182 -321h-81l-183 321h-8l8 -120v-353h-133v716z" />
    <glyph glyph-name="N" unicode="N" horiz-adv-x="723" 
d="M72 716h157l288 -480h8l-8 138v342h134v-716h-142l-304 507h-8l8 -138v-369h-133v716z" />
    <glyph glyph-name="O" unicode="O" horiz-adv-x="822" 
d="M411 -16c-53.333 0 -102.833 9.66699 -148.5 29s-85.167 45.833 -118.5 79.5s-59.5 73.334 -78.5 119.001s-28.5 94.5 -28.5 146.5s9.5 100.833 28.5 146.5s45.167 85.334 78.5 119.001s72.833 60.167 118.5 79.5s95.167 29 148.5 29s102.833 -9.66699 148.5 -29
s85.167 -45.833 118.5 -79.5s59.5 -73.334 78.5 -119.001s28.5 -94.5 28.5 -146.5s-9.5 -100.833 -28.5 -146.5s-45.167 -85.334 -78.5 -119.001s-72.833 -60.167 -118.5 -79.5s-95.167 -29 -148.5 -29zM411 112c33.333 0 64.5 6 93.5 18s54.333 28.667 76 50
s38.667 47.166 51 77.499s18.5 63.833 18.5 100.5s-6.16699 70.167 -18.5 100.5s-29.333 56.166 -51 77.499s-47 38 -76 50s-60.167 18 -93.5 18s-64.5 -6 -93.5 -18s-54.333 -28.667 -76 -50s-38.667 -47.166 -51 -77.499s-18.5 -63.833 -18.5 -100.5
s6.16699 -70.167 18.5 -100.5s29.333 -56.166 51 -77.499s47 -38 76 -50s60.167 -18 93.5 -18z" />
    <glyph glyph-name="P" unicode="P" horiz-adv-x="592" 
d="M72 0v716h252c34 0 65.833 -5.5 95.5 -16.5s55.5 -26.5 77.5 -46.5s39.333 -43.833 52 -71.5s19 -58.167 19 -91.5c0 -34 -6.33301 -64.833 -19 -92.5s-30 -51.5 -52 -71.5s-47.833 -35.5 -77.5 -46.5s-61.5 -16.5 -95.5 -16.5h-117v-263h-135zM326 391
c35.333 0 62 10 80 30s27 43 27 69c0 12.667 -2.16699 25 -6.5 37s-11 22.5 -20 31.5s-20.167 16.167 -33.5 21.5s-29 8 -47 8h-119v-197h119z" />
    <glyph glyph-name="Q" unicode="Q" horiz-adv-x="822" 
d="M566 16c-23.333 -10 -48 -17.835 -74 -23.502s-53 -8.5 -81 -8.5c-53.333 0 -102.833 9.66699 -148.5 29s-85.167 45.833 -118.5 79.5s-59.5 73.334 -78.5 119.001s-28.5 94.5 -28.5 146.5s9.5 100.833 28.5 146.5s45.167 85.334 78.5 119.001s72.833 60.167 118.5 79.5
s95.167 29 148.5 29s102.833 -9.66699 148.5 -29s85.167 -45.833 118.5 -79.5s59.5 -73.334 78.5 -119.001s28.5 -94.5 28.5 -146.5c0 -55.333 -10.333 -106.666 -31 -153.999s-49.667 -88 -87 -122l55 -82l-100 -67zM414 243.998l100 67.9971l78 -118
c18 20.667 32.167 44.834 42.5 72.501s15.5 58.167 15.5 91.5c0 36.667 -6.16699 70.167 -18.5 100.5s-29.333 56.166 -51 77.499s-47 38 -76 50s-60.167 18 -93.5 18s-64.5 -6 -93.5 -18s-54.333 -28.667 -76 -50s-38.667 -47.166 -51 -77.499s-18.5 -63.833 -18.5 -100.5
s6.16699 -70.167 18.5 -100.5s29.333 -56.166 51 -77.499s47 -38 76 -50s60.167 -18 93.5 -18c14.667 0 28.667 1.33301 42 4s26.333 6.33398 39 11.001z" />
    <glyph glyph-name="R" unicode="R" horiz-adv-x="620" 
d="M72 716l261.001 0.000976562c36 0 68.667 -5.66699 98 -17s54.5 -27 75.5 -47s37.167 -43.833 48.5 -71.5s17 -57.834 17 -90.501c0 -24 -4 -46.5 -12 -67.5s-19 -40 -33 -57s-30.333 -32 -49 -45s-38.334 -23.167 -59.001 -30.5l-1 -7l192 -275v-8h-155l-185 269h-63
v-269h-135v716zM332.001 393.001c30.667 0 55.833 9.33203 75.5 27.999s29.5 42.334 29.5 71.001c0 12.667 -2.16699 25 -6.5 37s-10.833 22.667 -19.5 32s-19.5 16.833 -32.5 22.5s-27.833 8.5 -44.5 8.5h-127v-199h125z" />
    <glyph glyph-name="S" unicode="S" horiz-adv-x="575" 
d="M291 -16c-30.667 0 -59.998 4.33496 -87.998 13.002s-53.667 21.667 -77 39s-43.666 38.5 -60.999 63.5s-31 54.167 -41 87.5l127 50c9.33301 -36 25.666 -65.833 48.999 -89.5s54 -35.5 92 -35.5c14 0 27.5 1.83301 40.5 5.5s24.667 9 35 16s18.5 15.833 24.5 26.5
s9 23 9 37c0 13.333 -2.33301 25.333 -7 36s-12.5 20.667 -23.5 30s-25.333 18.333 -43 27s-39.5 17.667 -65.5 27l-44 16c-19.333 6.66699 -38.833 15.667 -58.5 27s-37.5 25 -53.5 41s-29.167 34.833 -39.5 56.5s-15.5 46.167 -15.5 73.5c0 28 5.5 54.167 16.5 78.5
s26.667 45.666 47 63.999s44.666 32.666 72.999 42.999s59.833 15.5 94.5 15.5c36 0 67.167 -4.83301 93.5 -14.5s48.666 -22 66.999 -37s33.166 -31.5 44.499 -49.5s19.666 -35 24.999 -51l-119 -50c-6.66699 20 -18.834 38 -36.501 54s-41.834 24 -72.501 24
c-29.333 0 -53.666 -6.83301 -72.999 -20.5s-29 -31.5 -29 -53.5c0 -21.333 9.33301 -39.5 28 -54.5s48.334 -29.5 89.001 -43.5l45 -15c28.667 -10 54.834 -21.5 78.501 -34.5s44 -28.5 61 -46.5s30 -38.5 39 -61.5s13.5 -49.5 13.5 -79.5
c0 -37.333 -7.5 -69.5 -22.5 -96.5s-34.167 -49.167 -57.5 -66.5s-49.666 -30.333 -78.999 -39s-58 -13 -86 -13z" />
    <glyph glyph-name="T" unicode="T" horiz-adv-x="583" 
d="M224 0v588h-200v128h535v-128h-200v-588h-135z" />
    <glyph glyph-name="U" unicode="U" horiz-adv-x="669" 
d="M334 -16c-42 0 -80.168 6.83301 -114.501 20.5s-63.5 33.5 -87.5 59.5s-42.667 57.5 -56 94.5s-20 79.167 -20 126.5v431h135v-439c0 -24 3 -46 9 -66s15 -37.333 27 -52s27 -26.167 45 -34.5s38.667 -12.5 62 -12.5c24 0 45 4.16699 63 12.5s33 19.833 45 34.5
s21 32 27 52s9 42 9 66v439h135v-431c0 -44.667 -6.5 -85.5 -19.5 -122.5s-31.667 -68.667 -56 -95s-53.666 -46.833 -87.999 -61.5s-72.833 -22 -115.5 -22z" />
    <glyph glyph-name="V" unicode="V" horiz-adv-x="680" 
d="M12 716h146l148 -431l26 -92h8l28 92l154 431h146l-261 -716h-142z" />
    <glyph glyph-name="W" unicode="W" horiz-adv-x="954" 
d="M16 716h143l111 -418l16 -77h8l21 77l103 322h126l104 -322l20 -76h8l15 76l104 418h143l-190 -716h-130l-112 345l-21 79h-8l-21 -79l-112 -345h-130z" />
    <glyph glyph-name="X" unicode="X" horiz-adv-x="688" 
d="M251 374l-217 342h167l139 -234h8l139 234h167l-217 -342l235 -374h-168l-156 258h-8l-156 -258h-168z" />
    <glyph glyph-name="Y" unicode="Y" horiz-adv-x="637" 
d="M253 333l-241 383h161l143 -237h8l138 237h163l-237 -383v-333h-135v333z" />
    <glyph glyph-name="Z" unicode="Z" horiz-adv-x="596" 
d="M32 136l363 452h-347v128h504v-136l-359 -452h363v-128h-524v136z" />
    <glyph glyph-name="bracketleft" unicode="[" horiz-adv-x="352" 
d="M72 792h248v-108h-120v-700h120v-108h-248v916z" />
    <glyph glyph-name="backslash" unicode="\" horiz-adv-x="480" 
d="M324 0l-297 716h129l297 -716h-129z" />
    <glyph glyph-name="bracketright" unicode="]" horiz-adv-x="352" 
d="M280 -124h-248v108h120v700h-120v108h248v-916z" />
    <glyph glyph-name="asciicircum" unicode="^" horiz-adv-x="515" 
d="M368 410l-106 182h-8l-107 -182h-135l191 306h109l191 -306h-135z" />
    <glyph glyph-name="underscore" unicode="_" horiz-adv-x="499" 
d="M0 -100h499v-116h-499v116z" />
    <glyph glyph-name="grave" unicode="`" horiz-adv-x="443" 
d="M185 588l-89 136h153l42 -136h-106z" />
    <glyph glyph-name="a" unicode="a" horiz-adv-x="535" 
d="M358 52l-8.00098 -0.00195312c-15.333 -18.667 -33.833 -34.667 -55.5 -48s-49.5 -20 -83.5 -20c-25.333 0 -49.166 4.16699 -71.499 12.5s-41.833 19.833 -58.5 34.5s-29.667 32.334 -39 53.001s-14 43.334 -14 68.001c0 25.333 5 48.166 15 68.499s24 37.833 42 52.5
s39.167 25.834 63.5 33.501s50.833 11.5 79.5 11.5c32 0 58.333 -2.5 79 -7.5s37.667 -10.167 51 -15.5v15c0 26 -10.333 47.5 -31 64.5s-46.334 25.5 -77.001 25.5c-45.333 0 -83.666 -19 -114.999 -57l-95 65c52 65.333 123 98 213 98c76 0 134 -17.833 174 -53.5
s60 -88.5 60 -158.5v-294h-129v52zM357.999 198.998c-15.333 7.33301 -31.167 13.167 -47.5 17.5s-34.166 6.5 -53.499 6.5c-31.333 0 -55.5 -6.83301 -72.5 -20.5s-25.5 -30.5 -25.5 -50.5s8.16699 -36 24.5 -48s35.166 -18 56.499 -18c17.333 0 33.333 3.16699 48 9.5
s27.167 14.666 37.5 24.999s18.333 22.333 24 36s8.5 27.834 8.5 42.501z" />
    <glyph glyph-name="b" unicode="b" horiz-adv-x="600" 
d="M56 716l131 -0.00195312v-215l-8 -70h8c12 20.667 30.667 38.334 56 53.001s56.666 22 93.999 22c31.333 0 61.166 -6.5 89.499 -19.5s53.333 -31 75 -54s38.834 -50.5 51.501 -82.5s19 -67 19 -105s-6.33301 -73 -19 -105s-29.834 -59.5 -51.501 -82.5
s-46.667 -41 -75 -54s-58.166 -19.5 -89.499 -19.5c-37.333 0 -68.666 7.33301 -93.999 22s-44 32.334 -56 53.001h-8v-59h-123v716zM310 104.998c17.333 0 33.833 3.33496 49.5 10.002s29.5 16 41.5 28s21.667 26.667 29 44s11 36.666 11 57.999
s-3.66699 40.666 -11 57.999s-17 32 -29 44s-25.833 21.333 -41.5 28s-32.167 10 -49.5 10s-33.833 -3.16699 -49.5 -9.5s-29.5 -15.5 -41.5 -27.5s-21.667 -26.667 -29 -44s-11 -37 -11 -59s3.66699 -41.667 11 -59s17 -32 29 -44s25.833 -21.167 41.5 -27.5
s32.167 -9.5 49.5 -9.5z" />
    <glyph glyph-name="c" unicode="c" horiz-adv-x="545" 
d="M521 125c-21.333 -41.333 -51.168 -75.1689 -89.501 -101.502s-86.166 -39.5 -143.499 -39.5c-38 0 -72.833 6.5 -104.5 19.5s-59 31.167 -82 54.5s-41 50.833 -54 82.5s-19.5 66.5 -19.5 104.5s6.5 73 19.5 105s31 59.5 54 82.5s50.333 41 82 54s66.5 19.5 104.5 19.5
c56.667 0 104.334 -13 143.001 -39s67 -59.667 85 -101l-120 -50c-11.333 22.667 -25.833 39.834 -43.5 51.501s-39.834 17.5 -66.501 17.5c-17.333 0 -33.666 -3.33301 -48.999 -10s-28.833 -16 -40.5 -28s-20.834 -26.667 -27.501 -44s-10 -36.666 -10 -57.999
s3.33301 -40.666 10 -57.999s15.834 -32 27.501 -44s25.167 -21.333 40.5 -28s31.666 -10 48.999 -10c27.333 0 50.5 6.16699 69.5 18.5s34.167 30.166 45.5 53.499z" />
    <glyph glyph-name="d" unicode="d" horiz-adv-x="600" 
d="M421 59l-8 0.00195312c-12 -20.667 -30.667 -38.334 -56 -53.001s-56.666 -22 -93.999 -22c-31.333 0 -61.166 6.5 -89.499 19.5s-53.333 31 -75 54s-38.834 50.5 -51.501 82.5s-19 67 -19 105s6.33301 73 19 105s29.834 59.5 51.501 82.5s46.667 41 75 54
s58.166 19.5 89.499 19.5c37.333 0 68.666 -7.33301 93.999 -22s44 -32.334 56 -53.001h8l-8 70v215h131v-716h-123v59zM290 105.002c17.333 0 33.833 3.16504 49.5 9.49805s29.5 15.5 41.5 27.5s21.667 26.667 29 44s11 37 11 59s-3.66699 41.667 -11 59s-17 32 -29 44
s-25.833 21.167 -41.5 27.5s-32.167 9.5 -49.5 9.5s-33.833 -3.33301 -49.5 -10s-29.5 -16 -41.5 -28s-21.667 -26.667 -29 -44s-11 -36.666 -11 -57.999s3.66699 -40.666 11 -57.999s17 -32 29 -44s25.833 -21.333 41.5 -28s32.167 -10 49.5 -10z" />
    <glyph glyph-name="e" unicode="e" horiz-adv-x="556" 
d="M520 118c-22.667 -40 -53.1699 -72.335 -91.5029 -97.002s-85.166 -37 -140.499 -37c-37.333 0 -71.833 6.5 -103.5 19.5s-59.167 31.167 -82.5 54.5s-41.5 50.833 -54.5 82.5s-19.5 66.5 -19.5 104.5c0 35.333 6.33301 68.833 19 100.5s30.334 59.334 53.001 83.001
s49.5 42.5 80.5 56.5s65.167 21 102.5 21c39.333 0 74.333 -6.5 105 -19.5s56.334 -31 77.001 -54s36.334 -50.167 47.001 -81.5s16 -65.333 16 -102v-12c-0.666992 -4 -1 -7.66699 -1 -11c-0.666992 -3.33301 -1 -7 -1 -11h-369c2.66699 -20 8.16699 -37.167 16.5 -51.5
s18.666 -26.333 30.999 -36s25.833 -16.667 40.5 -21s29.667 -6.5 45 -6.5c30 0 54.833 6.83301 74.5 20.5s35.167 30.834 46.5 51.501zM400.997 307.998c-0.666992 8.66699 -3.5 18.333 -8.5 29s-12.333 20.667 -22 30s-21.667 17 -36 23s-31.5 9 -51.5 9
c-28 0 -52.667 -8 -74 -24s-36.333 -38.333 -45 -67h237z" />
    <glyph glyph-name="f" unicode="f" horiz-adv-x="397" 
d="M298 724c18.667 0 35.999 -1.66797 51.999 -5.00098s30.333 -7.66602 43 -12.999l-37 -117c-6.66699 3.33301 -13.834 6 -21.501 8s-17.167 3 -28.5 3c-19.333 0 -34.666 -6.16699 -45.999 -18.5s-17 -29.5 -17 -51.5v-40h122v-112h-122v-378h-131v378h-88v112h88v48
c0 30 4.5 56.5 13.5 79.5s21.833 42.333 38.5 58s36.334 27.667 59.001 36s47.667 12.5 75 12.5z" />
    <glyph glyph-name="g" unicode="g" horiz-adv-x="597" 
d="M282 -232c-34.667 0 -65.4961 4.5 -92.4961 13.5s-50.5 20.667 -70.5 35s-36.667 30.166 -50 47.499s-23 34.666 -29 51.999l125 50c9.33301 -26 24.666 -46.167 45.999 -60.5s45 -21.5 71 -21.5c41.333 0 74 12.833 98 38.5s36 61.5 36 107.5v34h-8
c-15.333 -21.333 -35.5 -38.166 -60.5 -50.499s-54.5 -18.5 -88.5 -18.5c-29.333 0 -57.833 6 -85.5 18s-52.167 29.167 -73.5 51.5s-38.666 49.166 -51.999 80.499s-20 66.333 -20 105s6.66699 73.834 20 105.501s30.666 58.667 51.999 81s45.833 39.5 73.5 51.5
s56.167 18 85.5 18c34 0 63.5 -6.16699 88.5 -18.5s45.167 -29.166 60.5 -50.499h8v53h125v-455c0 -41.333 -6.33301 -78.5 -19 -111.5s-30.334 -61 -53.001 -84s-49.834 -40.667 -81.501 -53s-66.834 -18.5 -105.501 -18.5zM287.004 113c16 0 31.833 3 47.5 9
s29.5 14.833 41.5 26.5s21.667 26 29 43s11 36.5 11 58.5s-3.66699 41.667 -11 59s-17 31.833 -29 43.5s-25.833 20.5 -41.5 26.5s-31.5 9 -47.5 9s-31.667 -3 -47 -9s-29 -15 -41 -27s-21.667 -26.5 -29 -43.5s-11 -36.5 -11 -58.5s3.66699 -41.5 11 -58.5
s17 -31.333 29 -43s25.667 -20.5 41 -26.5s31 -9 47 -9z" />
    <glyph glyph-name="h" unicode="h" 
d="M56 716h131.001v-201l-8 -89h8c14 23.333 34.167 42.5 60.5 57.5s55.833 22.5 88.5 22.5c63.333 0 110.166 -18.667 140.499 -56s45.5 -88.333 45.5 -153v-297h-131v281c0 34 -8 59.833 -24 77.5s-38.333 26.5 -67 26.5c-18 0 -34 -3.83301 -48 -11.5
s-25.833 -18.167 -35.5 -31.5s-17 -28.833 -22 -46.5s-7.5 -36.5 -7.5 -56.5v-239h-131v716z" />
    <glyph glyph-name="i" unicode="i" horiz-adv-x="259" 
d="M129 561c-11.333 0 -22.166 2.16504 -32.499 6.49805s-19.333 10.333 -27 18s-13.667 16.5 -18 26.5s-6.5 21 -6.5 33s2.16699 23 6.5 33s10.333 18.833 18 26.5s16.667 13.667 27 18s21.166 6.5 32.499 6.5c23.333 0 43.333 -8.16699 60 -24.5s25 -36.166 25 -59.499
s-8.33301 -43.166 -25 -59.499s-36.667 -24.5 -60 -24.5zM64 -0.00195312v490h131v-490h-131z" />
    <glyph glyph-name="j" unicode="j" horiz-adv-x="259" 
d="M-15 -96c5.33301 -3.33301 10.5 -5.66699 15.5 -7s11.167 -2 18.5 -2c30 0 45 19.667 45 59v536h131v-540c0 -32 -4.33301 -59.167 -13 -81.5s-20.334 -40.5 -35.001 -54.5s-31.667 -24.167 -51 -30.5s-40 -9.5 -62 -9.5c-16.667 0 -31.667 1.16699 -45 3.5
s-25.666 5.83301 -36.999 10.5zM129 560.999c-11.333 0 -22.166 2.16504 -32.499 6.49805s-19.333 10.333 -27 18s-13.667 16.5 -18 26.5s-6.5 21 -6.5 33s2.16699 23 6.5 33s10.333 18.833 18 26.5s16.667 13.667 27 18s21.166 6.5 32.499 6.5
c23.333 0 43.333 -8.16699 60 -24.5s25 -36.166 25 -59.499s-8.33301 -43.166 -25 -59.499s-36.667 -24.5 -60 -24.5z" />
    <glyph glyph-name="k" unicode="k" horiz-adv-x="530" 
d="M56 716h131v-390h6l164 164h162v-8l-182 -177l197 -297v-8h-155l-134 215l-58 -57v-158h-131v716z" />
    <glyph glyph-name="l" unicode="l" horiz-adv-x="243" 
d="M56 0v716h131v-716h-131z" />
    <glyph glyph-name="m" unicode="m" horiz-adv-x="880" 
d="M56 490l123.005 -0.00292969v-64h8c15.333 24 36.166 43.333 62.499 58s55.5 22 87.5 22c37.333 0 68.666 -8.66699 93.999 -26s43.333 -38.666 54 -63.999c15.333 24.667 37 45.834 65 63.501s62 26.5 102 26.5c30 0 56 -4.83301 78 -14.5s40.167 -23.167 54.5 -40.5
s25.166 -38.166 32.499 -62.499s11 -50.833 11 -79.5v-309h-131v285c0 66.667 -27.333 100 -82 100c-17.333 0 -32.666 -3.83301 -45.999 -11.5s-24.5 -18 -33.5 -31s-16 -28.5 -21 -46.5s-7.5 -37.333 -7.5 -58v-238h-131v285c0 66.667 -28.667 100 -86 100
c-16.667 0 -31.334 -3.83301 -44.001 -11.5s-23.334 -18 -32.001 -31s-15.334 -28.5 -20.001 -46.5s-7 -37.333 -7 -58v-238h-131v490z" />
    <glyph glyph-name="n" unicode="n" 
d="M179 426h8.00098c15.333 24.667 36 44.167 62 58.5s55.667 21.5 89 21.5c30.667 0 57.667 -5 81 -15s42.5 -24.167 57.5 -42.5s26.333 -40.333 34 -66s11.5 -54.167 11.5 -85.5v-297h-131v281c0 35.333 -7.83301 61.5 -23.5 78.5s-38.5 25.5 -68.5 25.5
c-18 0 -33.833 -3.83301 -47.5 -11.5s-25.334 -18 -35.001 -31s-17 -28.333 -22 -46s-7.5 -36.5 -7.5 -56.5v-240h-131v490h123v-64z" />
    <glyph glyph-name="o" unicode="o" horiz-adv-x="576" 
d="M288 506c38 0 72.833 -6.5 104.5 -19.5s59 -31 82 -54s41 -50.5 54 -82.5s19.5 -67 19.5 -105s-6.5 -73 -19.5 -105s-31 -59.5 -54 -82.5s-50.333 -41 -82 -54s-66.5 -19.5 -104.5 -19.5s-72.833 6.5 -104.5 19.5s-59 31 -82 54s-41 50.5 -54 82.5s-19.5 67 -19.5 105
s6.5 73 19.5 105s31 59.5 54 82.5s50.333 41 82 54s66.5 19.5 104.5 19.5zM288 105c16.667 0 32.834 3.16699 48.501 9.5s29.5 15.5 41.5 27.5s21.5 26.667 28.5 44s10.5 37 10.5 59s-3.5 41.667 -10.5 59s-16.5 32 -28.5 44s-25.833 21.167 -41.5 27.5
s-31.834 9.5 -48.501 9.5c-17.333 0 -33.666 -3.16699 -48.999 -9.5s-29 -15.5 -41 -27.5s-21.5 -26.667 -28.5 -44s-10.5 -37 -10.5 -59s3.5 -41.667 10.5 -59s16.5 -32 28.5 -44s25.667 -21.167 41 -27.5s31.666 -9.5 48.999 -9.5z" />
    <glyph glyph-name="p" unicode="p" horiz-adv-x="596" 
d="M52 490l123 -0.00195312v-59h8c12 20.667 30.667 38.334 56 53.001s56.666 22 93.999 22c31.333 0 61.166 -6.5 89.499 -19.5s53.333 -31 75 -54s38.834 -50.5 51.501 -82.5s19 -67 19 -105s-6.33301 -73 -19 -105s-29.834 -59.5 -51.501 -82.5s-46.667 -41 -75 -54
s-58.166 -19.5 -89.499 -19.5c-37.333 0 -68.666 7.33301 -93.999 22s-44 32.334 -56 53.001h-8l8 -70v-205h-131v706zM306 104.998c17.333 0 33.833 3.33496 49.5 10.002s29.5 16 41.5 28s21.667 26.667 29 44s11 36.666 11 57.999s-3.66699 40.666 -11 57.999
s-17 32 -29 44s-25.833 21.333 -41.5 28s-32.167 10 -49.5 10s-33.833 -3.16699 -49.5 -9.5s-29.5 -15.5 -41.5 -27.5s-21.667 -26.667 -29 -44s-11 -37 -11 -59s3.66699 -41.667 11 -59s17 -32 29 -44s25.833 -21.167 41.5 -27.5s32.167 -9.5 49.5 -9.5z" />
    <glyph glyph-name="q" unicode="q" horiz-adv-x="596" 
d="M413 -11l8 70.002h-8c-12 -20.667 -30.667 -38.334 -56 -53.001s-56.666 -22 -93.999 -22c-31.333 0 -61.166 6.5 -89.499 19.5s-53.333 31 -75 54s-38.834 50.5 -51.501 82.5s-19 67 -19 105s6.33301 73 19 105s29.834 59.5 51.501 82.5s46.667 41 75 54
s58.166 19.5 89.499 19.5c37.333 0 68.666 -7.33301 93.999 -22s44 -32.334 56 -53.001h8v59h123v-706h-131v205zM290 105.002c17.333 0 33.833 3.16504 49.5 9.49805s29.5 15.5 41.5 27.5s21.667 26.667 29 44s11 37 11 59s-3.66699 41.667 -11 59s-17 32 -29 44
s-25.833 21.167 -41.5 27.5s-32.167 9.5 -49.5 9.5s-33.833 -3.33301 -49.5 -10s-29.5 -16 -41.5 -28s-21.667 -26.667 -29 -44s-11 -36.666 -11 -57.999s3.66699 -40.666 11 -57.999s17 -32 29 -44s25.833 -21.333 41.5 -28s32.167 -10 49.5 -10z" />
    <glyph glyph-name="r" unicode="r" horiz-adv-x="407" 
d="M56 490l123.002 -0.000976562v-68h8c6 12 14 23 24 33s21.167 18.667 33.5 26s25.666 13 39.999 17s28.5 6 42.5 6c17.333 0 32.166 -1.66699 44.499 -5s22.833 -7.66602 31.5 -12.999l-35 -119c-8 4 -16.833 7.16699 -26.5 9.5s-21.5 3.5 -35.5 3.5
c-18 0 -34.333 -3.5 -49 -10.5s-27.167 -16.833 -37.5 -29.5s-18.333 -27.5 -24 -44.5s-8.5 -35.5 -8.5 -55.5v-240h-131v490z" />
    <glyph glyph-name="s" unicode="s" horiz-adv-x="483" 
d="M250 -16c-32 0 -60.501 4.00098 -85.501 12.001s-46.667 18.5 -65 31.5s-33.833 28 -46.5 45s-22.334 34.167 -29.001 51.5l117 50c11.333 -25.333 26.5 -44.166 45.5 -56.499s40.167 -18.5 63.5 -18.5c24 0 43 4.33301 57 13s21 19 21 31
c0 13.333 -5.83301 24.166 -17.5 32.499s-31.834 15.833 -60.501 22.5l-69 15c-15.333 3.33301 -31.166 8.66602 -47.499 15.999s-31.166 16.666 -44.499 27.999s-24.333 25 -33 41s-13 34.667 -13 56c0 24 5.16699 45.333 15.5 64s24.5 34.5 42.5 47.5s39.167 23 63.5 30
s50.5 10.5 78.5 10.5c46.667 0 88.334 -9.16699 125.001 -27.5s63.667 -47.5 81 -87.5l-113 -46c-9.33301 19.333 -23 33.333 -41 42s-36 13 -54 13c-18.667 0 -35 -3.83301 -49 -11.5s-21 -17.5 -21 -29.5c0 -11.333 5.83301 -20.333 17.5 -27s27.5 -12.667 47.5 -18
l75 -18c50 -12 87.167 -31.167 111.5 -57.5s36.5 -57.5 36.5 -93.5c0 -21.333 -5 -41.666 -15 -60.999s-24.167 -36.5 -42.5 -51.5s-40.333 -26.833 -66 -35.5s-54.167 -13 -85.5 -13z" />
    <glyph glyph-name="t" unicode="t" horiz-adv-x="401" 
d="M110 378l-85.998 0.000976562v112h86v150h131v-150h120v-112h-120v-190c0 -11.333 1.16699 -21.833 3.5 -31.5s6.83301 -17.834 13.5 -24.501c9.33301 -10.667 22.666 -16 39.999 -16c11.333 0 20.333 1.16699 27 3.5s13 5.5 19 9.5l37 -115
c-15.333 -7.33301 -31.833 -12.833 -49.5 -16.5s-37.167 -5.5 -58.5 -5.5c-24.667 0 -46.834 3.83301 -66.501 11.5s-36.167 18.167 -49.5 31.5c-31.333 30 -47 72.667 -47 128v215z" />
    <glyph glyph-name="u" unicode="u" 
d="M395 64h-8.00098c-15.333 -24.667 -36 -44.167 -62 -58.5s-55.667 -21.5 -89 -21.5c-62 0 -108.167 19 -138.5 57s-45.5 88.667 -45.5 152v297h131v-281c0 -35.333 7.83301 -61.5 23.5 -78.5s38.5 -25.5 68.5 -25.5c18 0 33.833 3.83301 47.5 11.5s25.334 18 35.001 31
s17 28.333 22 46s7.5 36.5 7.5 56.5v240h131v-490h-123v64z" />
    <glyph glyph-name="v" unicode="v" horiz-adv-x="557" 
d="M4 490h149l122 -312h7l123 312h148l-211 -490h-129z" />
    <glyph glyph-name="w" unicode="w" horiz-adv-x="805" 
d="M4 490h147l81 -307h7l97 307h135l98 -307h7l80 307h145l-157 -490h-141l-98 309h-7l-98 -309h-139z" />
    <glyph glyph-name="x" unicode="x" horiz-adv-x="514" 
d="M178 249l-168 241h155l89 -136h7l84 136h160l-172 -241l172 -249h-154l-92 140h-7l-89 -140h-155z" />
    <glyph glyph-name="y" unicode="y" horiz-adv-x="553" 
d="M210 24l-206 466h149l124 -297h7l119 297h146l-307 -706h-141z" />
    <glyph glyph-name="z" unicode="z" horiz-adv-x="479" 
d="M32 108l250 270h-242v112h403v-108l-250 -270h254v-112h-415v108z" />
    <glyph glyph-name="braceleft" unicode="{" horiz-adv-x="337" 
d="M136 -75c-32 32.667 -48 77.3281 -48 133.995v154c0 22.667 -6.5 39.334 -19.5 50.001s-27.833 16 -44.5 16v110c16.667 0 31.5 5.33301 44.5 16s19.5 27.334 19.5 50.001v154c0 56.667 16 101.334 48 134.001s77 49 135 49h34v-108h-16
c-20 0 -37.167 -7.16699 -51.5 -21.5s-21.5 -33.833 -21.5 -58.5v-146c0 -34 -5.16699 -60.667 -15.5 -80s-28.5 -32.666 -54.5 -39.999v-8c26 -7.33301 44.167 -20.666 54.5 -39.999s15.5 -46 15.5 -80v-146c0 -24.667 7.16699 -44.167 21.5 -58.5s31.5 -21.5 51.5 -21.5
h16v-108h-34c-58 0 -103 16.333 -135 49z" />
    <glyph glyph-name="bar" unicode="|" horiz-adv-x="264" 
d="M72 792h120v-912h-120v912z" />
    <glyph glyph-name="braceright" unicode="}" horiz-adv-x="337" 
d="M32 -124v108.006h17c20 0 37 7.16699 51 21.5s21 33.833 21 58.5v146c0 34 5.33301 60.667 16 80s29 32.666 55 39.999v8c-26 7.33301 -44.333 20.666 -55 39.999s-16 46 -16 80v146c0 24.667 -7 44.167 -21 58.5s-31 21.5 -51 21.5h-17v108h35
c58 0 102.833 -16.333 134.5 -49s47.5 -77.334 47.5 -134.001v-154c0 -22.667 6.5 -39.334 19.5 -50.001s27.833 -16 44.5 -16v-110c-16.667 0 -31.5 -5.33301 -44.5 -16s-19.5 -27.334 -19.5 -50.001v-154c0 -56.667 -15.833 -101.334 -47.5 -134.001s-76.5 -49 -134.5 -49
h-35z" />
    <glyph glyph-name="asciitilde" unicode="~" horiz-adv-x="554" 
d="M388 223c-20 0 -39.499 3 -58.499 9s-37.167 12.667 -54.5 20l-50 20c-15.333 6 -29.333 9 -42 9c-15.333 0 -26.666 -4 -33.999 -12s-11.666 -18 -12.999 -30h-104c0 46.667 11.833 84 35.5 112s56.5 42 98.5 42c20.667 0 40.667 -3 60 -9s37.666 -12.667 54.999 -20
l48.5 -20c15 -6 28.833 -9 41.5 -9c15.333 0 26.666 4 33.999 12s11.666 18 12.999 30h104c0 -46.667 -11.833 -84 -35.5 -112s-56.5 -42 -98.5 -42z" />
    <glyph glyph-name="uni00A0" unicode="&#xa0;" horiz-adv-x="220" 
d="M0 0z" />
    <glyph glyph-name="exclamdown" unicode="&#xa1;" horiz-adv-x="269" 
d="M135 506c24 0 44.333 -8.5 61 -25.5s25 -37.5 25 -61.5s-8.33301 -44.333 -25 -61s-37 -25 -61 -25s-44.5 8.33301 -61.5 25s-25.5 37 -25.5 61s8.5 44.5 25.5 61.5s37.5 25.5 61.5 25.5zM81 254h107l14 -264v-206h-135v206z" />
    <glyph glyph-name="cent" unicode="&#xa2;" horiz-adv-x="539" 
d="M237 87c-31.333 5.33301 -59.834 15.333 -85.501 30s-47.667 33 -66 55s-32.5 47.5 -42.5 76.5s-15 60.167 -15 93.5s5 64.5 15 93.5s24.167 54.5 42.5 76.5s40.333 40.333 66 55s54.167 24.667 85.5 30v87h90v-86c46 -6 83.833 -21.333 113.5 -46s52.834 -55 69.501 -91
l-108 -43c-18 36.667 -43 59.334 -75 68.001v-289c37.333 11.333 65.333 35.666 84 72.999l104 -45c-18.667 -36 -43.167 -66.667 -73.5 -92s-68.5 -41.333 -114.5 -48v-85h-90v87zM147.999 342c0 -36 8.33301 -66.168 25 -90.501s38 -41.5 64 -51.5v283
c-26 -9.33301 -47.333 -26.166 -64 -50.499s-25 -54.5 -25 -90.5z" />
    <glyph glyph-name="sterling" unicode="&#xa3;" horiz-adv-x="538" 
d="M341 505c-2.66699 10 -6.33008 19.667 -10.9971 29s-10.834 17.666 -18.501 24.999s-16.834 13.333 -27.501 18s-23 7 -37 7c-28.667 0 -50.834 -8.83301 -66.501 -26.5s-23.5 -38.834 -23.5 -63.501c0 -15.333 2 -29.666 6 -42.999s9.16699 -26 15.5 -38
s13.166 -23.667 20.499 -35l21 -36h132v-100h-107c-1.33301 -26.667 -6.5 -49.667 -15.5 -69s-20.833 -35.666 -35.5 -48.999l5 -8h149c37.333 0 61.333 19.667 72 59l102 -44c-12 -40 -31.667 -71.833 -59 -95.5s-65 -35.5 -113 -35.5h-318v106
c32 12.667 55.833 31 71.5 55s23.5 48 23.5 72v9h-92v100h54c-13.333 21.333 -26 44.333 -38 69s-18 54.334 -18 89.001c0 26.667 5.16699 52 15.5 76s24.833 45.167 43.5 63.5s41.167 33 67.5 44s55.5 16.5 87.5 16.5c30.667 0 57.834 -4.16699 81.501 -12.5
s44 -19.5 61 -33.5s31 -29.833 42 -47.5s19.167 -35.834 24.5 -54.501z" />
    <glyph glyph-name="currency" unicode="&#xa4;" horiz-adv-x="609" 
d="M304 106c-22.667 0 -44.335 3.16602 -65.002 9.49902s-39.667 15.166 -57 26.499l-58 -57l-64 65l58 57c-10.667 17.333 -19 35.833 -25 55.5s-9 40.5 -9 62.5s3 43 9 63s14.333 38.333 25 55l-58 58l64 64l58 -57c17.333 11.333 36.333 20.166 57 26.499
s42.334 9.5 65.001 9.5c23.333 0 45.333 -3.16699 66 -9.5s39.667 -15.166 57 -26.499l58 57l64 -64l-58 -58c10.667 -16.667 18.834 -35 24.501 -55s8.5 -41 8.5 -63c0 -43.333 -11 -82.666 -33 -117.999l58 -57l-64 -65l-58 57
c-17.333 -11.333 -36.333 -20.166 -57 -26.499s-42.667 -9.5 -66 -9.5zM303.999 208.999c16 0 30.833 3 44.5 9s25.5 14.167 35.5 24.5s17.833 22.666 23.5 36.999s8.5 29.5 8.5 45.5s-2.83301 31.167 -8.5 45.5s-13.5 26.666 -23.5 36.999s-21.833 18.5 -35.5 24.5
s-28.5 9 -44.5 9s-30.833 -3 -44.5 -9s-25.5 -14.167 -35.5 -24.5s-17.833 -22.666 -23.5 -36.999s-8.5 -29.5 -8.5 -45.5s2.83301 -31.167 8.5 -45.5s13.5 -26.666 23.5 -36.999s21.833 -18.5 35.5 -24.5s28.5 -9 44.5 -9z" />
    <glyph glyph-name="yen" unicode="&#xa5;" horiz-adv-x="632" 
d="M385 312v-63h162v-116h-162v-133h-135v133h-165v116h165v63h-165v116h91l-164 256h160l113 -189l29 -67h8l29 67l109 189h160l-162 -256h89v-116h-162z" />
    <glyph glyph-name="brokenbar" unicode="&#xa6;" horiz-adv-x="264" 
d="M72 376v380h120v-380h-120zM72 -120v412h120v-412h-120z" />
    <glyph glyph-name="section" unicode="&#xa7;" horiz-adv-x="560" 
d="M286 -232c-32.667 0 -62.668 5.1582 -90.001 15.4912s-51.5 24.333 -72.5 42s-38.667 38.334 -53 62.001s-24.5 49.167 -30.5 76.5l120 46c8.66699 -35.333 24 -64.333 46 -87s49.667 -34 83 -34c28 0 51.167 7 69.5 21s27.5 33.333 27.5 58s-10.833 44.667 -32.5 60
s-56.5 31 -104.5 47l-25 8c-53.333 17.333 -94 41.833 -122 73.5s-42 68.5 -42 110.5c0 30 6.66699 56.333 20 79s31.333 42.334 54 59.001c-22.667 17.333 -40.5 37.5 -53.5 60.5s-19.5 49.5 -19.5 79.5c0 26.667 5.5 51.334 16.5 74.001s26.333 42.334 46 59.001
s42.834 29.834 69.501 39.501s55.667 14.5 87 14.5c32 0 60.5 -4.83301 85.5 -14.5s46.667 -21.834 65 -36.501s33.166 -31 44.499 -49s19 -35.333 23 -52l-119 -47c-5.33301 20.667 -15.833 38.834 -31.5 54.501s-38.5 23.5 -68.5 23.5
c-25.333 0 -46.166 -6.5 -62.499 -19.5s-24.5 -28.167 -24.5 -45.5c0 -18.667 8.16699 -34.167 24.5 -46.5s44.833 -25.166 85.5 -38.499l30 -10c59.333 -20 105.5 -46 138.5 -78s49.5 -75.333 49.5 -130c0 -32 -5.83301 -59.667 -17.5 -83s-26.5 -42.666 -44.5 -57.999
c18 -17.333 32.333 -37.166 43 -59.499s16 -47.5 16 -75.5c0 -30 -6.16699 -57.333 -18.5 -82s-29 -45.667 -50 -63s-45.5 -30.666 -73.5 -39.999s-57.667 -14 -89 -14zM359.999 161.991c8.66699 9.33301 15.667 19.666 21 30.999s8 23 8 35c0 28.667 -10 52.334 -30 71.001
s-54.667 36 -104 52l-21 6c-15.333 -8 -27.5 -18.667 -36.5 -32s-13.5 -28.333 -13.5 -45c0 -21.333 9 -39.5 27 -54.5s45 -28.5 81 -40.5z" />
    <glyph glyph-name="dieresis" unicode="&#xa8;" horiz-adv-x="452" 
d="M321 587c-19.333 0 -36 7.16699 -50 21.5s-21 31.166 -21 50.499c0 20 7 37 21 51s30.667 21 50 21c20.667 0 37.834 -7 51.501 -21s20.5 -31 20.5 -51c0 -19.333 -6.83301 -36.166 -20.5 -50.499s-30.834 -21.5 -51.501 -21.5zM131 587c-20 0 -37 7.16699 -51 21.5
s-21 31.166 -21 50.499c0 20 7 37 21 51s31 21 51 21s36.833 -7 50.5 -21s20.5 -31 20.5 -51c0 -19.333 -6.83301 -36.166 -20.5 -50.499s-30.5 -21.5 -50.5 -21.5z" />
    <glyph glyph-name="copyright" unicode="&#xa9;" horiz-adv-x="532" 
d="M266 272c-32 0 -61.833 6 -89.5 18s-52 28.5 -73 49.5s-37.5 45.333 -49.5 73s-18 57.5 -18 89.5c0 31.333 6 61 18 89s28.5 52.5 49.5 73.5s45.333 37.5 73 49.5s57.5 18 89.5 18c31.333 0 61 -6 89 -18s52.5 -28.5 73.5 -49.5s37.5 -45.5 49.5 -73.5s18 -57.667 18 -89
c0 -32 -6 -61.833 -18 -89.5s-28.5 -52 -49.5 -73s-45.5 -37.5 -73.5 -49.5s-57.667 -18 -89 -18zM266 320c25.333 0 49 4.83301 71 14.5s41.333 22.834 58 39.501s29.667 36 39 58s14 45.333 14 70c0 25.333 -4.66699 49 -14 71s-22.333 41.333 -39 58s-36 29.667 -58 39
s-45.667 14 -71 14c-24.667 0 -48 -4.66699 -70 -14s-41.333 -22.333 -58 -39s-29.834 -36 -39.501 -58s-14.5 -45.667 -14.5 -71c0 -24.667 4.83301 -48 14.5 -70s22.834 -41.333 39.501 -58s36 -29.834 58 -39.501s45.333 -14.5 70 -14.5zM270 383
c-17.333 0 -33.167 3.16406 -47.5 9.49707s-26.833 14.833 -37.5 25.5s-19 23.334 -25 38.001s-9 30 -9 46c0 16.667 3 32.167 9 46.5s14.333 26.833 25 37.5s23.167 19.167 37.5 25.5s30.166 9.5 47.499 9.5c20.667 0 37.5 -3.66699 50.5 -11s25.167 -16.666 36.5 -27.999
l-32 -29c-7.33301 7.33301 -14.666 13.166 -21.999 17.499s-18.333 6.5 -33 6.5c-19.333 0 -36.333 -7.16699 -51 -21.5s-22 -32.166 -22 -53.499s7.33301 -39.166 22 -53.499s31.667 -21.5 51 -21.5c14 0 25.667 2.83301 35 8.5s17.666 13.167 24.999 22.5l34 -27
c-10.667 -14 -23.667 -25.5 -39 -34.5s-33.666 -13.5 -54.999 -13.5z" />
    <glyph glyph-name="ordfeminine" unicode="&#xaa;" horiz-adv-x="495" 
d="M204 272c-22.667 0 -43.832 3.5 -63.499 10.5s-37 17 -52 30s-26.833 28.5 -35.5 46.5s-13 38.333 -13 61s4.83301 43 14.5 61s22.667 33.333 39 46s35.166 22.334 56.499 29.001s44 10 68 10c26 0 48.833 -2.33301 68.5 -7s36.834 -10.667 51.501 -18v14
c0 24.667 -8.83301 44.667 -26.5 60s-41.167 23 -70.5 23c-20 0 -38.333 -4.33301 -55 -13s-29.667 -21.334 -39 -38.001l-95 48c17.333 30.667 42.5 54.5 75.5 71.5s70.833 25.5 113.5 25.5c64.667 0 116.5 -15.667 155.5 -47s58.5 -78.333 58.5 -141v-258h-117v46h-8
c-14 -18 -31.333 -32.5 -52 -43.5s-45.334 -16.5 -74.001 -16.5zM229.002 363c15.333 0 29.666 2.66504 42.999 7.99805s24.833 12.5 34.5 21.5s17.334 19.333 23.001 31s8.5 23.834 8.5 36.501c-9.33301 4 -22 8.66699 -38 14s-34.333 8 -55 8
c-30 0 -51.833 -6.16699 -65.5 -18.5s-20.5 -27.166 -20.5 -44.499s6.83301 -31 20.5 -41s30.167 -15 49.5 -15z" />
    <glyph glyph-name="guillemotleft" unicode="&#xab;" horiz-adv-x="610" 
d="M327 110l-75 -69l-212 230l212 230l75 -69l-150 -161zM550 110l-75 -69l-212 230l212 230l75 -69l-150 -161z" />
    <glyph glyph-name="logicalnot" unicode="&#xac;" horiz-adv-x="594" 
d="M48 404h466v-299h-115v185h-351v114z" />
    <glyph glyph-name="uni00AD" unicode="&#xad;" horiz-adv-x="451" 
d="M56 368h339v-116h-339v116z" />
    <glyph glyph-name="registered" unicode="&#xae;" horiz-adv-x="532" 
d="M266 272c-32 0 -61.833 6 -89.5 18s-52 28.5 -73 49.5s-37.5 45.333 -49.5 73s-18 57.5 -18 89.5c0 31.333 6 61 18 89s28.5 52.5 49.5 73.5s45.333 37.5 73 49.5s57.5 18 89.5 18c31.333 0 61 -6 89 -18s52.5 -28.5 73.5 -49.5s37.5 -45.5 49.5 -73.5s18 -57.667 18 -89
c0 -32 -6 -61.833 -18 -89.5s-28.5 -52 -49.5 -73s-45.5 -37.5 -73.5 -49.5s-57.667 -18 -89 -18zM266 320c25.333 0 49 4.83301 71 14.5s41.333 22.834 58 39.501s29.667 36 39 58s14 45.333 14 70c0 25.333 -4.66699 49 -14 71s-22.333 41.333 -39 58s-36 29.667 -58 39
s-45.667 14 -71 14c-24.667 0 -48 -4.66699 -70 -14s-41.333 -22.333 -58 -39s-29.834 -36 -39.501 -58s-14.5 -45.667 -14.5 -71c0 -24.667 4.83301 -48 14.5 -70s22.834 -41.333 39.501 -58s36 -29.834 58 -39.501s45.333 -14.5 70 -14.5zM189 389v226h96
c19.333 0 36.333 -6.83301 51 -20.5s22 -30.834 22 -51.501c0 -15.333 -4.83301 -29.166 -14.5 -41.499s-21.5 -20.5 -35.5 -24.5l-2 -2l60 -84v-2h-52l-55 84h-24v-84h-46zM281 515c8 0 15.166 2.5 21.499 7.5s9.5 11.833 9.5 20.5c0 6.66699 -2.66699 13 -8 19
s-12.666 9 -21.999 9h-47v-56h46z" />
    <glyph glyph-name="macron" unicode="&#xaf;" horiz-adv-x="416" 
d="M60 609v100h296v-100h-296z" />
    <glyph glyph-name="degree" unicode="&#xb0;" horiz-adv-x="325" 
d="M163 442c-18 0 -35 3.33301 -51 10s-29.833 15.834 -41.5 27.501s-21 25.334 -28 41.001s-10.5 32.5 -10.5 50.5s3.5 34.833 10.5 50.5s16.333 29.334 28 41.001s25.5 20.834 41.5 27.501s33 10 51 10s34.833 -3.33301 50.5 -10s29.334 -15.834 41.001 -27.501
s21 -25.334 28 -41.001s10.5 -32.5 10.5 -50.5s-3.5 -34.833 -10.5 -50.5s-16.333 -29.334 -28 -41.001s-25.334 -20.834 -41.001 -27.501s-32.5 -10 -50.5 -10zM163 519c14.667 0 26.667 5.16699 36 15.5s14 22.5 14 36.5c0 14.667 -4.66699 27 -14 37s-21.333 15 -36 15
c-15.333 0 -27.666 -5 -36.999 -15s-14 -22.333 -14 -37c0 -14 4.66699 -26.167 14 -36.5s21.666 -15.5 36.999 -15.5z" />
    <glyph glyph-name="plusminus" unicode="&#xb1;" horiz-adv-x="569" 
d="M342 424h171v-108h-171v-141h-116v141h-170v108h170v141h116v-141zM56 0v116h457v-116h-457z" />
    <glyph glyph-name="twosuperior" unicode="&#xb2;" horiz-adv-x="317" 
d="M28 350l-0.00195312 62.999l59 60l43.5 43.5l25.5 25.5c12 11.333 21.833 22 29.5 32s11.5 21.667 11.5 35c0 9.33301 -3.83301 17.666 -11.5 24.999s-17.5 11 -29.5 11c-13.333 0 -24.5 -4 -33.5 -12s-15.167 -20.667 -18.5 -38l-80 31c7.33301 30 23 53.833 47 71.5
s52.333 26.5 85 26.5c18.667 0 36 -2.66699 52 -8s29.833 -12.666 41.5 -21.999s20.834 -20.666 27.501 -33.999s10 -28 10 -44c0 -12 -2.16699 -23.5 -6.5 -34.5s-9.66602 -21.333 -15.999 -31s-13 -18.5 -20 -26.5s-13.5 -15 -19.5 -21l-45 -45l-30 -29h139v-79h-261z" />
    <glyph glyph-name="threesuperior" unicode="&#xb3;" horiz-adv-x="335" 
d="M165 342c-32 0 -61.165 8.00098 -87.498 24.001s-44.166 41.667 -53.499 77l83 30c4 -20 11.5 -34 22.5 -42s22.833 -12 35.5 -12c13.333 0 24.833 4 34.5 12s14.5 18.667 14.5 32s-5.33301 23.666 -16 30.999s-24.334 11 -41.001 11h-38v70h34
c15.333 0 27.5 3.16699 36.5 9.5s13.5 15.833 13.5 28.5c0 10.667 -3.83301 19 -11.5 25s-16.834 9 -27.501 9c-15.333 0 -27 -3.83301 -35 -11.5s-13.667 -16.167 -17 -25.5l-78 31c8.66699 24 23.834 43.833 45.501 59.5s50.5 23.5 86.5 23.5
c18.667 0 35.5 -2.66699 50.5 -8s28 -12.833 39 -22.5s19.5 -20.667 25.5 -33s9 -25.5 9 -39.5c0 -32 -14.333 -58 -43 -78c16 -8.66699 29.333 -20.167 40 -34.5s16 -30.833 16 -49.5s-3.83301 -35.167 -11.5 -49.5s-17.834 -26.5 -30.501 -36.5
s-27.334 -17.667 -44.001 -23s-34 -8 -52 -8z" />
    <glyph glyph-name="acute" unicode="&#xb4;" horiz-adv-x="443" 
d="M152 588l42 136h153l-90 -136h-105z" />
    <glyph glyph-name="mu" unicode="&#xb5;" 
d="M395 0l-0.000976562 54.001h-8c-14 -22 -31.167 -39.167 -51.5 -51.5s-45.5 -18.5 -75.5 -18.5c-15.333 0 -29.5 2.16699 -42.5 6.5s-24.5 10.166 -34.5 17.499h-8l8 -65v-159h-131v706h131v-278c0 -35.333 8.33301 -62 25 -80s39 -27 67 -27
c18 0 33.833 3.83301 47.5 11.5s25.334 18 35.001 31s17 28.333 22 46s7.5 36.5 7.5 56.5v240h131v-490h-123z" />
    <glyph glyph-name="paragraph" unicode="&#xb6;" horiz-adv-x="643" 
d="M273 -216v512h-25c-30 0 -58.5 4.83301 -85.5 14.5s-50.667 23.5 -71 41.5s-36.666 40 -48.999 66s-18.5 55.333 -18.5 88s6.16699 62 18.5 88s28.666 48 48.999 66s44 31.833 71 41.5s55.5 14.5 85.5 14.5h315v-932h-110v825h-70v-825h-110z" />
    <glyph glyph-name="periodcentered" unicode="&#xb7;" horiz-adv-x="213" 
d="M107 237c-24 0 -44.5 8.5 -61.5 25.5s-25.5 37.5 -25.5 61.5s8.5 44.5 25.5 61.5s37.5 25.5 61.5 25.5s44.333 -8.5 61 -25.5s25 -37.5 25 -61.5s-8.33301 -44.5 -25 -61.5s-37 -25.5 -61 -25.5z" />
    <glyph glyph-name="cedilla" unicode="&#xb8;" horiz-adv-x="411" 
d="M170 -237c-24 0 -44.6689 6.33203 -62.002 18.999s-29.666 28.334 -36.999 47.001l64 27c2.66699 -8 7 -14.667 13 -20s13.333 -8 22 -8c10.667 0 18.834 3.16699 24.501 9.5s8.5 13.833 8.5 22.5s-2.83301 16.5 -8.5 23.5s-13.834 10.5 -24.501 10.5
c-6 0 -11.167 -1.5 -15.5 -4.5s-8.16602 -6.16699 -11.499 -9.5l-61 28l36 92h68l-21 -47c3.33301 0.666992 6.33301 1 9 1h9c26 0 48.167 -8.33301 66.5 -25s27.5 -40 27.5 -70c0 -28 -9.83301 -51 -29.5 -69s-45.5 -27 -77.5 -27z" />
    <glyph glyph-name="onesuperior" unicode="&#xb9;" horiz-adv-x="272" 
d="M123 350v263l-66 -29l-33 75l123 57h65v-366h-89z" />
    <glyph glyph-name="ordmasculine" unicode="&#xba;" horiz-adv-x="535" 
d="M267 272c-33.333 0 -64.166 5.66699 -92.499 17s-52.666 27.166 -72.999 47.499s-36.333 44.666 -48 72.999s-17.5 59.166 -17.5 92.499s5.83301 64.166 17.5 92.499s27.667 52.666 48 72.999s44.666 36.166 72.999 47.499s59.166 17 92.499 17
s64.166 -5.66699 92.499 -17s52.833 -27.166 73.5 -47.499s36.834 -44.666 48.501 -72.999s17.5 -59.166 17.5 -92.499s-5.83301 -64.166 -17.5 -92.499s-27.834 -52.666 -48.501 -72.999s-45.167 -36.166 -73.5 -47.499s-59.166 -17 -92.499 -17zM267 381
c14.667 0 28.834 2.83301 42.501 8.5s25.834 13.834 36.501 24.501s19.167 23.5 25.5 38.5s9.5 31.5 9.5 49.5s-3.16699 34.5 -9.5 49.5s-14.833 27.833 -25.5 38.5s-22.834 18.834 -36.501 24.501s-27.834 8.5 -42.501 8.5s-28.834 -2.83301 -42.501 -8.5
s-25.834 -13.834 -36.501 -24.501s-19.167 -23.5 -25.5 -38.5s-9.5 -31.5 -9.5 -49.5s3.16699 -34.5 9.5 -49.5s14.833 -27.833 25.5 -38.5s22.834 -18.834 36.501 -24.501s27.834 -8.5 42.501 -8.5z" />
    <glyph glyph-name="guillemotright" unicode="&#xbb;" horiz-adv-x="610" 
d="M210 271l-150 161l75 69l212 -230l-212 -230l-75 69zM433 271l-150 161l75 69l212 -230l-212 -230l-75 69z" />
    <glyph glyph-name="onequarter" unicode="&#xbc;" horiz-adv-x="771" 
d="M581 0v65h-172v64l171 237h87v-227h48v-74h-48v-65h-86zM581 139v107h-8l-76 -107h84zM119 37l465 694l79 -53l-465 -694zM147 350v263l-66 -29l-33 75l123 57h65v-366h-89z" />
    <glyph glyph-name="onehalf" unicode="&#xbd;" horiz-adv-x="808" 
d="M491 0l-0.00195312 62.999l59 60l43.5 43.5l25.5 25.5c12 11.333 21.833 22 29.5 32s11.5 21.667 11.5 35c0 9.33301 -3.83301 17.666 -11.5 24.999s-17.5 11 -29.5 11c-13.333 0 -24.5 -4 -33.5 -12s-15.167 -20.667 -18.5 -38l-80 31c7.33301 30 23 53.833 47 71.5
s52.333 26.5 85 26.5c18.667 0 36 -2.66699 52 -8s29.833 -12.666 41.5 -21.999s20.834 -20.666 27.501 -33.999s10 -28 10 -44c0 -12 -2.16699 -23.5 -6.5 -34.5s-9.66602 -21.333 -15.999 -31s-13 -18.5 -20 -26.5s-13.5 -15 -19.5 -21l-45 -45l-30 -29h139v-79h-261z
M110.998 36.999l465 694l79 -53l-465 -694zM146.998 349.999v263l-66 -29l-33 75l123 57h65v-366h-89z" />
    <glyph glyph-name="threequarters" unicode="&#xbe;" horiz-adv-x="843" 
d="M189 342c-32 0 -61.165 8.00098 -87.498 24.001s-44.166 41.667 -53.499 77l83 30c4 -20 11.5 -34 22.5 -42s22.833 -12 35.5 -12c13.333 0 24.833 4 34.5 12s14.5 18.667 14.5 32s-5.33301 23.666 -16 30.999s-24.334 11 -41.001 11h-38v70h34
c15.333 0 27.5 3.16699 36.5 9.5s13.5 15.833 13.5 28.5c0 10.667 -3.83301 19 -11.5 25s-16.834 9 -27.501 9c-15.333 0 -27 -3.83301 -35 -11.5s-13.667 -16.167 -17 -25.5l-78 31c8.66699 24 23.834 43.833 45.501 59.5s50.5 23.5 86.5 23.5
c18.667 0 35.5 -2.66699 50.5 -8s28 -12.833 39 -22.5s19.5 -20.667 25.5 -33s9 -25.5 9 -39.5c0 -32 -14.333 -58 -43 -78c16 -8.66699 29.333 -20.167 40 -34.5s16 -30.833 16 -49.5s-3.83301 -35.167 -11.5 -49.5s-17.834 -26.5 -30.501 -36.5
s-27.334 -17.667 -44.001 -23s-34 -8 -52 -8zM651.002 0.000976562v65h-172v64l171 237h87v-227h48v-74h-48v-65h-86zM651.002 139.001v107h-8l-76 -107h84zM179.002 37.001l465 694l79 -53l-465 -694z" />
    <glyph glyph-name="questiondown" unicode="&#xbf;" horiz-adv-x="503" 
d="M315 254l0.00195312 -32.999c0 -16 -1.66699 -30.833 -5 -44.5s-8.66602 -26.834 -15.999 -39.501s-16.833 -25.334 -28.5 -38.001s-25.834 -26.334 -42.501 -41.001c-18 -16 -32 -30.667 -42 -44s-15 -29.666 -15 -48.999c0 -20 7.5 -37.667 22.5 -53s35.5 -23 61.5 -23
c14 0 26.667 2.33301 38 7s21.333 11 30 19s15.667 17 21 27s9.66602 20.333 12.999 31l115 -48c-5.33301 -18.667 -13.833 -37.334 -25.5 -56.001s-26.334 -35.5 -44.001 -50.5s-38.5 -27.167 -62.5 -36.5s-51 -14 -81 -14c-32 0 -61.333 4.83301 -88 14.5
s-49.5 23 -68.5 40s-33.833 37.167 -44.5 60.5s-16 48.333 -16 75c0 18.667 2.33301 35.834 7 51.501s11 30.167 19 43.5s17.333 25.833 28 37.5s22 23.167 34 34.5c22.667 20.667 38.167 38.834 46.5 54.501s12.5 35.167 12.5 58.5v16h131zM250.002 506.001
c24 0 44.5 -8.5 61.5 -25.5s25.5 -37.5 25.5 -61.5s-8.5 -44.333 -25.5 -61s-37.5 -25 -61.5 -25s-44.333 8.33301 -61 25s-25 37 -25 61s8.33301 44.5 25 61.5s37 25.5 61 25.5z" />
    <glyph glyph-name="Agrave" unicode="&#xc0;" horiz-adv-x="716" 
d="M281 716h154l269 -716h-149l-59 171h-276l-59 -171h-149zM452 295l-64 179l-26 87h-8l-26 -87l-64 -179h188zM310 772l-89 136h153l42 -136h-106z" />
    <glyph glyph-name="Aacute" unicode="&#xc1;" horiz-adv-x="716" 
d="M281 716h154l269 -716h-149l-59 171h-276l-59 -171h-149zM452 295l-64 179l-26 87h-8l-26 -87l-64 -179h188zM300 772l42 136h153l-90 -136h-105z" />
    <glyph glyph-name="Acircumflex" unicode="&#xc2;" horiz-adv-x="716" 
d="M281 716h154l269 -716h-149l-59 171h-276l-59 -171h-149zM452 295l-64 179l-26 87h-8l-26 -87l-64 -179h188zM187 774l114 126h114l114 -126v-8h-125l-40 59h-12l-40 -59h-125v8z" />
    <glyph glyph-name="Atilde" unicode="&#xc3;" horiz-adv-x="716" 
d="M281 716h154l269 -716h-149l-59 171h-276l-59 -171h-149zM452 295l-64 179l-26 87h-8l-26 -87l-64 -179h188zM420 771c-14 0 -26.998 2.16602 -38.998 6.49902s-23 9.5 -33 15.5l-27 14.5c-8 4.33301 -15 6.5 -21 6.5c-16.667 0 -25.334 -9.66699 -26.001 -29h-92
c0 22 3.16699 41 9.5 57s15 29.167 26 39.5s23.333 18.166 37 23.499s28.167 8 43.5 8c14 0 27.167 -2.16699 39.5 -6.5s23.5 -9.16602 33.5 -14.499c10 -6 19 -11.167 27 -15.5s14.667 -6.5 20 -6.5c16 0 25 9.66699 27 29h92c0 -22 -3.33301 -41 -10 -57
s-15.334 -29.167 -26.001 -39.5s-23.167 -18.166 -37.5 -23.499s-28.833 -8 -43.5 -8z" />
    <glyph glyph-name="Adieresis" unicode="&#xc4;" horiz-adv-x="716" 
d="M281 716h154l269 -716h-149l-59 171h-276l-59 -171h-149zM452 295l-64 179l-26 87h-8l-26 -87l-64 -179h188zM453 771c-19.333 0 -36 7.16699 -50 21.5s-21 31.166 -21 50.499c0 20 7 37 21 51s30.667 21 50 21c20.667 0 37.834 -7 51.501 -21s20.5 -31 20.5 -51
c0 -19.333 -6.83301 -36.166 -20.5 -50.499s-30.834 -21.5 -51.501 -21.5zM263 771c-20 0 -37 7.16699 -51 21.5s-21 31.166 -21 50.499c0 20 7 37 21 51s31 21 51 21s36.833 -7 50.5 -21s20.5 -31 20.5 -51c0 -19.333 -6.83301 -36.166 -20.5 -50.499
s-30.5 -21.5 -50.5 -21.5z" />
    <glyph glyph-name="Aring" unicode="&#xc5;" horiz-adv-x="716" 
d="M263 668c-10.667 11.333 -19.1689 24.5 -25.502 39.5s-9.5 31.167 -9.5 48.5c0 18 3.33301 34.833 10 50.5s15.834 29.5 27.501 41.5s25.5 21.333 41.5 28s33 10 51 10s34.833 -3.33301 50.5 -10s29.334 -16 41.001 -28s21 -25.833 28 -41.5s10.5 -32.5 10.5 -50.5
c0 -17.333 -3.16699 -33.5 -9.5 -48.5s-14.833 -28.167 -25.5 -39.5l251 -668h-149l-59 171h-275l-60 -171h-149zM451.998 295l-64 179l-26 87h-8l-26 -87l-64 -179h188zM357.998 716c11.333 0 20.833 3.83301 28.5 11.5s11.5 17.167 11.5 28.5s-3.83301 20.833 -11.5 28.5
s-17.167 11.5 -28.5 11.5s-20.833 -3.83301 -28.5 -11.5s-11.5 -17.167 -11.5 -28.5s3.83301 -20.833 11.5 -28.5s17.167 -11.5 28.5 -11.5z" />
    <glyph glyph-name="AE" unicode="&#xc6;" horiz-adv-x="1005" 
d="M4 0l418 716h531v-128h-319v-166h287v-128h-287v-166h319v-128h-454v173h-239l-98 -173h-158zM331 301h168v287h-10l-34 -70z" />
    <glyph glyph-name="Ccedilla" unicode="&#xc7;" horiz-adv-x="734" 
d="M414 -237c-24.667 0 -45.5 6.32715 -62.5 18.9941s-29.167 28.334 -36.5 47.001l64 27c2.66699 -8 6.83398 -14.667 12.501 -20s13.167 -8 22.5 -8c10 0 18 3.16699 24 9.5s9 13.833 9 22.5s-3 16.5 -9 23.5s-14 10.5 -24 10.5c-6 0 -11.333 -1.5 -16 -4.5
s-8.66699 -6.16699 -12 -9.5l-60 28l31 80c-46 6 -88.667 19.667 -128 41s-73.166 48.333 -101.499 81s-50.5 70.167 -66.5 112.5s-24 87.5 -24 135.5c0 52.667 9.66699 101.834 29 147.501s45.666 85.167 78.999 118.5s72.833 59.666 118.5 78.999s95.167 29 148.5 29
c57.333 0 107.833 -10 151.5 -30s82.5 -49 116.5 -87l-95 -92c-21.333 24.667 -45.833 44.334 -73.5 59.001s-60.5 22 -98.5 22c-33.333 0 -64.666 -5.83301 -93.999 -17.5s-54.833 -28.167 -76.5 -49.5s-38.834 -47.166 -51.501 -77.499s-19 -64.166 -19 -101.499
s6.33301 -71.166 19 -101.499s29.834 -56.166 51.501 -77.499s47.167 -37.833 76.5 -49.5s60.666 -17.5 93.999 -17.5c40 0 75.5 8.16699 106.5 24.5s58.5 39.5 82.5 69.5l96 -91c-69.333 -84 -161 -127.667 -275 -131l-14 -31c3.33301 0.666992 6.33301 1 9 1h9
c25.333 0 47.166 -8.33301 65.499 -25s27.5 -40 27.5 -70c0 -28 -9.66699 -51 -29 -69s-45 -27 -77 -27z" />
    <glyph glyph-name="Egrave" unicode="&#xc8;" horiz-adv-x="578" 
d="M207 588v-166h287v-128h-287v-166h319v-128h-454v716h454v-128h-319zM253 772l-89 136h153l42 -136h-106z" />
    <glyph glyph-name="Eacute" unicode="&#xc9;" horiz-adv-x="578" 
d="M242 772l42 136h153l-90 -136h-105zM207 588v-166h287v-128h-287v-166h319v-128h-454v716h454v-128h-319z" />
    <glyph glyph-name="Ecircumflex" unicode="&#xca;" horiz-adv-x="578" 
d="M128 774l114 126h114l114 -126v-8h-125l-40 59h-12l-40 -59h-125v8zM207 588v-166h287v-128h-287v-166h319v-128h-454v716h454v-128h-319z" />
    <glyph glyph-name="Edieresis" unicode="&#xcb;" horiz-adv-x="578" 
d="M390 771c-19.333 0 -36 7.16699 -50 21.5s-21 31.166 -21 50.499c0 20 7 37 21 51s30.667 21 50 21c20.667 0 37.834 -7 51.501 -21s20.5 -31 20.5 -51c0 -19.333 -6.83301 -36.166 -20.5 -50.499s-30.834 -21.5 -51.501 -21.5zM200 771c-20 0 -37 7.16699 -51 21.5
s-21 31.166 -21 50.499c0 20 7 37 21 51s31 21 51 21s36.833 -7 50.5 -21s20.5 -31 20.5 -51c0 -19.333 -6.83301 -36.166 -20.5 -50.499s-30.5 -21.5 -50.5 -21.5zM207 588v-166h287v-128h-287v-166h319v-128h-454v716h454v-128h-319z" />
    <glyph glyph-name="Igrave" unicode="&#xcc;" horiz-adv-x="279" 
d="M72 716h135v-716h-135v716zM95 772l-89 136h153l42 -136h-106z" />
    <glyph glyph-name="Iacute" unicode="&#xcd;" horiz-adv-x="279" 
d="M72 716h135v-716h-135v716zM80 772l42 136h153l-90 -136h-105z" />
    <glyph glyph-name="Icircumflex" unicode="&#xce;" horiz-adv-x="279" 
d="M72 716h135v-716h-135v716zM-31 774l114 126h114l114 -126v-8h-125l-40 59h-12l-40 -59h-125v8z" />
    <glyph glyph-name="Idieresis" unicode="&#xcf;" horiz-adv-x="279" 
d="M53 774c-19.333 0 -35.666 6.83301 -48.999 20.5s-20 29.834 -20 48.501c0 19.333 6.66699 35.666 20 48.999s29.666 20 48.999 20s35.666 -6.66699 48.999 -20s20 -29.666 20 -48.999c0 -18.667 -6.66699 -34.834 -20 -48.501s-29.666 -20.5 -48.999 -20.5zM226 774
c-18.667 0 -34.834 6.83301 -48.501 20.5s-20.5 29.834 -20.5 48.501c0 19.333 6.83301 35.666 20.5 48.999s29.834 20 48.501 20c19.333 0 35.666 -6.66699 48.999 -20s20 -29.666 20 -48.999c0 -18.667 -6.66699 -34.834 -20 -48.501s-29.666 -20.5 -48.999 -20.5zM72 716
h135v-716h-135v716z" />
    <glyph glyph-name="Eth" unicode="&#xd0;" horiz-adv-x="779" 
d="M132 302l-76 -0.000976562v110h76v304h242c56.667 0 107.667 -8.66699 153 -26s84 -41.833 116 -73.5s56.5 -69.5 73.5 -113.5s25.5 -92.333 25.5 -145c0 -53.333 -8.5 -102 -25.5 -146s-41.5 -81.667 -73.5 -113s-70.667 -55.666 -116 -72.999s-96.333 -26 -153 -26
h-242v302zM368 127.999c39.333 0 74 5.5 104 16.5s55 26.5 75 46.5s35 44.167 45 72.5s15 59.833 15 94.5s-5 66.167 -15 94.5s-25 52.5 -45 72.5s-45 35.5 -75 46.5s-64.667 16.5 -104 16.5h-101v-176h184v-110h-184v-174h101z" />
    <glyph glyph-name="Ntilde" unicode="&#xd1;" horiz-adv-x="723" 
d="M72 716h157l288 -480h8l-8 138v342h134v-716h-142l-304 507h-8l8 -138v-369h-133v716zM430 771c-14 0 -26.998 2.16602 -38.998 6.49902s-23 9.5 -33 15.5l-27 14.5c-8 4.33301 -15 6.5 -21 6.5c-16.667 0 -25.334 -9.66699 -26.001 -29h-92c0 22 3.16699 41 9.5 57
s15 29.167 26 39.5s23.333 18.166 37 23.499s28.167 8 43.5 8c14 0 27.167 -2.16699 39.5 -6.5s23.5 -9.16602 33.5 -14.499c10 -6 19 -11.167 27 -15.5s14.667 -6.5 20 -6.5c16 0 25 9.66699 27 29h92c0 -22 -3.33301 -41 -10 -57s-15.334 -29.167 -26.001 -39.5
s-23.167 -18.166 -37.5 -23.499s-28.833 -8 -43.5 -8z" />
    <glyph glyph-name="Ograve" unicode="&#xd2;" horiz-adv-x="822" 
d="M411 -16c-53.333 0 -102.833 9.66699 -148.5 29s-85.167 45.833 -118.5 79.5s-59.5 73.334 -78.5 119.001s-28.5 94.5 -28.5 146.5s9.5 100.833 28.5 146.5s45.167 85.334 78.5 119.001s72.833 60.167 118.5 79.5s95.167 29 148.5 29s102.833 -9.66699 148.5 -29
s85.167 -45.833 118.5 -79.5s59.5 -73.334 78.5 -119.001s28.5 -94.5 28.5 -146.5s-9.5 -100.833 -28.5 -146.5s-45.167 -85.334 -78.5 -119.001s-72.833 -60.167 -118.5 -79.5s-95.167 -29 -148.5 -29zM411 112c33.333 0 64.5 6 93.5 18s54.333 28.667 76 50
s38.667 47.166 51 77.499s18.5 63.833 18.5 100.5s-6.16699 70.167 -18.5 100.5s-29.333 56.166 -51 77.499s-47 38 -76 50s-60.167 18 -93.5 18s-64.5 -6 -93.5 -18s-54.333 -28.667 -76 -50s-38.667 -47.166 -51 -77.499s-18.5 -63.833 -18.5 -100.5
s6.16699 -70.167 18.5 -100.5s29.333 -56.166 51 -77.499s47 -38 76 -50s60.167 -18 93.5 -18zM357 772l-89 136h153l42 -136h-106z" />
    <glyph glyph-name="Oacute" unicode="&#xd3;" horiz-adv-x="822" 
d="M358 772l42 136h153l-90 -136h-105zM411 -16c-53.333 0 -102.833 9.66699 -148.5 29s-85.167 45.833 -118.5 79.5s-59.5 73.334 -78.5 119.001s-28.5 94.5 -28.5 146.5s9.5 100.833 28.5 146.5s45.167 85.334 78.5 119.001s72.833 60.167 118.5 79.5s95.167 29 148.5 29
s102.833 -9.66699 148.5 -29s85.167 -45.833 118.5 -79.5s59.5 -73.334 78.5 -119.001s28.5 -94.5 28.5 -146.5s-9.5 -100.833 -28.5 -146.5s-45.167 -85.334 -78.5 -119.001s-72.833 -60.167 -118.5 -79.5s-95.167 -29 -148.5 -29zM411 112c33.333 0 64.5 6 93.5 18
s54.333 28.667 76 50s38.667 47.166 51 77.499s18.5 63.833 18.5 100.5s-6.16699 70.167 -18.5 100.5s-29.333 56.166 -51 77.499s-47 38 -76 50s-60.167 18 -93.5 18s-64.5 -6 -93.5 -18s-54.333 -28.667 -76 -50s-38.667 -47.166 -51 -77.499s-18.5 -63.833 -18.5 -100.5
s6.16699 -70.167 18.5 -100.5s29.333 -56.166 51 -77.499s47 -38 76 -50s60.167 -18 93.5 -18z" />
    <glyph glyph-name="Ocircumflex" unicode="&#xd4;" horiz-adv-x="822" 
d="M240 775l114 126h114l114 -126v-8h-125l-40 59h-12l-40 -59h-125v8zM411 -16c-53.333 0 -102.833 9.66699 -148.5 29s-85.167 45.833 -118.5 79.5s-59.5 73.334 -78.5 119.001s-28.5 94.5 -28.5 146.5s9.5 100.833 28.5 146.5s45.167 85.334 78.5 119.001
s72.833 60.167 118.5 79.5s95.167 29 148.5 29s102.833 -9.66699 148.5 -29s85.167 -45.833 118.5 -79.5s59.5 -73.334 78.5 -119.001s28.5 -94.5 28.5 -146.5s-9.5 -100.833 -28.5 -146.5s-45.167 -85.334 -78.5 -119.001s-72.833 -60.167 -118.5 -79.5
s-95.167 -29 -148.5 -29zM411 112c33.333 0 64.5 6 93.5 18s54.333 28.667 76 50s38.667 47.166 51 77.499s18.5 63.833 18.5 100.5s-6.16699 70.167 -18.5 100.5s-29.333 56.166 -51 77.499s-47 38 -76 50s-60.167 18 -93.5 18s-64.5 -6 -93.5 -18s-54.333 -28.667 -76 -50
s-38.667 -47.166 -51 -77.499s-18.5 -63.833 -18.5 -100.5s6.16699 -70.167 18.5 -100.5s29.333 -56.166 51 -77.499s47 -38 76 -50s60.167 -18 93.5 -18z" />
    <glyph glyph-name="Otilde" unicode="&#xd5;" horiz-adv-x="822" 
d="M411 -16c-53.333 0 -102.833 9.66699 -148.5 29s-85.167 45.833 -118.5 79.5s-59.5 73.334 -78.5 119.001s-28.5 94.5 -28.5 146.5s9.5 100.833 28.5 146.5s45.167 85.334 78.5 119.001s72.833 60.167 118.5 79.5s95.167 29 148.5 29s102.833 -9.66699 148.5 -29
s85.167 -45.833 118.5 -79.5s59.5 -73.334 78.5 -119.001s28.5 -94.5 28.5 -146.5s-9.5 -100.833 -28.5 -146.5s-45.167 -85.334 -78.5 -119.001s-72.833 -60.167 -118.5 -79.5s-95.167 -29 -148.5 -29zM411 112c33.333 0 64.5 6 93.5 18s54.333 28.667 76 50
s38.667 47.166 51 77.499s18.5 63.833 18.5 100.5s-6.16699 70.167 -18.5 100.5s-29.333 56.166 -51 77.499s-47 38 -76 50s-60.167 18 -93.5 18s-64.5 -6 -93.5 -18s-54.333 -28.667 -76 -50s-38.667 -47.166 -51 -77.499s-18.5 -63.833 -18.5 -100.5
s6.16699 -70.167 18.5 -100.5s29.333 -56.166 51 -77.499s47 -38 76 -50s60.167 -18 93.5 -18zM472 771c-14 0 -26.998 2.16602 -38.998 6.49902s-23 9.5 -33 15.5l-27 14.5c-8 4.33301 -15 6.5 -21 6.5c-16.667 0 -25.334 -9.66699 -26.001 -29h-92c0 22 3.16699 41 9.5 57
s15 29.167 26 39.5s23.333 18.166 37 23.499s28.167 8 43.5 8c14 0 27.167 -2.16699 39.5 -6.5s23.5 -9.16602 33.5 -14.499c10 -6 19 -11.167 27 -15.5s14.667 -6.5 20 -6.5c16 0 25 9.66699 27 29h92c0 -22 -3.33301 -41 -10 -57s-15.334 -29.167 -26.001 -39.5
s-23.167 -18.166 -37.5 -23.499s-28.833 -8 -43.5 -8z" />
    <glyph glyph-name="Odieresis" unicode="&#xd6;" horiz-adv-x="822" 
d="M506 771c-19.333 0 -36 7.16699 -50 21.5s-21 31.166 -21 50.499c0 20 7 37 21 51s30.667 21 50 21c20.667 0 37.834 -7 51.501 -21s20.5 -31 20.5 -51c0 -19.333 -6.83301 -36.166 -20.5 -50.499s-30.834 -21.5 -51.501 -21.5zM316 771c-20 0 -37 7.16699 -51 21.5
s-21 31.166 -21 50.499c0 20 7 37 21 51s31 21 51 21s36.833 -7 50.5 -21s20.5 -31 20.5 -51c0 -19.333 -6.83301 -36.166 -20.5 -50.499s-30.5 -21.5 -50.5 -21.5zM411 -16c-53.333 0 -102.833 9.66699 -148.5 29s-85.167 45.833 -118.5 79.5s-59.5 73.334 -78.5 119.001
s-28.5 94.5 -28.5 146.5s9.5 100.833 28.5 146.5s45.167 85.334 78.5 119.001s72.833 60.167 118.5 79.5s95.167 29 148.5 29s102.833 -9.66699 148.5 -29s85.167 -45.833 118.5 -79.5s59.5 -73.334 78.5 -119.001s28.5 -94.5 28.5 -146.5s-9.5 -100.833 -28.5 -146.5
s-45.167 -85.334 -78.5 -119.001s-72.833 -60.167 -118.5 -79.5s-95.167 -29 -148.5 -29zM411 112c33.333 0 64.5 6 93.5 18s54.333 28.667 76 50s38.667 47.166 51 77.499s18.5 63.833 18.5 100.5s-6.16699 70.167 -18.5 100.5s-29.333 56.166 -51 77.499s-47 38 -76 50
s-60.167 18 -93.5 18s-64.5 -6 -93.5 -18s-54.333 -28.667 -76 -50s-38.667 -47.166 -51 -77.499s-18.5 -63.833 -18.5 -100.5s6.16699 -70.167 18.5 -100.5s29.333 -56.166 51 -77.499s47 -38 76 -50s60.167 -18 93.5 -18z" />
    <glyph glyph-name="multiply" unicode="&#xd7;" horiz-adv-x="611" 
d="M223 271l-163 156l81 81l165 -158l164 158l81 -81l-163 -156l163 -156l-81 -81l-164 158l-165 -158l-81 81z" />
    <glyph glyph-name="Oslash" unicode="&#xd8;" horiz-adv-x="822" 
d="M411 -16c-28 0 -54.5 2.66602 -79.5 7.99902s-48.833 12.666 -71.5 21.999l-38 -61l-91 59l36 58c-40.667 34 -72.5 75.833 -95.5 125.5s-34.5 103.834 -34.5 162.501c0 52 9.5 100.833 28.5 146.5s45.167 85.334 78.5 119.001s72.833 60.167 118.5 79.5
s95.167 29 148.5 29c27.333 0 53.5 -2.66699 78.5 -8s49.167 -12.666 72.5 -21.999l38 61l91 -59l-37 -59c40.667 -34 72.667 -75.667 96 -125s35 -103.333 35 -162c0 -52 -9.5 -100.833 -28.5 -146.5s-45.167 -85.334 -78.5 -119.001s-72.833 -60.167 -118.5 -79.5
s-95.167 -29 -148.5 -29zM411 603.999c-33.333 0 -64.5 -6.00098 -93.5 -18.001s-54.333 -28.667 -76 -50s-38.667 -47.166 -51 -77.499s-18.5 -63.833 -18.5 -100.5c0 -36 5.83301 -68.833 17.5 -98.5s27.834 -55.167 48.501 -76.5l254 408
c-12.667 4.66699 -25.834 8 -39.501 10s-27.5 3 -41.5 3zM411 111.998c33.333 0 64.502 6.00195 93.502 18.002s54.333 28.667 76 50s38.667 47.166 51 77.499s18.5 63.833 18.5 100.5c0 36 -5.83301 68.667 -17.5 98s-27.834 54.666 -48.501 75.999l-255 -407
c13.333 -4 26.666 -7.16699 39.999 -9.5s27.333 -3.5 42 -3.5z" />
    <glyph glyph-name="Ugrave" unicode="&#xd9;" horiz-adv-x="669" 
d="M334 -16c-42 0 -80.168 6.83301 -114.501 20.5s-63.5 33.5 -87.5 59.5s-42.667 57.5 -56 94.5s-20 79.167 -20 126.5v431h135v-439c0 -24 3 -46 9 -66s15 -37.333 27 -52s27 -26.167 45 -34.5s38.667 -12.5 62 -12.5c24 0 45 4.16699 63 12.5s33 19.833 45 34.5
s21 32 27 52s9 42 9 66v439h135v-431c0 -44.667 -6.5 -85.5 -19.5 -122.5s-31.667 -68.667 -56 -95s-53.666 -46.833 -87.999 -61.5s-72.833 -22 -115.5 -22zM286.999 772l-89 136h153l42 -136h-106z" />
    <glyph glyph-name="Uacute" unicode="&#xda;" horiz-adv-x="669" 
d="M277 772l42 136h153l-90 -136h-105zM334 -16c-42 0 -80.168 6.83301 -114.501 20.5s-63.5 33.5 -87.5 59.5s-42.667 57.5 -56 94.5s-20 79.167 -20 126.5v431h135v-439c0 -24 3 -46 9 -66s15 -37.333 27 -52s27 -26.167 45 -34.5s38.667 -12.5 62 -12.5
c24 0 45 4.16699 63 12.5s33 19.833 45 34.5s21 32 27 52s9 42 9 66v439h135v-431c0 -44.667 -6.5 -85.5 -19.5 -122.5s-31.667 -68.667 -56 -95s-53.666 -46.833 -87.999 -61.5s-72.833 -22 -115.5 -22z" />
    <glyph glyph-name="Ucircumflex" unicode="&#xdb;" horiz-adv-x="669" 
d="M163 774l114 126h114l114 -126v-8h-125l-40 59h-12l-40 -59h-125v8zM334 -16c-42 0 -80.168 6.83301 -114.501 20.5s-63.5 33.5 -87.5 59.5s-42.667 57.5 -56 94.5s-20 79.167 -20 126.5v431h135v-439c0 -24 3 -46 9 -66s15 -37.333 27 -52s27 -26.167 45 -34.5
s38.667 -12.5 62 -12.5c24 0 45 4.16699 63 12.5s33 19.833 45 34.5s21 32 27 52s9 42 9 66v439h135v-431c0 -44.667 -6.5 -85.5 -19.5 -122.5s-31.667 -68.667 -56 -95s-53.666 -46.833 -87.999 -61.5s-72.833 -22 -115.5 -22z" />
    <glyph glyph-name="Udieresis" unicode="&#xdc;" horiz-adv-x="669" 
d="M429 771c-19.333 0 -36 7.16699 -50 21.5s-21 31.166 -21 50.499c0 20 7 37 21 51s30.667 21 50 21c20.667 0 37.834 -7 51.501 -21s20.5 -31 20.5 -51c0 -19.333 -6.83301 -36.166 -20.5 -50.499s-30.834 -21.5 -51.501 -21.5zM239 771c-20 0 -37 7.16699 -51 21.5
s-21 31.166 -21 50.499c0 20 7 37 21 51s31 21 51 21s36.833 -7 50.5 -21s20.5 -31 20.5 -51c0 -19.333 -6.83301 -36.166 -20.5 -50.499s-30.5 -21.5 -50.5 -21.5zM334 -16c-42 0 -80.168 6.83301 -114.501 20.5s-63.5 33.5 -87.5 59.5s-42.667 57.5 -56 94.5
s-20 79.167 -20 126.5v431h135v-439c0 -24 3 -46 9 -66s15 -37.333 27 -52s27 -26.167 45 -34.5s38.667 -12.5 62 -12.5c24 0 45 4.16699 63 12.5s33 19.833 45 34.5s21 32 27 52s9 42 9 66v439h135v-431c0 -44.667 -6.5 -85.5 -19.5 -122.5s-31.667 -68.667 -56 -95
s-53.666 -46.833 -87.999 -61.5s-72.833 -22 -115.5 -22z" />
    <glyph glyph-name="Yacute" unicode="&#xdd;" horiz-adv-x="637" 
d="M253 333l-241 383h161l143 -237h8l138 237h163l-237 -383v-333h-135v333zM262 772l42 136h153l-90 -136h-105z" />
    <glyph glyph-name="Thorn" unicode="&#xde;" horiz-adv-x="592" 
d="M72 0v716h135v-108h117c34 0 65.833 -5.5 95.5 -16.5s55.5 -26.5 77.5 -46.5s39.333 -44 52 -72s19 -58.667 19 -92s-6.33301 -63.833 -19 -91.5s-30 -51.5 -52 -71.5s-47.833 -35.5 -77.5 -46.5s-61.5 -16.5 -95.5 -16.5h-117v-155h-135zM207 480v-197h119
c36 0 62.833 9.83301 80.5 29.5s26.5 42.5 26.5 68.5s-9 49 -27 69s-44.667 30 -80 30h-119z" />
    <glyph glyph-name="germandbls" unicode="&#xdf;" horiz-adv-x="585" 
d="M439 383c36 -15.333 63.9961 -37.498 83.9961 -66.498s30 -65.5 30 -109.5c0 -32 -5.66699 -61.167 -17 -87.5s-27.166 -49 -47.499 -68s-44.666 -33.667 -72.999 -44s-59.5 -15.5 -93.5 -15.5c-10.667 0 -20.667 0.333008 -30 1s-19 1.66699 -29 3v121
c15.333 -2.66699 32.333 -4 51 -4c30.667 0 56.334 9.33301 77.001 28s31 44 31 76c0 16 -3.16699 30.5 -9.5 43.5s-15 24.167 -26 33.5s-23.833 16.666 -38.5 21.999s-30 8 -46 8h-28v115h20c30.667 0 54.834 8.33301 72.501 25s26.5 38.334 26.5 65.001
c0 23.333 -8.83301 42.833 -26.5 58.5s-39.834 23.5 -66.501 23.5c-30.667 0 -54.5 -10 -71.5 -30s-25.5 -45.333 -25.5 -76v-505h-131v507c0 32 5.33301 61.833 16 89.5s25.834 51.5 45.501 71.5s43.5 35.667 71.5 47s59.667 17 95 17c32 0 61.333 -4.66699 88 -14
s49.667 -22.333 69 -39s34.5 -36.834 45.5 -60.501s16.5 -49.5 16.5 -77.5c0 -34.667 -7.83301 -64.834 -23.5 -90.501s-34.5 -45.5 -56.5 -59.5v-8z" />
    <glyph glyph-name="agrave" unicode="&#xe0;" horiz-adv-x="535" 
d="M358 52l-8.00098 -0.00195312c-15.333 -18.667 -33.833 -34.667 -55.5 -48s-49.5 -20 -83.5 -20c-25.333 0 -49.166 4.16699 -71.499 12.5s-41.833 19.833 -58.5 34.5s-29.667 32.334 -39 53.001s-14 43.334 -14 68.001c0 25.333 5 48.166 15 68.499s24 37.833 42 52.5
s39.167 25.834 63.5 33.501s50.833 11.5 79.5 11.5c32 0 58.333 -2.5 79 -7.5s37.667 -10.167 51 -15.5v15c0 26 -10.333 47.5 -31 64.5s-46.334 25.5 -77.001 25.5c-45.333 0 -83.666 -19 -114.999 -57l-95 65c52 65.333 123 98 213 98c76 0 134 -17.833 174 -53.5
s60 -88.5 60 -158.5v-294h-129v52zM357.999 198.998c-15.333 7.33301 -31.167 13.167 -47.5 17.5s-34.166 6.5 -53.499 6.5c-31.333 0 -55.5 -6.83301 -72.5 -20.5s-25.5 -30.5 -25.5 -50.5s8.16699 -36 24.5 -48s35.166 -18 56.499 -18c17.333 0 33.333 3.16699 48 9.5
s27.167 14.666 37.5 24.999s18.333 22.333 24 36s8.5 27.834 8.5 42.501zM221.998 587.999l-89 136h153l42 -136h-106z" />
    <glyph glyph-name="aacute" unicode="&#xe1;" horiz-adv-x="535" 
d="M358 52l-8.00098 -0.00195312c-15.333 -18.667 -33.833 -34.667 -55.5 -48s-49.5 -20 -83.5 -20c-25.333 0 -49.166 4.16699 -71.499 12.5s-41.833 19.833 -58.5 34.5s-29.667 32.334 -39 53.001s-14 43.334 -14 68.001c0 25.333 5 48.166 15 68.499s24 37.833 42 52.5
s39.167 25.834 63.5 33.501s50.833 11.5 79.5 11.5c32 0 58.333 -2.5 79 -7.5s37.667 -10.167 51 -15.5v15c0 26 -10.333 47.5 -31 64.5s-46.334 25.5 -77.001 25.5c-45.333 0 -83.666 -19 -114.999 -57l-95 65c52 65.333 123 98 213 98c76 0 134 -17.833 174 -53.5
s60 -88.5 60 -158.5v-294h-129v52zM357.999 198.998c-15.333 7.33301 -31.167 13.167 -47.5 17.5s-34.166 6.5 -53.499 6.5c-31.333 0 -55.5 -6.83301 -72.5 -20.5s-25.5 -30.5 -25.5 -50.5s8.16699 -36 24.5 -48s35.166 -18 56.499 -18c17.333 0 33.333 3.16699 48 9.5
s27.167 14.666 37.5 24.999s18.333 22.333 24 36s8.5 27.834 8.5 42.501zM206.998 587.999l42 136h153l-90 -136h-105z" />
    <glyph glyph-name="acircumflex" unicode="&#xe2;" horiz-adv-x="535" 
d="M358 52l-8.00098 -0.00195312c-15.333 -18.667 -33.833 -34.667 -55.5 -48s-49.5 -20 -83.5 -20c-25.333 0 -49.166 4.16699 -71.499 12.5s-41.833 19.833 -58.5 34.5s-29.667 32.334 -39 53.001s-14 43.334 -14 68.001c0 25.333 5 48.166 15 68.499s24 37.833 42 52.5
s39.167 25.834 63.5 33.501s50.833 11.5 79.5 11.5c32 0 58.333 -2.5 79 -7.5s37.667 -10.167 51 -15.5v15c0 26 -10.333 47.5 -31 64.5s-46.334 25.5 -77.001 25.5c-45.333 0 -83.666 -19 -114.999 -57l-95 65c52 65.333 123 98 213 98c76 0 134 -17.833 174 -53.5
s60 -88.5 60 -158.5v-294h-129v52zM357.999 198.998c-15.333 7.33301 -31.167 13.167 -47.5 17.5s-34.166 6.5 -53.499 6.5c-31.333 0 -55.5 -6.83301 -72.5 -20.5s-25.5 -30.5 -25.5 -50.5s8.16699 -36 24.5 -48s35.166 -18 56.499 -18c17.333 0 33.333 3.16699 48 9.5
s27.167 14.666 37.5 24.999s18.333 22.333 24 36s8.5 27.834 8.5 42.501zM89.998 589.999l114 126h114l114 -126v-8h-125l-40 59h-12l-40 -59h-125v8z" />
    <glyph glyph-name="atilde" unicode="&#xe3;" horiz-adv-x="535" 
d="M358 52l-8.00098 -0.00195312c-15.333 -18.667 -33.833 -34.667 -55.5 -48s-49.5 -20 -83.5 -20c-25.333 0 -49.166 4.16699 -71.499 12.5s-41.833 19.833 -58.5 34.5s-29.667 32.334 -39 53.001s-14 43.334 -14 68.001c0 25.333 5 48.166 15 68.499s24 37.833 42 52.5
s39.167 25.834 63.5 33.501s50.833 11.5 79.5 11.5c32 0 58.333 -2.5 79 -7.5s37.667 -10.167 51 -15.5v15c0 26 -10.333 47.5 -31 64.5s-46.334 25.5 -77.001 25.5c-45.333 0 -83.666 -19 -114.999 -57l-95 65c52 65.333 123 98 213 98c76 0 134 -17.833 174 -53.5
s60 -88.5 60 -158.5v-294h-129v52zM357.999 198.998c-15.333 7.33301 -31.167 13.167 -47.5 17.5s-34.166 6.5 -53.499 6.5c-31.333 0 -55.5 -6.83301 -72.5 -20.5s-25.5 -30.5 -25.5 -50.5s8.16699 -36 24.5 -48s35.166 -18 56.499 -18c17.333 0 33.333 3.16699 48 9.5
s27.167 14.666 37.5 24.999s18.333 22.333 24 36s8.5 27.834 8.5 42.501zM331.998 587.999c-14 0 -26.998 2.16602 -38.998 6.49902s-23 9.5 -33 15.5l-27 14.5c-8 4.33301 -15 6.5 -21 6.5c-16.667 0 -25.334 -9.66699 -26.001 -29h-92c0 22 3.16699 41 9.5 57
s15 29.167 26 39.5s23.333 18.166 37 23.499s28.167 8 43.5 8c14 0 27.167 -2.16699 39.5 -6.5s23.5 -9.16602 33.5 -14.499c10 -6 19 -11.167 27 -15.5s14.667 -6.5 20 -6.5c16 0 25 9.66699 27 29h92c0 -22 -3.33301 -41 -10 -57s-15.334 -29.167 -26.001 -39.5
s-23.167 -18.166 -37.5 -23.499s-28.833 -8 -43.5 -8z" />
    <glyph glyph-name="adieresis" unicode="&#xe4;" horiz-adv-x="535" 
d="M358 52l-8.00098 -0.00195312c-15.333 -18.667 -33.833 -34.667 -55.5 -48s-49.5 -20 -83.5 -20c-25.333 0 -49.166 4.16699 -71.499 12.5s-41.833 19.833 -58.5 34.5s-29.667 32.334 -39 53.001s-14 43.334 -14 68.001c0 25.333 5 48.166 15 68.499s24 37.833 42 52.5
s39.167 25.834 63.5 33.501s50.833 11.5 79.5 11.5c32 0 58.333 -2.5 79 -7.5s37.667 -10.167 51 -15.5v15c0 26 -10.333 47.5 -31 64.5s-46.334 25.5 -77.001 25.5c-45.333 0 -83.666 -19 -114.999 -57l-95 65c52 65.333 123 98 213 98c76 0 134 -17.833 174 -53.5
s60 -88.5 60 -158.5v-294h-129v52zM357.999 198.998c-15.333 7.33301 -31.167 13.167 -47.5 17.5s-34.166 6.5 -53.499 6.5c-31.333 0 -55.5 -6.83301 -72.5 -20.5s-25.5 -30.5 -25.5 -50.5s8.16699 -36 24.5 -48s35.166 -18 56.499 -18c17.333 0 33.333 3.16699 48 9.5
s27.167 14.666 37.5 24.999s18.333 22.333 24 36s8.5 27.834 8.5 42.501zM363.998 586.999c-19.333 0 -36 7.16699 -50 21.5s-21 31.166 -21 50.499c0 20 7 37 21 51s30.667 21 50 21c20.667 0 37.834 -7 51.501 -21s20.5 -31 20.5 -51
c0 -19.333 -6.83301 -36.166 -20.5 -50.499s-30.834 -21.5 -51.501 -21.5zM173.998 586.999c-20 0 -37 7.16699 -51 21.5s-21 31.166 -21 50.499c0 20 7 37 21 51s31 21 51 21s36.833 -7 50.5 -21s20.5 -31 20.5 -51c0 -19.333 -6.83301 -36.166 -20.5 -50.499
s-30.5 -21.5 -50.5 -21.5z" />
    <glyph glyph-name="aring" unicode="&#xe5;" horiz-adv-x="535" 
d="M358 52l-8.00098 -0.00195312c-15.333 -18.667 -33.833 -34.667 -55.5 -48s-49.5 -20 -83.5 -20c-25.333 0 -49.166 4.16699 -71.499 12.5s-41.833 19.833 -58.5 34.5s-29.667 32.334 -39 53.001s-14 43.334 -14 68.001c0 25.333 5 48.166 15 68.499s24 37.833 42 52.5
s39.167 25.834 63.5 33.501s50.833 11.5 79.5 11.5c32 0 58.333 -2.5 79 -7.5s37.667 -10.167 51 -15.5v15c0 26 -10.333 47.5 -31 64.5s-46.334 25.5 -77.001 25.5c-45.333 0 -83.666 -19 -114.999 -57l-95 65c52 65.333 123 98 213 98c76 0 134 -17.833 174 -53.5
s60 -88.5 60 -158.5v-294h-129v52zM357.999 198.998c-15.333 7.33301 -31.167 13.167 -47.5 17.5s-34.166 6.5 -53.499 6.5c-31.333 0 -55.5 -6.83301 -72.5 -20.5s-25.5 -30.5 -25.5 -50.5s8.16699 -36 24.5 -48s35.166 -18 56.499 -18c17.333 0 33.333 3.16699 48 9.5
s27.167 14.666 37.5 24.999s18.333 22.333 24 36s8.5 27.834 8.5 42.501zM269.998 560.999c-15.333 0 -29.5 2.83301 -42.5 8.5s-24.333 13.334 -34 23.001s-17.334 21 -23.001 34s-8.5 27.167 -8.5 42.5c0 14.667 2.83301 28.667 8.5 42s13.334 24.833 23.001 34.5
s21 17.334 34 23.001s27.167 8.5 42.5 8.5c14.667 0 28.667 -2.83301 42 -8.5s24.833 -13.334 34.5 -23.001s17.334 -21.167 23.001 -34.5s8.5 -27.333 8.5 -42c0 -15.333 -2.83301 -29.5 -8.5 -42.5s-13.334 -24.333 -23.001 -34s-21.167 -17.334 -34.5 -23.001
s-27.333 -8.5 -42 -8.5zM269.998 633.999c9.33301 0 17.5 3.5 24.5 10.5s10.5 15.167 10.5 24.5s-3.5 17.5 -10.5 24.5s-15.167 10.5 -24.5 10.5s-17.5 -3.5 -24.5 -10.5s-10.5 -15.167 -10.5 -24.5s3.5 -17.5 10.5 -24.5s15.167 -10.5 24.5 -10.5z" />
    <glyph glyph-name="ae" unicode="&#xe6;" horiz-adv-x="887" 
d="M619 -16c-41.333 0 -78.5 8.83008 -111.5 26.4971s-61.5 41.834 -85.5 72.501c-51.333 -66 -119.333 -99 -204 -99c-28 0 -53.5 4.16699 -76.5 12.5s-43 19.833 -60 34.5s-30.167 32.334 -39.5 53.001s-14 43.334 -14 68.001c0 25.333 5 48.166 15 68.499
s24 37.833 42 52.5s39.167 25.834 63.5 33.501s50.833 11.5 79.5 11.5c32 0 58.333 -2.5 79 -7.5s37.667 -10.167 51 -15.5v9c0 29.333 -10.167 52.666 -30.5 69.999s-45.5 26 -75.5 26c-48 0 -80.667 -18.667 -98 -56l-102 45c19.333 38 46 67 80 87s75 30 123 30
c40.667 0 76.167 -7.33301 106.5 -22s55.5 -35 75.5 -61c21.333 26.667 47.166 47.167 77.499 61.5s63.833 21.5 100.5 21.5c39.333 0 74.166 -6.5 104.499 -19.5s55.833 -31 76.5 -54s36.334 -50.167 47.001 -81.5s16 -65.333 16 -102v-12c-0.666992 -4 -1 -7.66699 -1 -11
c-0.666992 -3.33301 -1 -7 -1 -11h-370c2.66699 -20 8.33398 -37.167 17.001 -51.5s19.167 -26.333 31.5 -36s25.833 -16.667 40.5 -21s29.667 -6.5 45 -6.5c30 0 54.833 6.83301 74.5 20.5s35.5 30.834 47.5 51.501l108 -54c-22 -40 -52.333 -72.333 -91 -97
s-85.667 -37 -141 -37zM240 85.9971c17.333 0 33.332 3.16797 47.999 9.50098s27.167 14.666 37.5 24.999s18.333 22.333 24 36s8.5 27.834 8.5 42.501c-15.333 7.33301 -31.166 13.166 -47.499 17.499s-34.166 6.5 -53.499 6.5c-31.333 0 -55.5 -6.83301 -72.5 -20.5
s-25.5 -30.5 -25.5 -50.5s8.16699 -36 24.5 -48s35.166 -18 56.499 -18zM732.999 307.998c-1.33301 8.66699 -4.5 18.333 -9.5 29s-12.333 20.667 -22 30s-21.667 17 -36 23s-31.5 9 -51.5 9c-28 0 -53 -8 -75 -24s-37.333 -38.333 -46 -67h240z" />
    <glyph glyph-name="ccedilla" unicode="&#xe7;" horiz-adv-x="545" 
d="M294 -237c-24 0 -44.6699 6.3291 -62.0029 18.9961s-29.666 28.334 -36.999 47.001l64 27c2.66699 -8 7 -14.667 13 -20s13.333 -8 22 -8c10.667 0 18.834 3.16699 24.501 9.5s8.5 13.833 8.5 22.5s-2.83301 16.5 -8.5 23.5s-13.834 10.5 -24.501 10.5
c-6 0 -11.167 -1.5 -15.5 -4.5s-8.16602 -6.16699 -11.499 -9.5l-61 28l31 81c-31.333 5.33301 -59.666 15.333 -84.999 30s-47.333 33.167 -66 55.5s-33 48 -43 77s-15 60.167 -15 93.5c0 38 6.5 73 19.5 105s31 59.5 54 82.5s50.333 41 82 54s66.5 19.5 104.5 19.5
c56.667 0 104.334 -13 143.001 -39s67 -59.667 85 -101l-120 -50c-11.333 22.667 -25.833 39.834 -43.5 51.501s-39.834 17.5 -66.501 17.5c-17.333 0 -33.666 -3.33301 -48.999 -10s-28.833 -16 -40.5 -28s-20.834 -26.667 -27.501 -44s-10 -36.666 -10 -57.999
s3.33301 -40.666 10 -57.999s15.834 -32 27.501 -44s25.167 -21.333 40.5 -28s31.666 -10 48.999 -10c27.333 0 50.5 6.16699 69.5 18.5s34.167 30.166 45.5 53.499l120 -52c-20 -40 -48 -72.667 -84 -98s-80.667 -39.666 -134 -42.999l-14 -31
c3.33301 0.666992 6.33301 1 9 1h9c26 0 48.167 -8.33301 66.5 -25s27.5 -40 27.5 -70c0 -28 -9.83301 -51 -29.5 -69s-45.5 -27 -77.5 -27z" />
    <glyph glyph-name="egrave" unicode="&#xe8;" horiz-adv-x="556" 
d="M520 118c-22.667 -40 -53.1699 -72.335 -91.5029 -97.002s-85.166 -37 -140.499 -37c-37.333 0 -71.833 6.5 -103.5 19.5s-59.167 31.167 -82.5 54.5s-41.5 50.833 -54.5 82.5s-19.5 66.5 -19.5 104.5c0 35.333 6.33301 68.833 19 100.5s30.334 59.334 53.001 83.001
s49.5 42.5 80.5 56.5s65.167 21 102.5 21c39.333 0 74.333 -6.5 105 -19.5s56.334 -31 77.001 -54s36.334 -50.167 47.001 -81.5s16 -65.333 16 -102v-12c-0.666992 -4 -1 -7.66699 -1 -11c-0.666992 -3.33301 -1 -7 -1 -11h-369c2.66699 -20 8.16699 -37.167 16.5 -51.5
s18.666 -26.333 30.999 -36s25.833 -16.667 40.5 -21s29.667 -6.5 45 -6.5c30 0 54.833 6.83301 74.5 20.5s35.167 30.834 46.5 51.501zM400.997 307.998c-0.666992 8.66699 -3.5 18.333 -8.5 29s-12.333 20.667 -22 30s-21.667 17 -36 23s-31.5 9 -51.5 9
c-28 0 -52.667 -8 -74 -24s-36.333 -38.333 -45 -67h237zM227.997 587.997l-89 136h153l42 -136h-106z" />
    <glyph glyph-name="eacute" unicode="&#xe9;" horiz-adv-x="556" 
d="M220 588l42 136h153l-90 -136h-105zM520 118c-22.667 -40 -53.1699 -72.335 -91.5029 -97.002s-85.166 -37 -140.499 -37c-37.333 0 -71.833 6.5 -103.5 19.5s-59.167 31.167 -82.5 54.5s-41.5 50.833 -54.5 82.5s-19.5 66.5 -19.5 104.5
c0 35.333 6.33301 68.833 19 100.5s30.334 59.334 53.001 83.001s49.5 42.5 80.5 56.5s65.167 21 102.5 21c39.333 0 74.333 -6.5 105 -19.5s56.334 -31 77.001 -54s36.334 -50.167 47.001 -81.5s16 -65.333 16 -102v-12c-0.666992 -4 -1 -7.66699 -1 -11
c-0.666992 -3.33301 -1 -7 -1 -11h-369c2.66699 -20 8.16699 -37.167 16.5 -51.5s18.666 -26.333 30.999 -36s25.833 -16.667 40.5 -21s29.667 -6.5 45 -6.5c30 0 54.833 6.83301 74.5 20.5s35.167 30.834 46.5 51.501zM400.997 307.998
c-0.666992 8.66699 -3.5 18.333 -8.5 29s-12.333 20.667 -22 30s-21.667 17 -36 23s-31.5 9 -51.5 9c-28 0 -52.667 -8 -74 -24s-36.333 -38.333 -45 -67h237z" />
    <glyph glyph-name="ecircumflex" unicode="&#xea;" horiz-adv-x="556" 
d="M110 581l114 126h114l114 -126v-8h-125l-40 59h-12l-40 -59h-125v8zM520 118c-22.667 -40 -53.1699 -72.335 -91.5029 -97.002s-85.166 -37 -140.499 -37c-37.333 0 -71.833 6.5 -103.5 19.5s-59.167 31.167 -82.5 54.5s-41.5 50.833 -54.5 82.5s-19.5 66.5 -19.5 104.5
c0 35.333 6.33301 68.833 19 100.5s30.334 59.334 53.001 83.001s49.5 42.5 80.5 56.5s65.167 21 102.5 21c39.333 0 74.333 -6.5 105 -19.5s56.334 -31 77.001 -54s36.334 -50.167 47.001 -81.5s16 -65.333 16 -102v-12c-0.666992 -4 -1 -7.66699 -1 -11
c-0.666992 -3.33301 -1 -7 -1 -11h-369c2.66699 -20 8.16699 -37.167 16.5 -51.5s18.666 -26.333 30.999 -36s25.833 -16.667 40.5 -21s29.667 -6.5 45 -6.5c30 0 54.833 6.83301 74.5 20.5s35.167 30.834 46.5 51.501zM400.997 307.998
c-0.666992 8.66699 -3.5 18.333 -8.5 29s-12.333 20.667 -22 30s-21.667 17 -36 23s-31.5 9 -51.5 9c-28 0 -52.667 -8 -74 -24s-36.333 -38.333 -45 -67h237z" />
    <glyph glyph-name="edieresis" unicode="&#xeb;" horiz-adv-x="556" 
d="M371 587c-19.333 0 -36 7.16699 -50 21.5s-21 31.166 -21 50.499c0 20 7 37 21 51s30.667 21 50 21c20.667 0 37.834 -7 51.501 -21s20.5 -31 20.5 -51c0 -19.333 -6.83301 -36.166 -20.5 -50.499s-30.834 -21.5 -51.501 -21.5zM181 587c-20 0 -37 7.16699 -51 21.5
s-21 31.166 -21 50.499c0 20 7 37 21 51s31 21 51 21s36.833 -7 50.5 -21s20.5 -31 20.5 -51c0 -19.333 -6.83301 -36.166 -20.5 -50.499s-30.5 -21.5 -50.5 -21.5zM520 118c-22.667 -40 -53.1699 -72.335 -91.5029 -97.002s-85.166 -37 -140.499 -37
c-37.333 0 -71.833 6.5 -103.5 19.5s-59.167 31.167 -82.5 54.5s-41.5 50.833 -54.5 82.5s-19.5 66.5 -19.5 104.5c0 35.333 6.33301 68.833 19 100.5s30.334 59.334 53.001 83.001s49.5 42.5 80.5 56.5s65.167 21 102.5 21c39.333 0 74.333 -6.5 105 -19.5
s56.334 -31 77.001 -54s36.334 -50.167 47.001 -81.5s16 -65.333 16 -102v-12c-0.666992 -4 -1 -7.66699 -1 -11c-0.666992 -3.33301 -1 -7 -1 -11h-369c2.66699 -20 8.16699 -37.167 16.5 -51.5s18.666 -26.333 30.999 -36s25.833 -16.667 40.5 -21s29.667 -6.5 45 -6.5
c30 0 54.833 6.83301 74.5 20.5s35.167 30.834 46.5 51.501zM400.997 307.998c-0.666992 8.66699 -3.5 18.333 -8.5 29s-12.333 20.667 -22 30s-21.667 17 -36 23s-31.5 9 -51.5 9c-28 0 -52.667 -8 -74 -24s-36.333 -38.333 -45 -67h237z" />
    <glyph glyph-name="igrave" unicode="&#xec;" horiz-adv-x="259" 
d="M64 0v490h131v-490h-131zM79 588l-89 136h153l42 -136h-106z" />
    <glyph glyph-name="iacute" unicode="&#xed;" horiz-adv-x="259" 
d="M76 588l42 136h153l-90 -136h-105zM64 0v490h131v-490h-131z" />
    <glyph glyph-name="icircumflex" unicode="&#xee;" horiz-adv-x="259" 
d="M-41 590l114 126h114l114 -126v-8h-125l-40 59h-12l-40 -59h-125v8zM64 0v490h131v-490h-131z" />
    <glyph glyph-name="idieresis" unicode="&#xef;" horiz-adv-x="259" 
d="M45 590c-18.667 0 -34.834 6.83301 -48.501 20.5s-20.5 29.834 -20.5 48.501c0 19.333 6.83301 35.666 20.5 48.999s29.834 20 48.501 20c19.333 0 35.666 -6.66699 48.999 -20s20 -29.666 20 -48.999c0 -18.667 -6.66699 -34.834 -20 -48.501
s-29.666 -20.5 -48.999 -20.5zM213 590c-18.667 0 -34.834 6.83301 -48.501 20.5s-20.5 29.834 -20.5 48.501c0 19.333 6.83301 35.666 20.5 48.999s29.834 20 48.501 20c19.333 0 35.666 -6.66699 48.999 -20s20 -29.666 20 -48.999
c0 -18.667 -6.66699 -34.834 -20 -48.501s-29.666 -20.5 -48.999 -20.5zM64 0v490h131v-490h-131z" />
    <glyph glyph-name="eth" unicode="&#xf0;" horiz-adv-x="578" 
d="M156 724c68.667 -16.667 127.33 -39.999 175.997 -69.999l102 45l34 -79l-60 -27c44 -42.667 76.667 -92.5 98 -149.5s32 -119.167 32 -186.5c0 -42 -6.33301 -79.833 -19 -113.5s-30.167 -62.334 -52.5 -86.001s-49 -41.834 -80 -54.501s-64.833 -19 -101.5 -19
c-34 0 -65.833 6.16699 -95.5 18.5s-55.5 29.5 -77.5 51.5s-39.5 48 -52.5 78s-19.5 62.667 -19.5 98c0 36 6.5 69 19.5 99s30.167 55.833 51.5 77.5s46 38.334 74 50.001s56.667 17.5 86 17.5c24.667 0 45.834 -3.33301 63.501 -10s31.834 -14.667 42.501 -24l7 5
c-8.66699 20.667 -20.167 39.334 -34.5 56.001s-30.166 31.667 -47.499 45l-125 -55l-34 79l62 28c-15.333 6 -30.5 11.167 -45.5 15.5s-29.833 8.16602 -44.5 11.499zM286.996 101.001c16 0 31.335 3 46.002 9s27.5 14.667 38.5 26s19.667 25 26 41s9.5 33.667 9.5 53
s-3.16699 36.833 -9.5 52.5s-14.833 29.167 -25.5 40.5s-23.334 20 -38.001 26s-30 9 -46 9c-16.667 0 -32.334 -3 -47.001 -9s-27.5 -14.667 -38.5 -26s-19.833 -24.833 -26.5 -40.5s-10 -33.167 -10 -52.5s3.33301 -37 10 -53s15.5 -29.667 26.5 -41s23.833 -20 38.5 -26
s30 -9 46 -9z" />
    <glyph glyph-name="ntilde" unicode="&#xf1;" 
d="M179 426h8.00098c15.333 24.667 36 44.167 62 58.5s55.667 21.5 89 21.5c30.667 0 57.667 -5 81 -15s42.5 -24.167 57.5 -42.5s26.333 -40.333 34 -66s11.5 -54.167 11.5 -85.5v-297h-131v281c0 35.333 -7.83301 61.5 -23.5 78.5s-38.5 25.5 -68.5 25.5
c-18 0 -33.833 -3.83301 -47.5 -11.5s-25.334 -18 -35.001 -31s-17 -28.333 -22 -46s-7.5 -36.5 -7.5 -56.5v-240h-131v490h123v-64zM354.001 588c-14 0 -26.998 2.16602 -38.998 6.49902s-23 9.5 -33 15.5l-27 14.5c-8 4.33301 -15 6.5 -21 6.5
c-16.667 0 -25.334 -9.66699 -26.001 -29h-92c0 22 3.16699 41 9.5 57s15 29.167 26 39.5s23.333 18.166 37 23.499s28.167 8 43.5 8c14 0 27.167 -2.16699 39.5 -6.5s23.5 -9.16602 33.5 -14.499c10 -6 19 -11.167 27 -15.5s14.667 -6.5 20 -6.5c16 0 25 9.66699 27 29h92
c0 -22 -3.33301 -41 -10 -57s-15.334 -29.167 -26.001 -39.5s-23.167 -18.166 -37.5 -23.499s-28.833 -8 -43.5 -8z" />
    <glyph glyph-name="ograve" unicode="&#xf2;" horiz-adv-x="576" 
d="M288 506c38 0 72.833 -6.5 104.5 -19.5s59 -31 82 -54s41 -50.5 54 -82.5s19.5 -67 19.5 -105s-6.5 -73 -19.5 -105s-31 -59.5 -54 -82.5s-50.333 -41 -82 -54s-66.5 -19.5 -104.5 -19.5s-72.833 6.5 -104.5 19.5s-59 31 -82 54s-41 50.5 -54 82.5s-19.5 67 -19.5 105
s6.5 73 19.5 105s31 59.5 54 82.5s50.333 41 82 54s66.5 19.5 104.5 19.5zM288 105c16.667 0 32.834 3.16699 48.501 9.5s29.5 15.5 41.5 27.5s21.5 26.667 28.5 44s10.5 37 10.5 59s-3.5 41.667 -10.5 59s-16.5 32 -28.5 44s-25.833 21.167 -41.5 27.5
s-31.834 9.5 -48.501 9.5c-17.333 0 -33.666 -3.16699 -48.999 -9.5s-29 -15.5 -41 -27.5s-21.5 -26.667 -28.5 -44s-10.5 -37 -10.5 -59s3.5 -41.667 10.5 -59s16.5 -32 28.5 -44s25.667 -21.167 41 -27.5s31.666 -9.5 48.999 -9.5zM229 588l-89 136h153l42 -136h-106z" />
    <glyph glyph-name="oacute" unicode="&#xf3;" horiz-adv-x="576" 
d="M233 588l42 136h153l-90 -136h-105zM288 506c38 0 72.833 -6.5 104.5 -19.5s59 -31 82 -54s41 -50.5 54 -82.5s19.5 -67 19.5 -105s-6.5 -73 -19.5 -105s-31 -59.5 -54 -82.5s-50.333 -41 -82 -54s-66.5 -19.5 -104.5 -19.5s-72.833 6.5 -104.5 19.5s-59 31 -82 54
s-41 50.5 -54 82.5s-19.5 67 -19.5 105s6.5 73 19.5 105s31 59.5 54 82.5s50.333 41 82 54s66.5 19.5 104.5 19.5zM288 105c16.667 0 32.834 3.16699 48.501 9.5s29.5 15.5 41.5 27.5s21.5 26.667 28.5 44s10.5 37 10.5 59s-3.5 41.667 -10.5 59s-16.5 32 -28.5 44
s-25.833 21.167 -41.5 27.5s-31.834 9.5 -48.501 9.5c-17.333 0 -33.666 -3.16699 -48.999 -9.5s-29 -15.5 -41 -27.5s-21.5 -26.667 -28.5 -44s-10.5 -37 -10.5 -59s3.5 -41.667 10.5 -59s16.5 -32 28.5 -44s25.667 -21.167 41 -27.5s31.666 -9.5 48.999 -9.5z" />
    <glyph glyph-name="ocircumflex" unicode="&#xf4;" horiz-adv-x="576" 
d="M117 590l114 126h114l114 -126v-8h-125l-40 59h-12l-40 -59h-125v8zM288 506c38 0 72.833 -6.5 104.5 -19.5s59 -31 82 -54s41 -50.5 54 -82.5s19.5 -67 19.5 -105s-6.5 -73 -19.5 -105s-31 -59.5 -54 -82.5s-50.333 -41 -82 -54s-66.5 -19.5 -104.5 -19.5
s-72.833 6.5 -104.5 19.5s-59 31 -82 54s-41 50.5 -54 82.5s-19.5 67 -19.5 105s6.5 73 19.5 105s31 59.5 54 82.5s50.333 41 82 54s66.5 19.5 104.5 19.5zM288 105c16.667 0 32.834 3.16699 48.501 9.5s29.5 15.5 41.5 27.5s21.5 26.667 28.5 44s10.5 37 10.5 59
s-3.5 41.667 -10.5 59s-16.5 32 -28.5 44s-25.833 21.167 -41.5 27.5s-31.834 9.5 -48.501 9.5c-17.333 0 -33.666 -3.16699 -48.999 -9.5s-29 -15.5 -41 -27.5s-21.5 -26.667 -28.5 -44s-10.5 -37 -10.5 -59s3.5 -41.667 10.5 -59s16.5 -32 28.5 -44
s25.667 -21.167 41 -27.5s31.666 -9.5 48.999 -9.5z" />
    <glyph glyph-name="otilde" unicode="&#xf5;" horiz-adv-x="576" 
d="M288 506c38 0 72.833 -6.5 104.5 -19.5s59 -31 82 -54s41 -50.5 54 -82.5s19.5 -67 19.5 -105s-6.5 -73 -19.5 -105s-31 -59.5 -54 -82.5s-50.333 -41 -82 -54s-66.5 -19.5 -104.5 -19.5s-72.833 6.5 -104.5 19.5s-59 31 -82 54s-41 50.5 -54 82.5s-19.5 67 -19.5 105
s6.5 73 19.5 105s31 59.5 54 82.5s50.333 41 82 54s66.5 19.5 104.5 19.5zM288 105c16.667 0 32.834 3.16699 48.501 9.5s29.5 15.5 41.5 27.5s21.5 26.667 28.5 44s10.5 37 10.5 59s-3.5 41.667 -10.5 59s-16.5 32 -28.5 44s-25.833 21.167 -41.5 27.5
s-31.834 9.5 -48.501 9.5c-17.333 0 -33.666 -3.16699 -48.999 -9.5s-29 -15.5 -41 -27.5s-21.5 -26.667 -28.5 -44s-10.5 -37 -10.5 -59s3.5 -41.667 10.5 -59s16.5 -32 28.5 -44s25.667 -21.167 41 -27.5s31.666 -9.5 48.999 -9.5zM349 588
c-14 0 -26.998 2.16602 -38.998 6.49902s-23 9.5 -33 15.5l-27 14.5c-8 4.33301 -15 6.5 -21 6.5c-16.667 0 -25.334 -9.66699 -26.001 -29h-92c0 22 3.16699 41 9.5 57s15 29.167 26 39.5s23.333 18.166 37 23.499s28.167 8 43.5 8c14 0 27.167 -2.16699 39.5 -6.5
s23.5 -9.16602 33.5 -14.499c10 -6 19 -11.167 27 -15.5s14.667 -6.5 20 -6.5c16 0 25 9.66699 27 29h92c0 -22 -3.33301 -41 -10 -57s-15.334 -29.167 -26.001 -39.5s-23.167 -18.166 -37.5 -23.499s-28.833 -8 -43.5 -8z" />
    <glyph glyph-name="odieresis" unicode="&#xf6;" horiz-adv-x="576" 
d="M383 587c-19.333 0 -36 7.16699 -50 21.5s-21 31.166 -21 50.499c0 20 7 37 21 51s30.667 21 50 21c20.667 0 37.834 -7 51.501 -21s20.5 -31 20.5 -51c0 -19.333 -6.83301 -36.166 -20.5 -50.499s-30.834 -21.5 -51.501 -21.5zM193 587c-20 0 -37 7.16699 -51 21.5
s-21 31.166 -21 50.499c0 20 7 37 21 51s31 21 51 21s36.833 -7 50.5 -21s20.5 -31 20.5 -51c0 -19.333 -6.83301 -36.166 -20.5 -50.499s-30.5 -21.5 -50.5 -21.5zM288 506c38 0 72.833 -6.5 104.5 -19.5s59 -31 82 -54s41 -50.5 54 -82.5s19.5 -67 19.5 -105
s-6.5 -73 -19.5 -105s-31 -59.5 -54 -82.5s-50.333 -41 -82 -54s-66.5 -19.5 -104.5 -19.5s-72.833 6.5 -104.5 19.5s-59 31 -82 54s-41 50.5 -54 82.5s-19.5 67 -19.5 105s6.5 73 19.5 105s31 59.5 54 82.5s50.333 41 82 54s66.5 19.5 104.5 19.5zM288 105
c16.667 0 32.834 3.16699 48.501 9.5s29.5 15.5 41.5 27.5s21.5 26.667 28.5 44s10.5 37 10.5 59s-3.5 41.667 -10.5 59s-16.5 32 -28.5 44s-25.833 21.167 -41.5 27.5s-31.834 9.5 -48.501 9.5c-17.333 0 -33.666 -3.16699 -48.999 -9.5s-29 -15.5 -41 -27.5
s-21.5 -26.667 -28.5 -44s-10.5 -37 -10.5 -59s3.5 -41.667 10.5 -59s16.5 -32 28.5 -44s25.667 -21.167 41 -27.5s31.666 -9.5 48.999 -9.5z" />
    <glyph glyph-name="divide" unicode="&#xf7;" horiz-adv-x="569" 
d="M56 217v108h457v-108h-457zM284 -8c-22.667 0 -42 8 -58 24s-24 35.333 -24 58s8 42 24 58s35.333 24 58 24c23.333 0 42.833 -8 58.5 -24s23.5 -35.333 23.5 -58s-7.83301 -42 -23.5 -58s-35.167 -24 -58.5 -24zM284 386c-22.667 0 -42 8 -58 24s-24 35.333 -24 58
s8 42 24 58s35.333 24 58 24c23.333 0 42.833 -8 58.5 -24s23.5 -35.333 23.5 -58s-7.83301 -42 -23.5 -58s-35.167 -24 -58.5 -24z" />
    <glyph glyph-name="oslash" unicode="&#xf8;" horiz-adv-x="576" 
d="M288 506c33.333 0 64.666 -5.00098 93.999 -15.001l26 42l90 -51l-28 -45c24.667 -23.333 43.834 -51.333 57.501 -84s20.5 -68.667 20.5 -108c0 -38 -6.5 -73 -19.5 -105s-31 -59.5 -54 -82.5s-50.333 -41 -82 -54s-66.5 -19.5 -104.5 -19.5
c-16.667 0 -32.667 1.33301 -48 4s-30 6.33398 -44 11.001l-25 -41l-90 51l26 42c-25.333 23.333 -44.833 51.5 -58.5 84.5s-20.5 69.5 -20.5 109.5c0 38 6.5 73 19.5 105s31 59.5 54 82.5s50.333 41 82 54s66.5 19.5 104.5 19.5zM149 244.999
c0 -17.333 2.16895 -33.501 6.50195 -48.501s10.166 -28.167 17.499 -39.5l145 233c-8.66699 2.66699 -18.667 4 -30 4c-18 0 -35.5 -3.33301 -52.5 -10s-31.833 -16.5 -44.5 -29.5s-22.834 -28.667 -30.501 -47s-11.5 -39.166 -11.5 -62.499zM288.002 95.998
c18 0 35.499 3.33301 52.499 10s31.833 16.5 44.5 29.5s22.834 28.667 30.501 47s11.5 39.166 11.5 62.499c0 32.667 -7.66699 61.334 -23 86.001l-145 -232c10 -2 19.667 -3 29 -3z" />
    <glyph glyph-name="ugrave" unicode="&#xf9;" 
d="M395 64h-8.00098c-15.333 -24.667 -36 -44.167 -62 -58.5s-55.667 -21.5 -89 -21.5c-62 0 -108.167 19 -138.5 57s-45.5 88.667 -45.5 152v297h131v-281c0 -35.333 7.83301 -61.5 23.5 -78.5s38.5 -25.5 68.5 -25.5c18 0 33.833 3.83301 47.5 11.5s25.334 18 35.001 31
s17 28.333 22 46s7.5 36.5 7.5 56.5v240h131v-490h-123v64zM239.999 588l-89 136h153l42 -136h-106z" />
    <glyph glyph-name="uacute" unicode="&#xfa;" 
d="M228 588l42 136h153l-90 -136h-105zM395 64h-8.00098c-15.333 -24.667 -36 -44.167 -62 -58.5s-55.667 -21.5 -89 -21.5c-62 0 -108.167 19 -138.5 57s-45.5 88.667 -45.5 152v297h131v-281c0 -35.333 7.83301 -61.5 23.5 -78.5s38.5 -25.5 68.5 -25.5
c18 0 33.833 3.83301 47.5 11.5s25.334 18 35.001 31s17 28.333 22 46s7.5 36.5 7.5 56.5v240h131v-490h-123v64z" />
    <glyph glyph-name="ucircumflex" unicode="&#xfb;" 
d="M116 575l114 126h114l114 -126v-8h-125l-40 59h-12l-40 -59h-125v8zM395 64h-8.00098c-15.333 -24.667 -36 -44.167 -62 -58.5s-55.667 -21.5 -89 -21.5c-62 0 -108.167 19 -138.5 57s-45.5 88.667 -45.5 152v297h131v-281c0 -35.333 7.83301 -61.5 23.5 -78.5
s38.5 -25.5 68.5 -25.5c18 0 33.833 3.83301 47.5 11.5s25.334 18 35.001 31s17 28.333 22 46s7.5 36.5 7.5 56.5v240h131v-490h-123v64z" />
    <glyph glyph-name="udieresis" unicode="&#xfc;" 
d="M384 587c-19.333 0 -36 7.16699 -50 21.5s-21 31.166 -21 50.499c0 20 7 37 21 51s30.667 21 50 21c20.667 0 37.834 -7 51.501 -21s20.5 -31 20.5 -51c0 -19.333 -6.83301 -36.166 -20.5 -50.499s-30.834 -21.5 -51.501 -21.5zM194 587c-20 0 -37 7.16699 -51 21.5
s-21 31.166 -21 50.499c0 20 7 37 21 51s31 21 51 21s36.833 -7 50.5 -21s20.5 -31 20.5 -51c0 -19.333 -6.83301 -36.166 -20.5 -50.499s-30.5 -21.5 -50.5 -21.5zM395 64h-8.00098c-15.333 -24.667 -36 -44.167 -62 -58.5s-55.667 -21.5 -89 -21.5
c-62 0 -108.167 19 -138.5 57s-45.5 88.667 -45.5 152v297h131v-281c0 -35.333 7.83301 -61.5 23.5 -78.5s38.5 -25.5 68.5 -25.5c18 0 33.833 3.83301 47.5 11.5s25.334 18 35.001 31s17 28.333 22 46s7.5 36.5 7.5 56.5v240h131v-490h-123v64z" />
    <glyph glyph-name="yacute" unicode="&#xfd;" horiz-adv-x="553" 
d="M210 24l-206 466h149l124 -297h7l119 297h146l-307 -706h-141zM227 588l42 136h153l-90 -136h-105z" />
    <glyph glyph-name="thorn" unicode="&#xfe;" horiz-adv-x="600" 
d="M337 -16c-37.333 0 -68.666 7.33105 -93.999 21.998s-44 32.334 -56 53.001h-8l8 -70v-205h-131v932h131v-215l-8 -70h8c12 20.667 30.667 38.334 56 53.001s56.666 22 93.999 22c31.333 0 61.166 -6.5 89.499 -19.5s53.333 -31 75 -54s38.834 -50.5 51.501 -82.5
s19 -67 19 -105s-6.33301 -73 -19 -105s-29.834 -59.5 -51.501 -82.5s-46.667 -41 -75 -54s-58.166 -19.5 -89.499 -19.5zM310 104.998c17.333 0 33.833 3.33496 49.5 10.002s29.5 16 41.5 28s21.667 26.667 29 44s11 36.666 11 57.999s-3.66699 40.666 -11 57.999
s-17 32 -29 44s-25.833 21.333 -41.5 28s-32.167 10 -49.5 10s-33.833 -3.16699 -49.5 -9.5s-29.5 -15.5 -41.5 -27.5s-21.667 -26.667 -29 -44s-11 -37 -11 -59s3.66699 -41.667 11 -59s17 -32 29 -44s25.833 -21.167 41.5 -27.5s32.167 -9.5 49.5 -9.5z" />
    <glyph glyph-name="ydieresis" unicode="&#xff;" horiz-adv-x="553" 
d="M210 24l-206 466h149l124 -297h7l119 297h146l-307 -706h-141zM373 587c-19.333 0 -36 7.16699 -50 21.5s-21 31.166 -21 50.499c0 20 7 37 21 51s30.667 21 50 21c20.667 0 37.834 -7 51.501 -21s20.5 -31 20.5 -51c0 -19.333 -6.83301 -36.166 -20.5 -50.499
s-30.834 -21.5 -51.501 -21.5zM183 587c-20 0 -37 7.16699 -51 21.5s-21 31.166 -21 50.499c0 20 7 37 21 51s31 21 51 21s36.833 -7 50.5 -21s20.5 -31 20.5 -51c0 -19.333 -6.83301 -36.166 -20.5 -50.499s-30.5 -21.5 -50.5 -21.5z" />
    <glyph glyph-name="Amacron" unicode="&#x100;" horiz-adv-x="716" 
d="M281 716h154l269 -716h-149l-59 171h-276l-59 -171h-149zM452 295l-64 179l-26 87h-8l-26 -87l-64 -179h188zM210 793v100h296v-100h-296z" />
    <glyph glyph-name="amacron" unicode="&#x101;" horiz-adv-x="535" 
d="M358 52l-8.00098 -0.00195312c-15.333 -18.667 -33.833 -34.667 -55.5 -48s-49.5 -20 -83.5 -20c-25.333 0 -49.166 4.16699 -71.499 12.5s-41.833 19.833 -58.5 34.5s-29.667 32.334 -39 53.001s-14 43.334 -14 68.001c0 25.333 5 48.166 15 68.499s24 37.833 42 52.5
s39.167 25.834 63.5 33.501s50.833 11.5 79.5 11.5c32 0 58.333 -2.5 79 -7.5s37.667 -10.167 51 -15.5v15c0 26 -10.333 47.5 -31 64.5s-46.334 25.5 -77.001 25.5c-45.333 0 -83.666 -19 -114.999 -57l-95 65c52 65.333 123 98 213 98c76 0 134 -17.833 174 -53.5
s60 -88.5 60 -158.5v-294h-129v52zM357.999 198.998c-15.333 7.33301 -31.167 13.167 -47.5 17.5s-34.166 6.5 -53.499 6.5c-31.333 0 -55.5 -6.83301 -72.5 -20.5s-25.5 -30.5 -25.5 -50.5s8.16699 -36 24.5 -48s35.166 -18 56.499 -18c17.333 0 33.333 3.16699 48 9.5
s27.167 14.666 37.5 24.999s18.333 22.333 24 36s8.5 27.834 8.5 42.501zM125.998 608.999v100h296v-100h-296z" />
    <glyph glyph-name="Abreve" unicode="&#x102;" horiz-adv-x="716" 
d="M281 716h154l269 -716h-149l-59 171h-276l-59 -171h-149zM452 295l-64 179l-26 87h-8l-26 -87l-64 -179h188zM359 763c-18 0 -35.335 3.33301 -52.002 10s-31.167 16 -43.5 28s-22.333 26.333 -30 43s-11.5 35 -11.5 55h93c0 -12 3.83301 -22.667 11.5 -32
s18.5 -14 32.5 -14c13.333 0 23.833 4.66699 31.5 14s11.5 20 11.5 32h92c0 -20 -3.66699 -38.333 -11 -55s-17.166 -31 -29.499 -43s-26.666 -21.333 -42.999 -28s-33.5 -10 -51.5 -10z" />
    <glyph glyph-name="abreve" unicode="&#x103;" horiz-adv-x="535" 
d="M358 52l-8.00098 -0.00195312c-15.333 -18.667 -33.833 -34.667 -55.5 -48s-49.5 -20 -83.5 -20c-25.333 0 -49.166 4.16699 -71.499 12.5s-41.833 19.833 -58.5 34.5s-29.667 32.334 -39 53.001s-14 43.334 -14 68.001c0 25.333 5 48.166 15 68.499s24 37.833 42 52.5
s39.167 25.834 63.5 33.501s50.833 11.5 79.5 11.5c32 0 58.333 -2.5 79 -7.5s37.667 -10.167 51 -15.5v15c0 26 -10.333 47.5 -31 64.5s-46.334 25.5 -77.001 25.5c-45.333 0 -83.666 -19 -114.999 -57l-95 65c52 65.333 123 98 213 98c76 0 134 -17.833 174 -53.5
s60 -88.5 60 -158.5v-294h-129v52zM357.999 198.998c-15.333 7.33301 -31.167 13.167 -47.5 17.5s-34.166 6.5 -53.499 6.5c-31.333 0 -55.5 -6.83301 -72.5 -20.5s-25.5 -30.5 -25.5 -50.5s8.16699 -36 24.5 -48s35.166 -18 56.499 -18c17.333 0 33.333 3.16699 48 9.5
s27.167 14.666 37.5 24.999s18.333 22.333 24 36s8.5 27.834 8.5 42.501zM269.998 578.999c-18 0 -35.335 3.33301 -52.002 10s-31.167 16 -43.5 28s-22.333 26.333 -30 43s-11.5 35 -11.5 55h93c0 -12 3.83301 -22.667 11.5 -32s18.5 -14 32.5 -14
c13.333 0 23.833 4.66699 31.5 14s11.5 20 11.5 32h92c0 -20 -3.66699 -38.333 -11 -55s-17.166 -31 -29.499 -43s-26.666 -21.333 -42.999 -28s-33.5 -10 -51.5 -10z" />
    <glyph glyph-name="Aogonek" unicode="&#x104;" horiz-adv-x="716" 
d="M496 171h-276.001l-59 -171h-149l269 716h154l269 -716c-19.333 -13.333 -35.666 -27 -48.999 -41s-20 -29.667 -20 -47c0 -12 3.83301 -21.833 11.5 -29.5s17.167 -11.5 28.5 -11.5c7.33301 0 15.333 1.66699 24 5l33 -83c-10 -5.33301 -22 -9.5 -36 -12.5
s-28 -4.5 -42 -4.5c-40.667 0 -72.5 10.833 -95.5 32.5s-34.5 49.5 -34.5 83.5c0 24.667 6 45.5 18 62.5s23.667 30.5 35 40.5l-2 5h-20zM451.999 295l-64 179l-26 87h-8l-26 -87l-64 -179h188z" />
    <glyph glyph-name="aogonek" unicode="&#x105;" horiz-adv-x="535" 
d="M211 -16c-25.333 0 -49.166 4.16602 -71.499 12.499s-41.833 19.833 -58.5 34.5s-29.667 32.334 -39 53.001s-14 43.334 -14 68.001c0 25.333 5 48.166 15 68.499s24 37.833 42 52.5s39.167 25.834 63.5 33.501s50.833 11.5 79.5 11.5c32 0 58.333 -2.5 79 -7.5
s37.667 -10.167 51 -15.5v15c0 26 -10.333 47.5 -31 64.5s-46.334 25.5 -77.001 25.5c-45.333 0 -83.666 -19 -114.999 -57l-95 65c52 65.333 123 98 213 98c76 0 134 -17.833 174 -53.5s60 -88.5 60 -158.5v-294c-18.667 -13.333 -34.667 -27 -48 -41s-20 -29.667 -20 -47
c0 -12 3.66699 -21.833 11 -29.5s16.666 -11.5 27.999 -11.5c7.33301 0 15.333 1.66699 24 5l33 -83c-10 -5.33301 -22 -9.5 -36 -12.5s-28 -4.5 -42 -4.5c-40.667 0 -72.5 10.667 -95.5 32s-34.5 49 -34.5 83c0 24.667 6.16699 45.167 18.5 61.5s24.833 30.166 37.5 41.499
l-5 6v52h-8c-15.333 -18.667 -33.833 -34.667 -55.5 -48s-49.5 -20 -83.5 -20zM358 198.999c-15.333 7.33301 -31.167 13.167 -47.5 17.5s-34.166 6.5 -53.499 6.5c-31.333 0 -55.5 -6.83301 -72.5 -20.5s-25.5 -30.5 -25.5 -50.5s8.16699 -36 24.5 -48
s35.166 -18 56.499 -18c17.333 0 33.333 3.16699 48 9.5s27.167 14.666 37.5 24.999s18.333 22.333 24 36s8.5 27.834 8.5 42.501z" />
    <glyph glyph-name="Cacute" unicode="&#x106;" horiz-adv-x="734" 
d="M352 772l42 136h153l-90 -136h-105zM698 115c-35.333 -42.667 -77 -75.1719 -125 -97.5049s-101.667 -33.5 -161 -33.5c-53.333 0 -102.833 9.66699 -148.5 29s-85.167 45.666 -118.5 78.999s-59.666 72.833 -78.999 118.5s-29 94.834 -29 147.501
s9.66699 101.834 29 147.501s45.666 85.167 78.999 118.5s72.833 59.666 118.5 78.999s95.167 29 148.5 29c57.333 0 107.833 -10 151.5 -30s82.5 -49 116.5 -87l-95 -92c-21.333 24.667 -45.833 44.334 -73.5 59.001s-60.5 22 -98.5 22
c-33.333 0 -64.666 -5.83301 -93.999 -17.5s-54.833 -28.167 -76.5 -49.5s-38.834 -47.166 -51.501 -77.499s-19 -64.166 -19 -101.499s6.33301 -71.166 19 -101.499s29.834 -56.166 51.501 -77.499s47.167 -37.833 76.5 -49.5s60.666 -17.5 93.999 -17.5
c40 0 75.5 8.16699 106.5 24.5s58.5 39.5 82.5 69.5z" />
    <glyph glyph-name="cacute" unicode="&#x107;" horiz-adv-x="545" 
d="M219 588l42 136h153l-90 -136h-105zM521 125c-21.333 -41.333 -51.168 -75.1689 -89.501 -101.502s-86.166 -39.5 -143.499 -39.5c-38 0 -72.833 6.5 -104.5 19.5s-59 31.167 -82 54.5s-41 50.833 -54 82.5s-19.5 66.5 -19.5 104.5s6.5 73 19.5 105s31 59.5 54 82.5
s50.333 41 82 54s66.5 19.5 104.5 19.5c56.667 0 104.334 -13 143.001 -39s67 -59.667 85 -101l-120 -50c-11.333 22.667 -25.833 39.834 -43.5 51.501s-39.834 17.5 -66.501 17.5c-17.333 0 -33.666 -3.33301 -48.999 -10s-28.833 -16 -40.5 -28
s-20.834 -26.667 -27.501 -44s-10 -36.666 -10 -57.999s3.33301 -40.666 10 -57.999s15.834 -32 27.501 -44s25.167 -21.333 40.5 -28s31.666 -10 48.999 -10c27.333 0 50.5 6.16699 69.5 18.5s34.167 30.166 45.5 53.499z" />
    <glyph glyph-name="Ccircumflex" unicode="&#x108;" horiz-adv-x="734" 
d="M240 775l114 126h114l114 -126v-8h-125l-40 59h-12l-40 -59h-125v8zM698 115c-35.333 -42.667 -77 -75.1719 -125 -97.5049s-101.667 -33.5 -161 -33.5c-53.333 0 -102.833 9.66699 -148.5 29s-85.167 45.666 -118.5 78.999s-59.666 72.833 -78.999 118.5
s-29 94.834 -29 147.501s9.66699 101.834 29 147.501s45.666 85.167 78.999 118.5s72.833 59.666 118.5 78.999s95.167 29 148.5 29c57.333 0 107.833 -10 151.5 -30s82.5 -49 116.5 -87l-95 -92c-21.333 24.667 -45.833 44.334 -73.5 59.001s-60.5 22 -98.5 22
c-33.333 0 -64.666 -5.83301 -93.999 -17.5s-54.833 -28.167 -76.5 -49.5s-38.834 -47.166 -51.501 -77.499s-19 -64.166 -19 -101.499s6.33301 -71.166 19 -101.499s29.834 -56.166 51.501 -77.499s47.167 -37.833 76.5 -49.5s60.666 -17.5 93.999 -17.5
c40 0 75.5 8.16699 106.5 24.5s58.5 39.5 82.5 69.5z" />
    <glyph glyph-name="ccircumflex" unicode="&#x109;" horiz-adv-x="545" 
d="M113 590l114 126h114l114 -126v-8h-125l-40 59h-12l-40 -59h-125v8zM521 125c-21.333 -41.333 -51.168 -75.1689 -89.501 -101.502s-86.166 -39.5 -143.499 -39.5c-38 0 -72.833 6.5 -104.5 19.5s-59 31.167 -82 54.5s-41 50.833 -54 82.5s-19.5 66.5 -19.5 104.5
s6.5 73 19.5 105s31 59.5 54 82.5s50.333 41 82 54s66.5 19.5 104.5 19.5c56.667 0 104.334 -13 143.001 -39s67 -59.667 85 -101l-120 -50c-11.333 22.667 -25.833 39.834 -43.5 51.501s-39.834 17.5 -66.501 17.5c-17.333 0 -33.666 -3.33301 -48.999 -10
s-28.833 -16 -40.5 -28s-20.834 -26.667 -27.501 -44s-10 -36.666 -10 -57.999s3.33301 -40.666 10 -57.999s15.834 -32 27.501 -44s25.167 -21.333 40.5 -28s31.666 -10 48.999 -10c27.333 0 50.5 6.16699 69.5 18.5s34.167 30.166 45.5 53.499z" />
    <glyph glyph-name="Cdotaccent" unicode="&#x10a;" horiz-adv-x="734" 
d="M397 785c-19.333 0 -36 7 -50 21s-21 30.667 -21 50s7 36 21 50s30.667 21 50 21s35.833 -7 49.5 -21s20.5 -30.667 20.5 -50s-6.83301 -36 -20.5 -50s-30.167 -21 -49.5 -21zM698 115c-35.333 -42.667 -77 -75.1719 -125 -97.5049s-101.667 -33.5 -161 -33.5
c-53.333 0 -102.833 9.66699 -148.5 29s-85.167 45.666 -118.5 78.999s-59.666 72.833 -78.999 118.5s-29 94.834 -29 147.501s9.66699 101.834 29 147.501s45.666 85.167 78.999 118.5s72.833 59.666 118.5 78.999s95.167 29 148.5 29c57.333 0 107.833 -10 151.5 -30
s82.5 -49 116.5 -87l-95 -92c-21.333 24.667 -45.833 44.334 -73.5 59.001s-60.5 22 -98.5 22c-33.333 0 -64.666 -5.83301 -93.999 -17.5s-54.833 -28.167 -76.5 -49.5s-38.834 -47.166 -51.501 -77.499s-19 -64.166 -19 -101.499s6.33301 -71.166 19 -101.499
s29.834 -56.166 51.501 -77.499s47.167 -37.833 76.5 -49.5s60.666 -17.5 93.999 -17.5c40 0 75.5 8.16699 106.5 24.5s58.5 39.5 82.5 69.5z" />
    <glyph glyph-name="cdotaccent" unicode="&#x10b;" horiz-adv-x="545" 
d="M521 125c-21.333 -41.333 -51.168 -75.1689 -89.501 -101.502s-86.166 -39.5 -143.499 -39.5c-38 0 -72.833 6.5 -104.5 19.5s-59 31.167 -82 54.5s-41 50.833 -54 82.5s-19.5 66.5 -19.5 104.5s6.5 73 19.5 105s31 59.5 54 82.5s50.333 41 82 54s66.5 19.5 104.5 19.5
c56.667 0 104.334 -13 143.001 -39s67 -59.667 85 -101l-120 -50c-11.333 22.667 -25.833 39.834 -43.5 51.501s-39.834 17.5 -66.501 17.5c-17.333 0 -33.666 -3.33301 -48.999 -10s-28.833 -16 -40.5 -28s-20.834 -26.667 -27.501 -44s-10 -36.666 -10 -57.999
s3.33301 -40.666 10 -57.999s15.834 -32 27.501 -44s25.167 -21.333 40.5 -28s31.666 -10 48.999 -10c27.333 0 50.5 6.16699 69.5 18.5s34.167 30.166 45.5 53.499zM284.998 574.997c-21.333 0 -39.333 7.5 -54 22.5s-22 32.833 -22 53.5c0 21.333 7.33301 39.333 22 54
s32.667 22 54 22s39.166 -7.33301 53.499 -22s21.5 -32.667 21.5 -54c0 -20.667 -7.16699 -38.5 -21.5 -53.5s-32.166 -22.5 -53.499 -22.5z" />
    <glyph glyph-name="Ccaron" unicode="&#x10c;" horiz-adv-x="734" 
d="M228 912h125l40 -59h12l40 59h125v-8l-114 -126h-114l-114 126v8zM698 115c-35.333 -42.667 -77 -75.1719 -125 -97.5049s-101.667 -33.5 -161 -33.5c-53.333 0 -102.833 9.66699 -148.5 29s-85.167 45.666 -118.5 78.999s-59.666 72.833 -78.999 118.5
s-29 94.834 -29 147.501s9.66699 101.834 29 147.501s45.666 85.167 78.999 118.5s72.833 59.666 118.5 78.999s95.167 29 148.5 29c57.333 0 107.833 -10 151.5 -30s82.5 -49 116.5 -87l-95 -92c-21.333 24.667 -45.833 44.334 -73.5 59.001s-60.5 22 -98.5 22
c-33.333 0 -64.666 -5.83301 -93.999 -17.5s-54.833 -28.167 -76.5 -49.5s-38.834 -47.166 -51.501 -77.499s-19 -64.166 -19 -101.499s6.33301 -71.166 19 -101.499s29.834 -56.166 51.501 -77.499s47.167 -37.833 76.5 -49.5s60.666 -17.5 93.999 -17.5
c40 0 75.5 8.16699 106.5 24.5s58.5 39.5 82.5 69.5z" />
    <glyph glyph-name="ccaron" unicode="&#x10d;" horiz-adv-x="545" 
d="M118 716h125l40 -59h12l40 59h125v-8l-114 -126h-114l-114 126v8zM521 125c-21.333 -41.333 -51.168 -75.1689 -89.501 -101.502s-86.166 -39.5 -143.499 -39.5c-38 0 -72.833 6.5 -104.5 19.5s-59 31.167 -82 54.5s-41 50.833 -54 82.5s-19.5 66.5 -19.5 104.5
s6.5 73 19.5 105s31 59.5 54 82.5s50.333 41 82 54s66.5 19.5 104.5 19.5c56.667 0 104.334 -13 143.001 -39s67 -59.667 85 -101l-120 -50c-11.333 22.667 -25.833 39.834 -43.5 51.501s-39.834 17.5 -66.501 17.5c-17.333 0 -33.666 -3.33301 -48.999 -10
s-28.833 -16 -40.5 -28s-20.834 -26.667 -27.501 -44s-10 -36.666 -10 -57.999s3.33301 -40.666 10 -57.999s15.834 -32 27.501 -44s25.167 -21.333 40.5 -28s31.666 -10 48.999 -10c27.333 0 50.5 6.16699 69.5 18.5s34.167 30.166 45.5 53.499z" />
    <glyph glyph-name="Dcaron" unicode="&#x10e;" horiz-adv-x="719" 
d="M156 900h125l40 -59h12l40 59h125v-8l-114 -126h-114l-114 126v8zM72 716l242 -0.000976562c56.667 0 107.667 -8.66699 153 -26s84 -41.833 116 -73.5s56.5 -69.5 73.5 -113.5s25.5 -92.333 25.5 -145c0 -53.333 -8.5 -102 -25.5 -146s-41.5 -81.667 -73.5 -113
s-70.667 -55.666 -116 -72.999s-96.333 -26 -153 -26h-242v716zM308 127.999c39.333 0 74 5.5 104 16.5s55 26.5 75 46.5s35 44.167 45 72.5s15 59.833 15 94.5s-5 66.167 -15 94.5s-25 52.5 -45 72.5s-45 35.5 -75 46.5s-64.667 16.5 -104 16.5h-101v-460h101z" />
    <glyph glyph-name="dcaron" unicode="&#x10f;" horiz-adv-x="713" 
d="M599 495v221h138l-45 -221h-93zM421 59l-8 0.00195312c-12 -20.667 -30.667 -38.334 -56 -53.001s-56.666 -22 -93.999 -22c-31.333 0 -61.166 6.5 -89.499 19.5s-53.333 31 -75 54s-38.834 50.5 -51.501 82.5s-19 67 -19 105s6.33301 73 19 105s29.834 59.5 51.501 82.5
s46.667 41 75 54s58.166 19.5 89.499 19.5c37.333 0 68.666 -7.33301 93.999 -22s44 -32.334 56 -53.001h8l-8 70v215h131v-716h-123v59zM290 105.002c17.333 0 33.833 3.16504 49.5 9.49805s29.5 15.5 41.5 27.5s21.667 26.667 29 44s11 37 11 59s-3.66699 41.667 -11 59
s-17 32 -29 44s-25.833 21.167 -41.5 27.5s-32.167 9.5 -49.5 9.5s-33.833 -3.33301 -49.5 -10s-29.5 -16 -41.5 -28s-21.667 -26.667 -29 -44s-11 -36.666 -11 -57.999s3.66699 -40.666 11 -57.999s17 -32 29 -44s25.833 -21.333 41.5 -28s32.167 -10 49.5 -10z" />
    <glyph glyph-name="Dcroat" unicode="&#x110;" horiz-adv-x="712" 
d="M65 317l-73 -0.000976562v110h73v289h242c56.667 0 107.834 -8.66699 153.501 -26s84.334 -41.833 116.001 -73.5s56 -69.5 73 -113.5s25.5 -92.333 25.5 -145c0 -53.333 -8.5 -102 -25.5 -146s-41.333 -81.667 -73 -113s-70.334 -55.666 -116.001 -72.999
s-96.834 -26 -153.501 -26h-242v317zM302 127.999c39.333 0 73.833 5.5 103.5 16.5s54.5 26.5 74.5 46.5s35 44.167 45 72.5s15 59.833 15 94.5s-5 66.167 -15 94.5s-25 52.5 -45 72.5s-44.833 35.5 -74.5 46.5s-64.167 16.5 -103.5 16.5h-102v-161h184v-110h-184v-189h102z
" />
    <glyph glyph-name="dcroat" unicode="&#x111;" horiz-adv-x="595" 
d="M421 59l-8 0.00195312c-12 -20.667 -30.667 -38.334 -56 -53.001s-56.666 -22 -93.999 -22c-31.333 0 -61.166 6.5 -89.499 19.5s-53.333 31 -75 54s-38.834 50.5 -51.501 82.5s-19 67 -19 105s6.33301 73 19 105s29.834 59.5 51.501 82.5s46.667 41 75 54
s58.166 19.5 89.499 19.5c37.333 0 68.666 -7.33301 93.999 -22s44 -32.334 56 -53.001h8l-8 70v62h-133v90h133v63h131v-63h59v-90h-59v-563h-123v59zM290 105.002c17.333 0 33.833 3.16504 49.5 9.49805s29.5 15.5 41.5 27.5s21.667 26.667 29 44s11 37 11 59
s-3.66699 41.667 -11 59s-17 32 -29 44s-25.833 21.167 -41.5 27.5s-32.167 9.5 -49.5 9.5s-33.833 -3.33301 -49.5 -10s-29.5 -16 -41.5 -28s-21.667 -26.667 -29 -44s-11 -36.666 -11 -57.999s3.66699 -40.666 11 -57.999s17 -32 29 -44s25.833 -21.333 41.5 -28
s32.167 -10 49.5 -10z" />
    <glyph glyph-name="Emacron" unicode="&#x112;" horiz-adv-x="578" 
d="M207 588v-166h287v-128h-287v-166h319v-128h-454v716h454v-128h-319zM145 793v100h296v-100h-296z" />
    <glyph glyph-name="emacron" unicode="&#x113;" horiz-adv-x="556" 
d="M520 118c-22.667 -40 -53.1699 -72.335 -91.5029 -97.002s-85.166 -37 -140.499 -37c-37.333 0 -71.833 6.5 -103.5 19.5s-59.167 31.167 -82.5 54.5s-41.5 50.833 -54.5 82.5s-19.5 66.5 -19.5 104.5c0 35.333 6.33301 68.833 19 100.5s30.334 59.334 53.001 83.001
s49.5 42.5 80.5 56.5s65.167 21 102.5 21c39.333 0 74.333 -6.5 105 -19.5s56.334 -31 77.001 -54s36.334 -50.167 47.001 -81.5s16 -65.333 16 -102v-12c-0.666992 -4 -1 -7.66699 -1 -11c-0.666992 -3.33301 -1 -7 -1 -11h-369c2.66699 -20 8.16699 -37.167 16.5 -51.5
s18.666 -26.333 30.999 -36s25.833 -16.667 40.5 -21s29.667 -6.5 45 -6.5c30 0 54.833 6.83301 74.5 20.5s35.167 30.834 46.5 51.501zM400.997 307.998c-0.666992 8.66699 -3.5 18.333 -8.5 29s-12.333 20.667 -22 30s-21.667 17 -36 23s-31.5 9 -51.5 9
c-28 0 -52.667 -8 -74 -24s-36.333 -38.333 -45 -67h237zM133.997 608.997v100h296v-100h-296z" />
    <glyph glyph-name="Ebreve" unicode="&#x114;" horiz-adv-x="578" 
d="M207 588v-166h287v-128h-287v-166h319v-128h-454v716h454v-128h-319zM301 763c-18 0 -35.335 3.33301 -52.002 10s-31.167 16 -43.5 28s-22.333 26.333 -30 43s-11.5 35 -11.5 55h93c0 -12 3.83301 -22.667 11.5 -32s18.5 -14 32.5 -14c13.333 0 23.833 4.66699 31.5 14
s11.5 20 11.5 32h92c0 -20 -3.66699 -38.333 -11 -55s-17.166 -31 -29.499 -43s-26.666 -21.333 -42.999 -28s-33.5 -10 -51.5 -10z" />
    <glyph glyph-name="ebreve" unicode="&#x115;" horiz-adv-x="556" 
d="M520 118c-22.667 -40 -53.1699 -72.335 -91.5029 -97.002s-85.166 -37 -140.499 -37c-37.333 0 -71.833 6.5 -103.5 19.5s-59.167 31.167 -82.5 54.5s-41.5 50.833 -54.5 82.5s-19.5 66.5 -19.5 104.5c0 35.333 6.33301 68.833 19 100.5s30.334 59.334 53.001 83.001
s49.5 42.5 80.5 56.5s65.167 21 102.5 21c39.333 0 74.333 -6.5 105 -19.5s56.334 -31 77.001 -54s36.334 -50.167 47.001 -81.5s16 -65.333 16 -102v-12c-0.666992 -4 -1 -7.66699 -1 -11c-0.666992 -3.33301 -1 -7 -1 -11h-369c2.66699 -20 8.16699 -37.167 16.5 -51.5
s18.666 -26.333 30.999 -36s25.833 -16.667 40.5 -21s29.667 -6.5 45 -6.5c30 0 54.833 6.83301 74.5 20.5s35.167 30.834 46.5 51.501zM400.997 307.998c-0.666992 8.66699 -3.5 18.333 -8.5 29s-12.333 20.667 -22 30s-21.667 17 -36 23s-31.5 9 -51.5 9
c-28 0 -52.667 -8 -74 -24s-36.333 -38.333 -45 -67h237zM281.997 578.997c-18 0 -35.335 3.33301 -52.002 10s-31.167 16 -43.5 28s-22.333 26.333 -30 43s-11.5 35 -11.5 55h93c0 -12 3.83301 -22.667 11.5 -32s18.5 -14 32.5 -14c13.333 0 23.833 4.66699 31.5 14
s11.5 20 11.5 32h92c0 -20 -3.66699 -38.333 -11 -55s-17.166 -31 -29.499 -43s-26.666 -21.333 -42.999 -28s-33.5 -10 -51.5 -10z" />
    <glyph glyph-name="Edotaccent" unicode="&#x116;" horiz-adv-x="578" 
d="M301 785c-19.333 0 -36 7 -50 21s-21 30.667 -21 50s7 36 21 50s30.667 21 50 21s35.833 -7 49.5 -21s20.5 -30.667 20.5 -50s-6.83301 -36 -20.5 -50s-30.167 -21 -49.5 -21zM207 588v-166h287v-128h-287v-166h319v-128h-454v716h454v-128h-319z" />
    <glyph glyph-name="edotaccent" unicode="&#x117;" horiz-adv-x="556" 
d="M520 118c-22.667 -40 -53.1699 -72.335 -91.5029 -97.002s-85.166 -37 -140.499 -37c-37.333 0 -71.833 6.5 -103.5 19.5s-59.167 31.167 -82.5 54.5s-41.5 50.833 -54.5 82.5s-19.5 66.5 -19.5 104.5c0 35.333 6.33301 68.833 19 100.5s30.334 59.334 53.001 83.001
s49.5 42.5 80.5 56.5s65.167 21 102.5 21c39.333 0 74.333 -6.5 105 -19.5s56.334 -31 77.001 -54s36.334 -50.167 47.001 -81.5s16 -65.333 16 -102v-12c-0.666992 -4 -1 -7.66699 -1 -11c-0.666992 -3.33301 -1 -7 -1 -11h-369c2.66699 -20 8.16699 -37.167 16.5 -51.5
s18.666 -26.333 30.999 -36s25.833 -16.667 40.5 -21s29.667 -6.5 45 -6.5c30 0 54.833 6.83301 74.5 20.5s35.167 30.834 46.5 51.501zM400.997 307.998c-0.666992 8.66699 -3.5 18.333 -8.5 29s-12.333 20.667 -22 30s-21.667 17 -36 23s-31.5 9 -51.5 9
c-28 0 -52.667 -8 -74 -24s-36.333 -38.333 -45 -67h237zM281.997 574.997c-21.333 0 -39.333 7.5 -54 22.5s-22 32.833 -22 53.5c0 21.333 7.33301 39.333 22 54s32.667 22 54 22s39.166 -7.33301 53.499 -22s21.5 -32.667 21.5 -54c0 -20.667 -7.16699 -38.5 -21.5 -53.5
s-32.166 -22.5 -53.499 -22.5z" />
    <glyph glyph-name="Eogonek" unicode="&#x118;" horiz-adv-x="578" 
d="M207 588l0.00195312 -165.999h287v-128h-287v-166h319v-128c-19.333 -13.333 -35.666 -27 -48.999 -41s-20 -29.667 -20 -47c0 -12 3.66699 -21.833 11 -29.5s16.666 -11.5 27.999 -11.5c8 0 16.333 1.66699 25 5l33 -83c-10 -5.33301 -22 -9.5 -36 -12.5
s-28 -4.5 -42 -4.5c-40.667 0 -72.5 10.667 -95.5 32s-34.5 49 -34.5 83c0 13.333 2.16699 25.666 6.5 36.999s9.66602 21.666 15.999 30.999s13.166 17.333 20.499 24s14 12.334 20 17.001h-337v716h454v-128h-319z" />
    <glyph glyph-name="eogonek" unicode="&#x119;" horiz-adv-x="556" 
d="M520 118c-10 -17.333 -21.501 -33.1689 -34.501 -47.502s-27.5 -27.833 -43.5 -40.5l-37 -30.5c-12 -10.333 -22.833 -20.666 -32.5 -30.999s-17.5 -20.333 -23.5 -30s-9 -18.834 -9 -27.501c0 -12.667 3.66699 -22.5 11 -29.5s16.666 -10.5 27.999 -10.5
c7.33301 0 15.333 1.66699 24 5l33 -83c-10 -5.33301 -22 -9.5 -36 -12.5s-28 -4.5 -42 -4.5c-40.667 0 -72.5 10.333 -95.5 31s-34.5 46 -34.5 76c0 19.333 5.66699 38 17 56s24.333 33 39 45c-37.333 0.666992 -71.666 7.66699 -102.999 21s-58.333 31.5 -81 54.5
s-40.334 50.333 -53.001 82s-19 66.167 -19 103.5c0 35.333 6.33301 68.833 19 100.5s30.334 59.334 53.001 83.001s49.5 42.5 80.5 56.5s65.167 21 102.5 21c39.333 0 74.333 -6.5 105 -19.5s56.334 -31 77.001 -54s36.334 -50.167 47.001 -81.5s16 -65.333 16 -102v-12
c-0.666992 -4 -1 -7.66699 -1 -11c-0.666992 -3.33301 -1 -7 -1 -11h-369c2.66699 -20 8.16699 -37.167 16.5 -51.5s18.666 -26.333 30.999 -36s25.833 -16.667 40.5 -21s29.667 -6.5 45 -6.5c30 0 54.833 6.83301 74.5 20.5s35.167 30.834 46.5 51.501zM400.999 307.997
c-0.666992 8.66699 -3.5 18.333 -8.5 29s-12.333 20.667 -22 30s-21.667 17 -36 23s-31.5 9 -51.5 9c-28 0 -52.667 -8 -74 -24s-36.333 -38.333 -45 -67h237z" />
    <glyph glyph-name="Ecaron" unicode="&#x11a;" horiz-adv-x="578" 
d="M128 900h125l40 -59h12l40 59h125v-8l-114 -126h-114l-114 126v8zM207 588v-166h287v-128h-287v-166h319v-128h-454v716h454v-128h-319z" />
    <glyph glyph-name="ecaron" unicode="&#x11b;" horiz-adv-x="556" 
d="M107 716h125l40 -59h12l40 59h125v-8l-114 -126h-114l-114 126v8zM520 118c-22.667 -40 -53.1699 -72.335 -91.5029 -97.002s-85.166 -37 -140.499 -37c-37.333 0 -71.833 6.5 -103.5 19.5s-59.167 31.167 -82.5 54.5s-41.5 50.833 -54.5 82.5s-19.5 66.5 -19.5 104.5
c0 35.333 6.33301 68.833 19 100.5s30.334 59.334 53.001 83.001s49.5 42.5 80.5 56.5s65.167 21 102.5 21c39.333 0 74.333 -6.5 105 -19.5s56.334 -31 77.001 -54s36.334 -50.167 47.001 -81.5s16 -65.333 16 -102v-12c-0.666992 -4 -1 -7.66699 -1 -11
c-0.666992 -3.33301 -1 -7 -1 -11h-369c2.66699 -20 8.16699 -37.167 16.5 -51.5s18.666 -26.333 30.999 -36s25.833 -16.667 40.5 -21s29.667 -6.5 45 -6.5c30 0 54.833 6.83301 74.5 20.5s35.167 30.834 46.5 51.501zM400.997 307.998
c-0.666992 8.66699 -3.5 18.333 -8.5 29s-12.333 20.667 -22 30s-21.667 17 -36 23s-31.5 9 -51.5 9c-28 0 -52.667 -8 -74 -24s-36.333 -38.333 -45 -67h237z" />
    <glyph glyph-name="Gcircumflex" unicode="&#x11c;" horiz-adv-x="810" 
d="M243 775l114 126h114l114 -126v-8h-125l-40 59h-12l-40 -59h-125v8zM412 393l351.001 -0.00488281c2 -8 3.66699 -17.667 5 -29s2 -22.666 2 -33.999c0 -46 -7 -89.333 -21 -130s-36 -77 -66 -109c-32 -34 -70.333 -60.333 -115 -79s-95.667 -28 -153 -28
c-52 0 -101 9.33301 -147 28s-86 44.667 -120 78s-61 72.833 -81 118.5s-30 95.5 -30 149.5s10 103.833 30 149.5s47 85.167 81 118.5s74 59.333 120 78s95 28 147 28c58 0 109.833 -10 155.5 -30s84.834 -47.667 117.501 -83l-93 -91c-23.333 24.667 -49.333 43.5 -78 56.5
s-63 19.5 -103 19.5c-32.667 0 -63.667 -5.83301 -93 -17.5s-55 -28.167 -77 -49.5s-39.5 -47.166 -52.5 -77.499s-19.5 -64.166 -19.5 -101.499s6.5 -71.166 19.5 -101.499s30.667 -56.166 53 -77.499s48.166 -37.833 77.499 -49.5s60.666 -17.5 93.999 -17.5
c38 0 70.167 5.5 96.5 16.5s48.833 25.167 67.5 42.5c13.333 12 24.833 27.167 34.5 45.5s17.167 38.833 22.5 61.5h-225v115z" />
    <glyph glyph-name="gcircumflex" unicode="&#x11d;" horiz-adv-x="597" 
d="M116 590l114 126h114l114 -126v-8h-125l-40 59h-12l-40 -59h-125v8zM282 -232c-34.667 0 -65.4961 4.5 -92.4961 13.5s-50.5 20.667 -70.5 35s-36.667 30.166 -50 47.499s-23 34.666 -29 51.999l125 50c9.33301 -26 24.666 -46.167 45.999 -60.5s45 -21.5 71 -21.5
c41.333 0 74 12.833 98 38.5s36 61.5 36 107.5v34h-8c-15.333 -21.333 -35.5 -38.166 -60.5 -50.499s-54.5 -18.5 -88.5 -18.5c-29.333 0 -57.833 6 -85.5 18s-52.167 29.167 -73.5 51.5s-38.666 49.166 -51.999 80.499s-20 66.333 -20 105s6.66699 73.834 20 105.501
s30.666 58.667 51.999 81s45.833 39.5 73.5 51.5s56.167 18 85.5 18c34 0 63.5 -6.16699 88.5 -18.5s45.167 -29.166 60.5 -50.499h8v53h125v-455c0 -41.333 -6.33301 -78.5 -19 -111.5s-30.334 -61 -53.001 -84s-49.834 -40.667 -81.501 -53s-66.834 -18.5 -105.501 -18.5z
M287.004 113c16 0 31.833 3 47.5 9s29.5 14.833 41.5 26.5s21.667 26 29 43s11 36.5 11 58.5s-3.66699 41.667 -11 59s-17 31.833 -29 43.5s-25.833 20.5 -41.5 26.5s-31.5 9 -47.5 9s-31.667 -3 -47 -9s-29 -15 -41 -27s-21.667 -26.5 -29 -43.5s-11 -36.5 -11 -58.5
s3.66699 -41.5 11 -58.5s17 -31.333 29 -43s25.667 -20.5 41 -26.5s31 -9 47 -9z" />
    <glyph glyph-name="Gbreve" unicode="&#x11e;" horiz-adv-x="810" 
d="M412 393l351.001 -0.00488281c2 -8 3.66699 -17.667 5 -29s2 -22.666 2 -33.999c0 -46 -7 -89.333 -21 -130s-36 -77 -66 -109c-32 -34 -70.333 -60.333 -115 -79s-95.667 -28 -153 -28c-52 0 -101 9.33301 -147 28s-86 44.667 -120 78s-61 72.833 -81 118.5
s-30 95.5 -30 149.5s10 103.833 30 149.5s47 85.167 81 118.5s74 59.333 120 78s95 28 147 28c58 0 109.833 -10 155.5 -30s84.834 -47.667 117.501 -83l-93 -91c-23.333 24.667 -49.333 43.5 -78 56.5s-63 19.5 -103 19.5c-32.667 0 -63.667 -5.83301 -93 -17.5
s-55 -28.167 -77 -49.5s-39.5 -47.166 -52.5 -77.499s-19.5 -64.166 -19.5 -101.499s6.5 -71.166 19.5 -101.499s30.667 -56.166 53 -77.499s48.166 -37.833 77.499 -49.5s60.666 -17.5 93.999 -17.5c38 0 70.167 5.5 96.5 16.5s48.833 25.167 67.5 42.5
c13.333 12 24.833 27.167 34.5 45.5s17.167 38.833 22.5 61.5h-225v115zM412.001 762.995c-18 0 -35.335 3.33301 -52.002 10s-31.167 16 -43.5 28s-22.333 26.333 -30 43s-11.5 35 -11.5 55h93c0 -12 3.83301 -22.667 11.5 -32s18.5 -14 32.5 -14
c13.333 0 23.833 4.66699 31.5 14s11.5 20 11.5 32h92c0 -20 -3.66699 -38.333 -11 -55s-17.166 -31 -29.499 -43s-26.666 -21.333 -42.999 -28s-33.5 -10 -51.5 -10z" />
    <glyph glyph-name="gbreve" unicode="&#x11f;" horiz-adv-x="597" 
d="M282 -232c-34.667 0 -65.4961 4.5 -92.4961 13.5s-50.5 20.667 -70.5 35s-36.667 30.166 -50 47.499s-23 34.666 -29 51.999l125 50c9.33301 -26 24.666 -46.167 45.999 -60.5s45 -21.5 71 -21.5c41.333 0 74 12.833 98 38.5s36 61.5 36 107.5v34h-8
c-15.333 -21.333 -35.5 -38.166 -60.5 -50.499s-54.5 -18.5 -88.5 -18.5c-29.333 0 -57.833 6 -85.5 18s-52.167 29.167 -73.5 51.5s-38.666 49.166 -51.999 80.499s-20 66.333 -20 105s6.66699 73.834 20 105.501s30.666 58.667 51.999 81s45.833 39.5 73.5 51.5
s56.167 18 85.5 18c34 0 63.5 -6.16699 88.5 -18.5s45.167 -29.166 60.5 -50.499h8v53h125v-455c0 -41.333 -6.33301 -78.5 -19 -111.5s-30.334 -61 -53.001 -84s-49.834 -40.667 -81.501 -53s-66.834 -18.5 -105.501 -18.5zM287.004 113c16 0 31.833 3 47.5 9
s29.5 14.833 41.5 26.5s21.667 26 29 43s11 36.5 11 58.5s-3.66699 41.667 -11 59s-17 31.833 -29 43.5s-25.833 20.5 -41.5 26.5s-31.5 9 -47.5 9s-31.667 -3 -47 -9s-29 -15 -41 -27s-21.667 -26.5 -29 -43.5s-11 -36.5 -11 -58.5s3.66699 -41.5 11 -58.5
s17 -31.333 29 -43s25.667 -20.5 41 -26.5s31 -9 47 -9zM301.004 579c-18 0 -35.335 3.33301 -52.002 10s-31.167 16 -43.5 28s-22.333 26.333 -30 43s-11.5 35 -11.5 55h93c0 -12 3.83301 -22.667 11.5 -32s18.5 -14 32.5 -14c13.333 0 23.833 4.66699 31.5 14
s11.5 20 11.5 32h92c0 -20 -3.66699 -38.333 -11 -55s-17.166 -31 -29.499 -43s-26.666 -21.333 -42.999 -28s-33.5 -10 -51.5 -10z" />
    <glyph glyph-name="Gdotaccent" unicode="&#x120;" horiz-adv-x="810" 
d="M401 785c-19.333 0 -36 7 -50 21s-21 30.667 -21 50s7 36 21 50s30.667 21 50 21s35.833 -7 49.5 -21s20.5 -30.667 20.5 -50s-6.83301 -36 -20.5 -50s-30.167 -21 -49.5 -21zM412 393l351.001 -0.00488281c2 -8 3.66699 -17.667 5 -29s2 -22.666 2 -33.999
c0 -46 -7 -89.333 -21 -130s-36 -77 -66 -109c-32 -34 -70.333 -60.333 -115 -79s-95.667 -28 -153 -28c-52 0 -101 9.33301 -147 28s-86 44.667 -120 78s-61 72.833 -81 118.5s-30 95.5 -30 149.5s10 103.833 30 149.5s47 85.167 81 118.5s74 59.333 120 78s95 28 147 28
c58 0 109.833 -10 155.5 -30s84.834 -47.667 117.501 -83l-93 -91c-23.333 24.667 -49.333 43.5 -78 56.5s-63 19.5 -103 19.5c-32.667 0 -63.667 -5.83301 -93 -17.5s-55 -28.167 -77 -49.5s-39.5 -47.166 -52.5 -77.499s-19.5 -64.166 -19.5 -101.499
s6.5 -71.166 19.5 -101.499s30.667 -56.166 53 -77.499s48.166 -37.833 77.499 -49.5s60.666 -17.5 93.999 -17.5c38 0 70.167 5.5 96.5 16.5s48.833 25.167 67.5 42.5c13.333 12 24.833 27.167 34.5 45.5s17.167 38.833 22.5 61.5h-225v115z" />
    <glyph glyph-name="gdotaccent" unicode="&#x121;" horiz-adv-x="597" 
d="M282 -232c-34.667 0 -65.4961 4.5 -92.4961 13.5s-50.5 20.667 -70.5 35s-36.667 30.166 -50 47.499s-23 34.666 -29 51.999l125 50c9.33301 -26 24.666 -46.167 45.999 -60.5s45 -21.5 71 -21.5c41.333 0 74 12.833 98 38.5s36 61.5 36 107.5v34h-8
c-15.333 -21.333 -35.5 -38.166 -60.5 -50.499s-54.5 -18.5 -88.5 -18.5c-29.333 0 -57.833 6 -85.5 18s-52.167 29.167 -73.5 51.5s-38.666 49.166 -51.999 80.499s-20 66.333 -20 105s6.66699 73.834 20 105.501s30.666 58.667 51.999 81s45.833 39.5 73.5 51.5
s56.167 18 85.5 18c34 0 63.5 -6.16699 88.5 -18.5s45.167 -29.166 60.5 -50.499h8v53h125v-455c0 -41.333 -6.33301 -78.5 -19 -111.5s-30.334 -61 -53.001 -84s-49.834 -40.667 -81.501 -53s-66.834 -18.5 -105.501 -18.5zM287.004 113c16 0 31.833 3 47.5 9
s29.5 14.833 41.5 26.5s21.667 26 29 43s11 36.5 11 58.5s-3.66699 41.667 -11 59s-17 31.833 -29 43.5s-25.833 20.5 -41.5 26.5s-31.5 9 -47.5 9s-31.667 -3 -47 -9s-29 -15 -41 -27s-21.667 -26.5 -29 -43.5s-11 -36.5 -11 -58.5s3.66699 -41.5 11 -58.5
s17 -31.333 29 -43s25.667 -20.5 41 -26.5s31 -9 47 -9zM295.004 575c-21.333 0 -39.333 7.5 -54 22.5s-22 32.833 -22 53.5c0 21.333 7.33301 39.333 22 54s32.667 22 54 22s39.166 -7.33301 53.499 -22s21.5 -32.667 21.5 -54c0 -20.667 -7.16699 -38.5 -21.5 -53.5
s-32.166 -22.5 -53.499 -22.5z" />
    <glyph glyph-name="uni0122" unicode="&#x122;" horiz-adv-x="810" 
d="M353 -253l45 70.001c-13.333 5.33301 -23.833 13.666 -31.5 24.999s-11.5 24.333 -11.5 39c0 19.333 6.83301 36 20.5 50s30.5 21 50.5 21s36.833 -7 50.5 -21s20.5 -31 20.5 -51c0 -8 -1.16699 -15.5 -3.5 -22.5s-5.5 -14.167 -9.5 -21.5l-82 -121zM412 393.001
l351.001 -0.00488281c2 -8 3.66699 -17.667 5 -29s2 -22.666 2 -33.999c0 -46 -7 -89.333 -21 -130s-36 -77 -66 -109c-32 -34 -70.333 -60.333 -115 -79s-95.667 -28 -153 -28c-52 0 -101 9.33301 -147 28s-86 44.667 -120 78s-61 72.833 -81 118.5s-30 95.5 -30 149.5
s10 103.833 30 149.5s47 85.167 81 118.5s74 59.333 120 78s95 28 147 28c58 0 109.833 -10 155.5 -30s84.834 -47.667 117.501 -83l-93 -91c-23.333 24.667 -49.333 43.5 -78 56.5s-63 19.5 -103 19.5c-32.667 0 -63.667 -5.83301 -93 -17.5s-55 -28.167 -77 -49.5
s-39.5 -47.166 -52.5 -77.499s-19.5 -64.166 -19.5 -101.499s6.5 -71.166 19.5 -101.499s30.667 -56.166 53 -77.499s48.166 -37.833 77.499 -49.5s60.666 -17.5 93.999 -17.5c38 0 70.167 5.5 96.5 16.5s48.833 25.167 67.5 42.5c13.333 12 24.833 27.167 34.5 45.5
s17.167 38.833 22.5 61.5h-225v115z" />
    <glyph glyph-name="uni0123" unicode="&#x123;" horiz-adv-x="597" 
d="M363.017 776.969l-44.9941 -69.9902c13.3311 -5.33301 23.8301 -13.665 31.4961 -24.9971s11.499 -24.3301 11.499 -38.9951c0 -19.3311 -6.83301 -35.9961 -20.498 -49.9951c-13.665 -13.998 -30.4961 -20.9971 -50.4941 -20.9971
c-19.9971 0 -36.8281 6.99902 -50.4932 20.9971c-13.665 13.999 -20.498 30.9971 -20.498 50.9941c0 7.99902 1.16699 15.498 3.5 22.4971s5.49902 14.165 9.49902 21.498l81.9893 120.984zM282 -231.999c-34.667 0 -65.4961 4.5 -92.4961 13.5s-50.5 20.667 -70.5 35
s-36.667 30.166 -50 47.499s-23 34.666 -29 51.999l125 50c9.33301 -26 24.666 -46.167 45.999 -60.5s45 -21.5 71 -21.5c41.333 0 74 12.833 98 38.5s36 61.5 36 107.5v34h-8c-15.333 -21.333 -35.5 -38.166 -60.5 -50.499s-54.5 -18.5 -88.5 -18.5
c-29.333 0 -57.833 6 -85.5 18s-52.167 29.167 -73.5 51.5s-38.666 49.166 -51.999 80.499s-20 66.333 -20 105s6.66699 73.834 20 105.501s30.666 58.667 51.999 81s45.833 39.5 73.5 51.5s56.167 18 85.5 18c34 0 63.5 -6.16699 88.5 -18.5s45.167 -29.166 60.5 -50.499h8
v53h125v-455c0 -41.333 -6.33301 -78.5 -19 -111.5s-30.334 -61 -53.001 -84s-49.834 -40.667 -81.501 -53s-66.834 -18.5 -105.501 -18.5zM287.004 113.001c16 0 31.833 3 47.5 9s29.5 14.833 41.5 26.5s21.667 26 29 43s11 36.5 11 58.5s-3.66699 41.667 -11 59
s-17 31.833 -29 43.5s-25.833 20.5 -41.5 26.5s-31.5 9 -47.5 9s-31.667 -3 -47 -9s-29 -15 -41 -27s-21.667 -26.5 -29 -43.5s-11 -36.5 -11 -58.5s3.66699 -41.5 11 -58.5s17 -31.333 29 -43s25.667 -20.5 41 -26.5s31 -9 47 -9z" />
    <glyph glyph-name="Hcircumflex" unicode="&#x124;" horiz-adv-x="715" 
d="M187 774l114 126h114l114 -126v-8h-125l-40 59h-12l-40 -59h-125v8zM72 716h135v-286h301v286h135v-716h-135v302h-301v-302h-135v716z" />
    <glyph glyph-name="hcircumflex" unicode="&#x125;" 
d="M127 774l114 126h114l114 -126v-8h-125l-40 59h-12l-40 -59h-125v8zM56 716h131.001v-201l-8 -89h8c14 23.333 34.167 42.5 60.5 57.5s55.833 22.5 88.5 22.5c63.333 0 110.166 -18.667 140.499 -56s45.5 -88.333 45.5 -153v-297h-131v281c0 34 -8 59.833 -24 77.5
s-38.333 26.5 -67 26.5c-18 0 -34 -3.83301 -48 -11.5s-25.833 -18.167 -35.5 -31.5s-17 -28.833 -22 -46.5s-7.5 -36.5 -7.5 -56.5v-239h-131v716z" />
    <glyph glyph-name="Hbar" unicode="&#x126;" horiz-adv-x="715" 
d="M72 493h-63v98h63v125h135v-125h301v125h135v-125h63v-98h-63v-493h-135v302h-301v-302h-135v493zM508 430v63h-301v-63h301z" />
    <glyph glyph-name="hbar" unicode="&#x127;" 
d="M56 563h-57.999v90h58v63h131v-63h134v-90h-134v-48l-8 -89h8c14 23.333 34.167 42.5 60.5 57.5s55.833 22.5 88.5 22.5c63.333 0 110.166 -18.667 140.499 -56s45.5 -88.333 45.5 -153v-297h-131v281c0 34 -8 59.833 -24 77.5s-38.333 26.5 -67 26.5
c-18 0 -34 -3.83301 -48 -11.5s-25.833 -18.167 -35.5 -31.5s-17 -28.833 -22 -46.5s-7.5 -36.5 -7.5 -56.5v-239h-131v563z" />
    <glyph glyph-name="Itilde" unicode="&#x128;" horiz-adv-x="279" 
d="M72 716h135v-716h-135v716zM201 771c-14 0 -26.998 2.16602 -38.998 6.49902s-23 9.5 -33 15.5l-27 14.5c-8 4.33301 -15 6.5 -21 6.5c-16.667 0 -25.334 -9.66699 -26.001 -29h-92c0 22 3.16699 41 9.5 57s15 29.167 26 39.5s23.333 18.166 37 23.499s28.167 8 43.5 8
c14 0 27.167 -2.16699 39.5 -6.5s23.5 -9.16602 33.5 -14.499c10 -6 19 -11.167 27 -15.5s14.667 -6.5 20 -6.5c16 0 25 9.66699 27 29h92c0 -22 -3.33301 -41 -10 -57s-15.334 -29.167 -26.001 -39.5s-23.167 -18.166 -37.5 -23.499s-28.833 -8 -43.5 -8z" />
    <glyph glyph-name="itilde" unicode="&#x129;" horiz-adv-x="259" 
d="M64 0v490h131v-490h-131zM191 587c-14 0 -26.998 2.16602 -38.998 6.49902s-23 9.5 -33 15.5l-27 14.5c-8 4.33301 -15 6.5 -21 6.5c-16.667 0 -25.334 -9.66699 -26.001 -29h-92c0 22 3.16699 41 9.5 57s15 29.167 26 39.5s23.333 18.166 37 23.499s28.167 8 43.5 8
c14 0 27.167 -2.16699 39.5 -6.5s23.5 -9.16602 33.5 -14.499c10 -6 19 -11.167 27 -15.5s14.667 -6.5 20 -6.5c16 0 25 9.66699 27 29h92c0 -22 -3.33301 -41 -10 -57s-15.334 -29.167 -26.001 -39.5s-23.167 -18.166 -37.5 -23.499s-28.833 -8 -43.5 -8z" />
    <glyph glyph-name="Imacron" unicode="&#x12a;" horiz-adv-x="279" 
d="M2 793v100h275v-100h-275zM72 716h135v-716h-135v716z" />
    <glyph glyph-name="imacron" unicode="&#x12b;" horiz-adv-x="259" 
d="M64 0v490h131v-490h-131zM-18 609v100h296v-100h-296z" />
    <glyph glyph-name="Ibreve" unicode="&#x12c;" horiz-adv-x="279" 
d="M72 716h135v-716h-135v716zM141 763c-18 0 -35.335 3.33301 -52.002 10s-31.167 16 -43.5 28s-22.333 26.333 -30 43s-11.5 35 -11.5 55h93c0 -12 3.83301 -22.667 11.5 -32s18.5 -14 32.5 -14c13.333 0 23.833 4.66699 31.5 14s11.5 20 11.5 32h92
c0 -20 -3.66699 -38.333 -11 -55s-17.166 -31 -29.499 -43s-26.666 -21.333 -42.999 -28s-33.5 -10 -51.5 -10z" />
    <glyph glyph-name="ibreve" unicode="&#x12d;" horiz-adv-x="259" 
d="M64 0v490h131v-490h-131zM131 579c-18 0 -35.335 3.33301 -52.002 10s-31.167 16 -43.5 28s-22.333 26.333 -30 43s-11.5 35 -11.5 55h93c0 -12 3.83301 -22.667 11.5 -32s18.5 -14 32.5 -14c13.333 0 23.833 4.66699 31.5 14s11.5 20 11.5 32h92
c0 -20 -3.66699 -38.333 -11 -55s-17.166 -31 -29.499 -43s-26.666 -21.333 -42.999 -28s-33.5 -10 -51.5 -10z" />
    <glyph glyph-name="Iogonek" unicode="&#x12e;" horiz-adv-x="279" 
d="M72 716l134.999 -0.00390625v-716c-19.333 -13.333 -35.666 -27 -48.999 -41s-20 -29.667 -20 -47c0 -12 3.66699 -21.833 11 -29.5s16.666 -11.5 27.999 -11.5c8 0 16.333 1.66699 25 5l33 -83c-10 -5.33301 -22 -9.5 -36 -12.5s-28.333 -4.5 -43 -4.5
c-40 0 -71.5 10.667 -94.5 32s-34.5 49 -34.5 83c0 12.667 1.83301 24.334 5.5 35.001s8.33398 20.334 14.001 29.001s11.667 16.334 18 23.001s12.5 12.334 18.5 17.001l-2 5h-9v716z" />
    <glyph glyph-name="iogonek" unicode="&#x12f;" horiz-adv-x="259" 
d="M129 561c-11.333 0 -22.166 2.16504 -32.499 6.49805s-19.333 10.333 -27 18s-13.667 16.5 -18 26.5s-6.5 21 -6.5 33s2.16699 23 6.5 33s10.333 18.833 18 26.5s16.667 13.667 27 18s21.166 6.5 32.499 6.5c23.333 0 43.333 -8.16699 60 -24.5s25 -36.166 25 -59.499
s-8.33301 -43.166 -25 -59.499s-36.667 -24.5 -60 -24.5zM195 -0.00195312c-19.333 -13.333 -35.6621 -27.002 -48.9951 -41.002s-20 -29.667 -20 -47c0 -12 3.66699 -21.833 11 -29.5s16.666 -11.5 27.999 -11.5c8 0 16 1.66699 24 5l34 -83
c-10.667 -5.33301 -22.834 -9.5 -36.501 -12.5s-27.834 -4.5 -42.501 -4.5c-40 0 -71.5 10.667 -94.5 32s-34.5 49 -34.5 83c0 12 1.66699 23.167 5 33.5s7.66602 19.833 12.999 28.5s11.166 16.334 17.499 23.001s12.5 12.334 18.5 17.001l-5 7v490h131v-490z" />
    <glyph glyph-name="Idotaccent" unicode="&#x130;" horiz-adv-x="279" 
d="M72 716h135v-716h-135v716zM140 785c-19.333 0 -36 7 -50 21s-21 30.667 -21 50s7 36 21 50s30.667 21 50 21s35.833 -7 49.5 -21s20.5 -30.667 20.5 -50s-6.83301 -36 -20.5 -50s-30.167 -21 -49.5 -21z" />
    <glyph glyph-name="dotlessi" unicode="&#x131;" horiz-adv-x="259" 
d="M64 0v490h131v-490h-131z" />
    <glyph glyph-name="Jcircumflex" unicode="&#x134;" horiz-adv-x="555" 
d="M262 774l114 126h114l114 -126v-8h-125l-40 59h-12l-40 -59h-125v8zM261 -16c-56.667 0 -106.166 15.3311 -148.499 45.998s-71.833 73 -88.5 127l124 51c8.66699 -32 22.667 -56 42 -72s43 -24 71 -24c31.333 0 55.666 10 72.999 30s26 48 26 84v490h135v-489
c0 -40 -6.16699 -75.167 -18.5 -105.5s-29 -55.666 -50 -75.999s-45.667 -35.666 -74 -45.999s-58.833 -15.5 -91.5 -15.5z" />
    <glyph glyph-name="jcircumflex" unicode="&#x135;" horiz-adv-x="259" 
d="M34 -226c-16.667 0 -31.667 1.16602 -45 3.49902s-25.666 5.83301 -36.999 10.5l33 116c5.33301 -3.33301 10.5 -5.66602 15.5 -6.99902s11.167 -2 18.5 -2c30 0 45 19.667 45 59v536h131v-540c0 -32 -4.33301 -59.167 -13 -81.5s-20.334 -40.5 -35.001 -54.5
s-31.667 -24.167 -51 -30.5s-40 -9.5 -62 -9.5zM-41 589.999l114 126h114l114 -126v-8h-125l-40 59h-12l-40 -59h-125v8z" />
    <glyph glyph-name="uni0136" unicode="&#x136;" horiz-adv-x="665" 
d="M267 -253l45 70.001c-13.333 5.33301 -23.833 13.666 -31.5 24.999s-11.5 24.333 -11.5 39c0 19.333 6.83301 36 20.5 50s30.5 21 50.5 21s36.833 -7 50.5 -21s20.5 -31 20.5 -51c0 -8 -1.16699 -15.5 -3.5 -22.5s-5.5 -14.167 -9.5 -21.5l-82 -121zM72 716.001h135v-307
h8l262 307h163v-8l-259 -296l286 -404v-8h-165l-213 305l-82 -95v-210h-135v716z" />
    <glyph glyph-name="uni0137" unicode="&#x137;" horiz-adv-x="527" 
d="M196 -253l45 70.001c-13.333 5.33301 -23.833 13.666 -31.5 24.999s-11.5 24.333 -11.5 39c0 19.333 6.83301 36 20.5 50s30.5 21 50.5 21s36.833 -7 50.5 -21s20.5 -31 20.5 -51c0 -8 -1.16699 -15.5 -3.5 -22.5s-5.5 -14.167 -9.5 -21.5l-82 -121zM56 716.001h131v-390
h6l164 164h162v-8l-182 -177l197 -297v-8h-155l-134 215l-58 -57v-158h-131v716z" />
    <glyph glyph-name="kgreenlandic" unicode="&#x138;" horiz-adv-x="514" 
d="M195 234h-8v-234h-131v490h131v-209h8l158 209h154v-8l-175 -223l186 -251v-8h-154z" />
    <glyph glyph-name="Lacute" unicode="&#x139;" horiz-adv-x="534" 
d="M80 772l42 136h153l-90 -136h-105zM72 716h135v-588h303v-128h-438v716z" />
    <glyph glyph-name="lacute" unicode="&#x13a;" horiz-adv-x="243" 
d="M63 772l42 136h153l-90 -136h-105zM56 0v716h131v-716h-131z" />
    <glyph glyph-name="uni013B" unicode="&#x13b;" horiz-adv-x="534" 
d="M218 -253l45 70.001c-13.333 5.33301 -23.833 13.666 -31.5 24.999s-11.5 24.333 -11.5 39c0 19.333 6.83301 36 20.5 50s30.5 21 50.5 21s36.833 -7 50.5 -21s20.5 -31 20.5 -51c0 -8 -1.16699 -15.5 -3.5 -22.5s-5.5 -14.167 -9.5 -21.5l-82 -121zM72 716.001h135v-588
h303v-128h-438v716z" />
    <glyph glyph-name="uni013C" unicode="&#x13c;" horiz-adv-x="243" 
d="M49 -253l45 70.001c-13.333 5.33301 -23.833 13.666 -31.5 24.999s-11.5 24.333 -11.5 39c0 19.333 6.83301 36 20.5 50s30.5 21 50.5 21s36.833 -7 50.5 -21s20.5 -31 20.5 -51c0 -8 -1.16699 -15.5 -3.5 -22.5s-5.5 -14.167 -9.5 -21.5l-82 -121zM56 0.000976562v716
h131v-716h-131z" />
    <glyph glyph-name="Lcaron" unicode="&#x13d;" horiz-adv-x="534" 
d="M341 495v221h138l-45 -221h-93zM72 716h135v-588h303v-128h-438v716z" />
    <glyph glyph-name="lcaron" unicode="&#x13e;" horiz-adv-x="383" 
d="M269 495v221h138l-45 -221h-93zM76 0v716h131v-716h-131z" />
    <glyph glyph-name="Ldot" unicode="&#x13f;" horiz-adv-x="534" 
d="M72 716h135v-588h303v-128h-438v716zM377 257c-24 0 -44.5 8.5 -61.5 25.5s-25.5 37.5 -25.5 61.5s8.5 44.5 25.5 61.5s37.5 25.5 61.5 25.5s44.333 -8.5 61 -25.5s25 -37.5 25 -61.5s-8.33301 -44.5 -25 -61.5s-37 -25.5 -61 -25.5z" />
    <glyph glyph-name="Lslash" unicode="&#x141;" horiz-adv-x="617" 
d="M155 247l-54 -33l-59 93l113 71v338h135v-251l110 69l57 -92l-167 -105v-209h303v-128h-438v247z" />
    <glyph glyph-name="lslash" unicode="&#x142;" horiz-adv-x="419" 
d="M141 0v256l-46 -33l-65 86l111 81v326h131v-234l61 44l65 -86l-126 -93v-347h-131z" />
    <glyph glyph-name="Nacute" unicode="&#x143;" horiz-adv-x="723" 
d="M321 772l42 136h153l-90 -136h-105zM72 716h157l288 -480h8l-8 138v342h134v-716h-142l-304 507h-8l8 -138v-369h-133v716z" />
    <glyph glyph-name="nacute" unicode="&#x144;" 
d="M243 588l42 136h153l-90 -136h-105zM179 426h8.00098c15.333 24.667 36 44.167 62 58.5s55.667 21.5 89 21.5c30.667 0 57.667 -5 81 -15s42.5 -24.167 57.5 -42.5s26.333 -40.333 34 -66s11.5 -54.167 11.5 -85.5v-297h-131v281c0 35.333 -7.83301 61.5 -23.5 78.5
s-38.5 25.5 -68.5 25.5c-18 0 -33.833 -3.83301 -47.5 -11.5s-25.334 -18 -35.001 -31s-17 -28.333 -22 -46s-7.5 -36.5 -7.5 -56.5v-240h-131v490h123v-64z" />
    <glyph glyph-name="uni0145" unicode="&#x145;" horiz-adv-x="723" 
d="M288 -253l45 70.001c-13.333 5.33301 -23.833 13.666 -31.5 24.999s-11.5 24.333 -11.5 39c0 19.333 6.83301 36 20.5 50s30.5 21 50.5 21s36.833 -7 50.5 -21s20.5 -31 20.5 -51c0 -8 -1.16699 -15.5 -3.5 -22.5s-5.5 -14.167 -9.5 -21.5l-82 -121zM72 716.001h157
l288 -480h8l-8 138v342h134v-716h-142l-304 507h-8l8 -138v-369h-133v716z" />
    <glyph glyph-name="uni0146" unicode="&#x146;" 
d="M216 -253l45 70.001c-13.333 5.33301 -23.833 13.666 -31.5 24.999s-11.5 24.333 -11.5 39c0 19.333 6.83301 36 20.5 50s30.5 21 50.5 21s36.833 -7 50.5 -21s20.5 -31 20.5 -51c0 -8 -1.16699 -15.5 -3.5 -22.5s-5.5 -14.167 -9.5 -21.5l-82 -121zM179 426.001h8.00098
c15.333 24.667 36 44.167 62 58.5s55.667 21.5 89 21.5c30.667 0 57.667 -5 81 -15s42.5 -24.167 57.5 -42.5s26.333 -40.333 34 -66s11.5 -54.167 11.5 -85.5v-297h-131v281c0 35.333 -7.83301 61.5 -23.5 78.5s-38.5 25.5 -68.5 25.5c-18 0 -33.833 -3.83301 -47.5 -11.5
s-25.334 -18 -35.001 -31s-17 -28.333 -22 -46s-7.5 -36.5 -7.5 -56.5v-240h-131v490h123v-64z" />
    <glyph glyph-name="Ncaron" unicode="&#x147;" horiz-adv-x="723" 
d="M195 900h125l40 -59h12l40 59h125v-8l-114 -126h-114l-114 126v8zM72 716h157l288 -480h8l-8 138v342h134v-716h-142l-304 507h-8l8 -138v-369h-133v716z" />
    <glyph glyph-name="ncaron" unicode="&#x148;" 
d="M120 716h125l40 -59h12l40 59h125v-8l-114 -126h-114l-114 126v8zM179 426h8.00098c15.333 24.667 36 44.167 62 58.5s55.667 21.5 89 21.5c30.667 0 57.667 -5 81 -15s42.5 -24.167 57.5 -42.5s26.333 -40.333 34 -66s11.5 -54.167 11.5 -85.5v-297h-131v281
c0 35.333 -7.83301 61.5 -23.5 78.5s-38.5 25.5 -68.5 25.5c-18 0 -33.833 -3.83301 -47.5 -11.5s-25.334 -18 -35.001 -31s-17 -28.333 -22 -46s-7.5 -36.5 -7.5 -56.5v-240h-131v490h123v-64z" />
    <glyph glyph-name="Eng" unicode="&#x14a;" horiz-adv-x="723" 
d="M72 716l157.001 -0.000976562l288 -470h8l-8 138v332h134v-755c0 -34.667 -4.5 -64 -13.5 -88s-21.167 -43.333 -36.5 -58s-33.333 -25.167 -54 -31.5s-42.334 -9.5 -65.001 -9.5c-15.333 0 -28.833 1.16699 -40.5 3.5s-23.167 5.83301 -34.5 10.5l31 116
c5.33301 -3.33301 10.5 -5.66602 15.5 -6.99902s11.167 -2 18.5 -2c16 0 27.5 5 34.5 15s10.5 24.667 10.5 44v47l-312 506h-8l8 -138v-369h-133v716z" />
    <glyph glyph-name="eng" unicode="&#x14b;" 
d="M179 426l8.00098 -0.000976562c15.333 24.667 36 44.167 62 58.5s55.667 21.5 89 21.5c30.667 0 57.667 -5 81 -15s42.5 -24.167 57.5 -42.5s26.333 -40.333 34 -66s11.5 -54.167 11.5 -85.5v-347c0 -32 -4.33301 -59.167 -13 -81.5s-20.334 -40.5 -35.001 -54.5
s-31.667 -24.167 -51 -30.5s-40 -9.5 -62 -9.5c-16.667 0 -31.667 1.16699 -45 3.5s-25.666 5.83301 -36.999 10.5l33 116c5.33301 -3.33301 10.5 -5.66602 15.5 -6.99902s11.167 -2 18.5 -2c16 0 27.5 5 34.5 15s10.5 24.667 10.5 44v327
c0 35.333 -7.83301 61.5 -23.5 78.5s-38.5 25.5 -68.5 25.5c-18 0 -33.833 -3.83301 -47.5 -11.5s-25.334 -18 -35.001 -31s-17 -28.333 -22 -46s-7.5 -36.5 -7.5 -56.5v-240h-131v490h123v-64z" />
    <glyph glyph-name="Omacron" unicode="&#x14c;" horiz-adv-x="822" 
d="M263 793v100h296v-100h-296zM411 -16c-53.333 0 -102.833 9.66699 -148.5 29s-85.167 45.833 -118.5 79.5s-59.5 73.334 -78.5 119.001s-28.5 94.5 -28.5 146.5s9.5 100.833 28.5 146.5s45.167 85.334 78.5 119.001s72.833 60.167 118.5 79.5s95.167 29 148.5 29
s102.833 -9.66699 148.5 -29s85.167 -45.833 118.5 -79.5s59.5 -73.334 78.5 -119.001s28.5 -94.5 28.5 -146.5s-9.5 -100.833 -28.5 -146.5s-45.167 -85.334 -78.5 -119.001s-72.833 -60.167 -118.5 -79.5s-95.167 -29 -148.5 -29zM411 112c33.333 0 64.5 6 93.5 18
s54.333 28.667 76 50s38.667 47.166 51 77.499s18.5 63.833 18.5 100.5s-6.16699 70.167 -18.5 100.5s-29.333 56.166 -51 77.499s-47 38 -76 50s-60.167 18 -93.5 18s-64.5 -6 -93.5 -18s-54.333 -28.667 -76 -50s-38.667 -47.166 -51 -77.499s-18.5 -63.833 -18.5 -100.5
s6.16699 -70.167 18.5 -100.5s29.333 -56.166 51 -77.499s47 -38 76 -50s60.167 -18 93.5 -18z" />
    <glyph glyph-name="omacron" unicode="&#x14d;" horiz-adv-x="576" 
d="M140 609v100h296v-100h-296zM288 506c38 0 72.833 -6.5 104.5 -19.5s59 -31 82 -54s41 -50.5 54 -82.5s19.5 -67 19.5 -105s-6.5 -73 -19.5 -105s-31 -59.5 -54 -82.5s-50.333 -41 -82 -54s-66.5 -19.5 -104.5 -19.5s-72.833 6.5 -104.5 19.5s-59 31 -82 54
s-41 50.5 -54 82.5s-19.5 67 -19.5 105s6.5 73 19.5 105s31 59.5 54 82.5s50.333 41 82 54s66.5 19.5 104.5 19.5zM288 105c16.667 0 32.834 3.16699 48.501 9.5s29.5 15.5 41.5 27.5s21.5 26.667 28.5 44s10.5 37 10.5 59s-3.5 41.667 -10.5 59s-16.5 32 -28.5 44
s-25.833 21.167 -41.5 27.5s-31.834 9.5 -48.501 9.5c-17.333 0 -33.666 -3.16699 -48.999 -9.5s-29 -15.5 -41 -27.5s-21.5 -26.667 -28.5 -44s-10.5 -37 -10.5 -59s3.5 -41.667 10.5 -59s16.5 -32 28.5 -44s25.667 -21.167 41 -27.5s31.666 -9.5 48.999 -9.5z" />
    <glyph glyph-name="Obreve" unicode="&#x14e;" horiz-adv-x="822" 
d="M411 -16c-53.333 0 -102.833 9.66699 -148.5 29s-85.167 45.833 -118.5 79.5s-59.5 73.334 -78.5 119.001s-28.5 94.5 -28.5 146.5s9.5 100.833 28.5 146.5s45.167 85.334 78.5 119.001s72.833 60.167 118.5 79.5s95.167 29 148.5 29s102.833 -9.66699 148.5 -29
s85.167 -45.833 118.5 -79.5s59.5 -73.334 78.5 -119.001s28.5 -94.5 28.5 -146.5s-9.5 -100.833 -28.5 -146.5s-45.167 -85.334 -78.5 -119.001s-72.833 -60.167 -118.5 -79.5s-95.167 -29 -148.5 -29zM411 112c33.333 0 64.5 6 93.5 18s54.333 28.667 76 50
s38.667 47.166 51 77.499s18.5 63.833 18.5 100.5s-6.16699 70.167 -18.5 100.5s-29.333 56.166 -51 77.499s-47 38 -76 50s-60.167 18 -93.5 18s-64.5 -6 -93.5 -18s-54.333 -28.667 -76 -50s-38.667 -47.166 -51 -77.499s-18.5 -63.833 -18.5 -100.5
s6.16699 -70.167 18.5 -100.5s29.333 -56.166 51 -77.499s47 -38 76 -50s60.167 -18 93.5 -18zM412 763c-18 0 -35.335 3.33301 -52.002 10s-31.167 16 -43.5 28s-22.333 26.333 -30 43s-11.5 35 -11.5 55h93c0 -12 3.83301 -22.667 11.5 -32s18.5 -14 32.5 -14
c13.333 0 23.833 4.66699 31.5 14s11.5 20 11.5 32h92c0 -20 -3.66699 -38.333 -11 -55s-17.166 -31 -29.499 -43s-26.666 -21.333 -42.999 -28s-33.5 -10 -51.5 -10z" />
    <glyph glyph-name="obreve" unicode="&#x14f;" horiz-adv-x="576" 
d="M288 506c38 0 72.833 -6.5 104.5 -19.5s59 -31 82 -54s41 -50.5 54 -82.5s19.5 -67 19.5 -105s-6.5 -73 -19.5 -105s-31 -59.5 -54 -82.5s-50.333 -41 -82 -54s-66.5 -19.5 -104.5 -19.5s-72.833 6.5 -104.5 19.5s-59 31 -82 54s-41 50.5 -54 82.5s-19.5 67 -19.5 105
s6.5 73 19.5 105s31 59.5 54 82.5s50.333 41 82 54s66.5 19.5 104.5 19.5zM288 105c16.667 0 32.834 3.16699 48.501 9.5s29.5 15.5 41.5 27.5s21.5 26.667 28.5 44s10.5 37 10.5 59s-3.5 41.667 -10.5 59s-16.5 32 -28.5 44s-25.833 21.167 -41.5 27.5
s-31.834 9.5 -48.501 9.5c-17.333 0 -33.666 -3.16699 -48.999 -9.5s-29 -15.5 -41 -27.5s-21.5 -26.667 -28.5 -44s-10.5 -37 -10.5 -59s3.5 -41.667 10.5 -59s16.5 -32 28.5 -44s25.667 -21.167 41 -27.5s31.666 -9.5 48.999 -9.5zM289 579
c-18 0 -35.335 3.33301 -52.002 10s-31.167 16 -43.5 28s-22.333 26.333 -30 43s-11.5 35 -11.5 55h93c0 -12 3.83301 -22.667 11.5 -32s18.5 -14 32.5 -14c13.333 0 23.833 4.66699 31.5 14s11.5 20 11.5 32h92c0 -20 -3.66699 -38.333 -11 -55s-17.166 -31 -29.499 -43
s-26.666 -21.333 -42.999 -28s-33.5 -10 -51.5 -10z" />
    <glyph glyph-name="Ohungarumlaut" unicode="&#x150;" horiz-adv-x="822" 
d="M411 -16c-53.333 0 -102.833 9.66699 -148.5 29s-85.167 45.833 -118.5 79.5s-59.5 73.334 -78.5 119.001s-28.5 94.5 -28.5 146.5s9.5 100.833 28.5 146.5s45.167 85.334 78.5 119.001s72.833 60.167 118.5 79.5s95.167 29 148.5 29s102.833 -9.66699 148.5 -29
s85.167 -45.833 118.5 -79.5s59.5 -73.334 78.5 -119.001s28.5 -94.5 28.5 -146.5s-9.5 -100.833 -28.5 -146.5s-45.167 -85.334 -78.5 -119.001s-72.833 -60.167 -118.5 -79.5s-95.167 -29 -148.5 -29zM411 112c33.333 0 64.5 6 93.5 18s54.333 28.667 76 50
s38.667 47.166 51 77.499s18.5 63.833 18.5 100.5s-6.16699 70.167 -18.5 100.5s-29.333 56.166 -51 77.499s-47 38 -76 50s-60.167 18 -93.5 18s-64.5 -6 -93.5 -18s-54.333 -28.667 -76 -50s-38.667 -47.166 -51 -77.499s-18.5 -63.833 -18.5 -100.5
s6.16699 -70.167 18.5 -100.5s29.333 -56.166 51 -77.499s47 -38 76 -50s60.167 -18 93.5 -18zM265 772l42 136h153l-90 -136h-105zM463 772l42 136h153l-90 -136h-105z" />
    <glyph glyph-name="ohungarumlaut" unicode="&#x151;" horiz-adv-x="576" 
d="M138 588l42 136h153l-90 -136h-105zM335 588l42 136h153l-90 -136h-105zM288 506c38 0 72.833 -6.5 104.5 -19.5s59 -31 82 -54s41 -50.5 54 -82.5s19.5 -67 19.5 -105s-6.5 -73 -19.5 -105s-31 -59.5 -54 -82.5s-50.333 -41 -82 -54s-66.5 -19.5 -104.5 -19.5
s-72.833 6.5 -104.5 19.5s-59 31 -82 54s-41 50.5 -54 82.5s-19.5 67 -19.5 105s6.5 73 19.5 105s31 59.5 54 82.5s50.333 41 82 54s66.5 19.5 104.5 19.5zM288 105c16.667 0 32.834 3.16699 48.501 9.5s29.5 15.5 41.5 27.5s21.5 26.667 28.5 44s10.5 37 10.5 59
s-3.5 41.667 -10.5 59s-16.5 32 -28.5 44s-25.833 21.167 -41.5 27.5s-31.834 9.5 -48.501 9.5c-17.333 0 -33.666 -3.16699 -48.999 -9.5s-29 -15.5 -41 -27.5s-21.5 -26.667 -28.5 -44s-10.5 -37 -10.5 -59s3.5 -41.667 10.5 -59s16.5 -32 28.5 -44
s25.667 -21.167 41 -27.5s31.666 -9.5 48.999 -9.5z" />
    <glyph glyph-name="OE" unicode="&#x152;" horiz-adv-x="1146" 
d="M774 588v-166.002h288v-128h-288v-166h320v-128h-454v75h-7c-23.333 -28 -54.666 -50.167 -93.999 -66.5s-86 -24.5 -140 -24.5c-50.667 0 -98 9.66699 -142 29s-82.333 45.833 -115 79.5s-58.334 73.334 -77.001 119.001s-28 94.5 -28 146.5s9.33301 100.833 28 146.5
s44.334 85.334 77.001 119.001s71 60.167 115 79.5s91.333 29 142 29c54 0 100.667 -8.33301 140 -25s70.666 -39 93.999 -67h7v76h454v-128h-320zM411 111.998c33.333 0 64.5 6 93.5 18s54.333 28.667 76 50s38.667 47.166 51 77.499s18.5 63.833 18.5 100.5
s-6.16699 70.167 -18.5 100.5s-29.333 56.166 -51 77.499s-47 38 -76 50s-60.167 18 -93.5 18s-64.5 -6 -93.5 -18s-54.333 -28.667 -76 -50s-38.667 -47.166 -51 -77.499s-18.5 -63.833 -18.5 -100.5s6.16699 -70.167 18.5 -100.5s29.333 -56.166 51 -77.499s47 -38 76 -50
s60.167 -18 93.5 -18z" />
    <glyph glyph-name="oe" unicode="&#x153;" horiz-adv-x="948" 
d="M680 -16c-44 0 -82.5039 9.33008 -115.504 27.9971s-59.833 42.334 -80.5 71.001c-23.333 -31.333 -51.333 -55.666 -84 -72.999s-70 -26 -112 -26c-38 0 -72.833 6.5 -104.5 19.5s-59 31.167 -82 54.5s-41 50.833 -54 82.5s-19.5 66.5 -19.5 104.5s6.5 73 19.5 105
s31 59.5 54 82.5s50.333 41 82 54s66.5 19.5 104.5 19.5c42 0 79.333 -8.66699 112 -26s61 -42 85 -74c21.333 30 48.333 54.167 81 72.5s69 27.5 109 27.5c39.333 0 74.333 -6.5 105 -19.5s56.334 -31 77.001 -54s36.334 -50.167 47.001 -81.5s16 -65.333 16 -102v-12
c-0.666992 -4 -1 -7.66699 -1 -11c-0.666992 -3.33301 -1 -7 -1 -11h-370c2.66699 -20 8.33398 -37.167 17.001 -51.5s19.167 -26.333 31.5 -36s25.833 -16.667 40.5 -21s29.667 -6.5 45 -6.5c30 0 54.833 6.83301 74.5 20.5s35.167 30.834 46.5 51.501l109 -54
c-22.667 -40 -53.167 -72.333 -91.5 -97s-85.166 -37 -140.499 -37zM287.996 104.997c16.667 0 32.834 3.16699 48.501 9.5s29.5 15.5 41.5 27.5s21.5 26.667 28.5 44s10.5 37 10.5 59s-3.5 41.667 -10.5 59s-16.5 32 -28.5 44s-25.833 21.167 -41.5 27.5
s-31.834 9.5 -48.501 9.5c-17.333 0 -33.666 -3.16699 -48.999 -9.5s-29 -15.5 -41 -27.5s-21.5 -26.667 -28.5 -44s-10.5 -37 -10.5 -59s3.5 -41.667 10.5 -59s16.5 -32 28.5 -44s25.667 -21.167 41 -27.5s31.666 -9.5 48.999 -9.5zM792.996 307.997
c-0.666992 8.66699 -3.49902 18.333 -8.49902 29s-12.333 20.667 -22 30s-21.667 17 -36 23s-31.5 9 -51.5 9c-28 0 -52.833 -8 -74.5 -24s-36.834 -38.333 -45.501 -67h238z" />
    <glyph glyph-name="Racute" unicode="&#x154;" horiz-adv-x="620" 
d="M245 772l42 136h153l-90 -136h-105zM72 716l261.001 0.000976562c36 0 68.667 -5.66699 98 -17s54.5 -27 75.5 -47s37.167 -43.833 48.5 -71.5s17 -57.834 17 -90.501c0 -24 -4 -46.5 -12 -67.5s-19 -40 -33 -57s-30.333 -32 -49 -45s-38.334 -23.167 -59.001 -30.5
l-1 -7l192 -275v-8h-155l-185 269h-63v-269h-135v716zM332.001 393.001c30.667 0 55.833 9.33203 75.5 27.999s29.5 42.334 29.5 71.001c0 12.667 -2.16699 25 -6.5 37s-10.833 22.667 -19.5 32s-19.5 16.833 -32.5 22.5s-27.833 8.5 -44.5 8.5h-127v-199h125z" />
    <glyph glyph-name="racute" unicode="&#x155;" horiz-adv-x="407" 
d="M170 588l42 136h153l-90 -136h-105zM56 490l123.002 -0.000976562v-68h8c6 12 14 23 24 33s21.167 18.667 33.5 26s25.666 13 39.999 17s28.5 6 42.5 6c17.333 0 32.166 -1.66699 44.499 -5s22.833 -7.66602 31.5 -12.999l-35 -119c-8 4 -16.833 7.16699 -26.5 9.5
s-21.5 3.5 -35.5 3.5c-18 0 -34.333 -3.5 -49 -10.5s-27.167 -16.833 -37.5 -29.5s-18.333 -27.5 -24 -44.5s-8.5 -35.5 -8.5 -55.5v-240h-131v490z" />
    <glyph glyph-name="uni0156" unicode="&#x156;" horiz-adv-x="615" 
d="M252 -253l45 70.001c-13.333 5.33301 -23.833 13.666 -31.5 24.999s-11.5 24.333 -11.5 39c0 19.333 6.83301 36 20.5 50s30.5 21 50.5 21s36.833 -7 50.5 -21s20.5 -31 20.5 -51c0 -8 -1.16699 -15.5 -3.5 -22.5s-5.5 -14.167 -9.5 -21.5l-82 -121zM72 716.001
l261.001 0.000976562c36 0 68.667 -5.66699 98 -17s54.5 -27 75.5 -47s37.167 -43.833 48.5 -71.5s17 -57.834 17 -90.501c0 -24 -4 -46.5 -12 -67.5s-19 -40 -33 -57s-30.333 -32 -49 -45s-38.334 -23.167 -59.001 -30.5l-1 -7l192 -275v-8h-155l-185 269h-63v-269h-135
v716zM332.001 393.002c30.667 0 55.833 9.33203 75.5 27.999s29.5 42.334 29.5 71.001c0 12.667 -2.16699 25 -6.5 37s-10.833 22.667 -19.5 32s-19.5 16.833 -32.5 22.5s-27.833 8.5 -44.5 8.5h-127v-199h125z" />
    <glyph glyph-name="uni0157" unicode="&#x157;" horiz-adv-x="407" 
d="M51 -253l45 70.001c-13.333 5.33301 -23.833 13.666 -31.5 24.999s-11.5 24.333 -11.5 39c0 19.333 6.83301 36 20.5 50s30.5 21 50.5 21s36.833 -7 50.5 -21s20.5 -31 20.5 -51c0 -8 -1.16699 -15.5 -3.5 -22.5s-5.5 -14.167 -9.5 -21.5l-82 -121zM56 490.001
l123.002 -0.000976562v-68h8c6 12 14 23 24 33s21.167 18.667 33.5 26s25.666 13 39.999 17s28.5 6 42.5 6c17.333 0 32.166 -1.66699 44.499 -5s22.833 -7.66602 31.5 -12.999l-35 -119c-8 4 -16.833 7.16699 -26.5 9.5s-21.5 3.5 -35.5 3.5c-18 0 -34.333 -3.5 -49 -10.5
s-27.167 -16.833 -37.5 -29.5s-18.333 -27.5 -24 -44.5s-8.5 -35.5 -8.5 -55.5v-240h-131v490z" />
    <glyph glyph-name="Rcaron" unicode="&#x158;" horiz-adv-x="620" 
d="M130 900h125l40 -59h12l40 59h125v-8l-114 -126h-114l-114 126v8zM72 716l261.001 0.000976562c36 0 68.667 -5.66699 98 -17s54.5 -27 75.5 -47s37.167 -43.833 48.5 -71.5s17 -57.834 17 -90.501c0 -24 -4 -46.5 -12 -67.5s-19 -40 -33 -57s-30.333 -32 -49 -45
s-38.334 -23.167 -59.001 -30.5l-1 -7l192 -275v-8h-155l-185 269h-63v-269h-135v716zM332.001 393.001c30.667 0 55.833 9.33203 75.5 27.999s29.5 42.334 29.5 71.001c0 12.667 -2.16699 25 -6.5 37s-10.833 22.667 -19.5 32s-19.5 16.833 -32.5 22.5
s-27.833 8.5 -44.5 8.5h-127v-199h125z" />
    <glyph glyph-name="rcaron" unicode="&#x159;" horiz-adv-x="407" 
d="M45 716h125l40 -59h12l40 59h125v-8l-114 -126h-114l-114 126v8zM56 490l123.002 -0.000976562v-68h8c6 12 14 23 24 33s21.167 18.667 33.5 26s25.666 13 39.999 17s28.5 6 42.5 6c17.333 0 32.166 -1.66699 44.499 -5s22.833 -7.66602 31.5 -12.999l-35 -119
c-8 4 -16.833 7.16699 -26.5 9.5s-21.5 3.5 -35.5 3.5c-18 0 -34.333 -3.5 -49 -10.5s-27.167 -16.833 -37.5 -29.5s-18.333 -27.5 -24 -44.5s-8.5 -35.5 -8.5 -55.5v-240h-131v490z" />
    <glyph glyph-name="Sacute" unicode="&#x15a;" horiz-adv-x="575" 
d="M229 772l42 136h153l-90 -136h-105zM291 -16c-30.667 0 -59.998 4.33496 -87.998 13.002s-53.667 21.667 -77 39s-43.666 38.5 -60.999 63.5s-31 54.167 -41 87.5l127 50c9.33301 -36 25.666 -65.833 48.999 -89.5s54 -35.5 92 -35.5c14 0 27.5 1.83301 40.5 5.5
s24.667 9 35 16s18.5 15.833 24.5 26.5s9 23 9 37c0 13.333 -2.33301 25.333 -7 36s-12.5 20.667 -23.5 30s-25.333 18.333 -43 27s-39.5 17.667 -65.5 27l-44 16c-19.333 6.66699 -38.833 15.667 -58.5 27s-37.5 25 -53.5 41s-29.167 34.833 -39.5 56.5
s-15.5 46.167 -15.5 73.5c0 28 5.5 54.167 16.5 78.5s26.667 45.666 47 63.999s44.666 32.666 72.999 42.999s59.833 15.5 94.5 15.5c36 0 67.167 -4.83301 93.5 -14.5s48.666 -22 66.999 -37s33.166 -31.5 44.499 -49.5s19.666 -35 24.999 -51l-119 -50
c-6.66699 20 -18.834 38 -36.501 54s-41.834 24 -72.501 24c-29.333 0 -53.666 -6.83301 -72.999 -20.5s-29 -31.5 -29 -53.5c0 -21.333 9.33301 -39.5 28 -54.5s48.334 -29.5 89.001 -43.5l45 -15c28.667 -10 54.834 -21.5 78.501 -34.5s44 -28.5 61 -46.5
s30 -38.5 39 -61.5s13.5 -49.5 13.5 -79.5c0 -37.333 -7.5 -69.5 -22.5 -96.5s-34.167 -49.167 -57.5 -66.5s-49.666 -30.333 -78.999 -39s-58 -13 -86 -13z" />
    <glyph glyph-name="sacute" unicode="&#x15b;" horiz-adv-x="483" 
d="M185 588l42 136h153l-90 -136h-105zM250 -16c-32 0 -60.501 4.00098 -85.501 12.001s-46.667 18.5 -65 31.5s-33.833 28 -46.5 45s-22.334 34.167 -29.001 51.5l117 50c11.333 -25.333 26.5 -44.166 45.5 -56.499s40.167 -18.5 63.5 -18.5c24 0 43 4.33301 57 13
s21 19 21 31c0 13.333 -5.83301 24.166 -17.5 32.499s-31.834 15.833 -60.501 22.5l-69 15c-15.333 3.33301 -31.166 8.66602 -47.499 15.999s-31.166 16.666 -44.499 27.999s-24.333 25 -33 41s-13 34.667 -13 56c0 24 5.16699 45.333 15.5 64s24.5 34.5 42.5 47.5
s39.167 23 63.5 30s50.5 10.5 78.5 10.5c46.667 0 88.334 -9.16699 125.001 -27.5s63.667 -47.5 81 -87.5l-113 -46c-9.33301 19.333 -23 33.333 -41 42s-36 13 -54 13c-18.667 0 -35 -3.83301 -49 -11.5s-21 -17.5 -21 -29.5c0 -11.333 5.83301 -20.333 17.5 -27
s27.5 -12.667 47.5 -18l75 -18c50 -12 87.167 -31.167 111.5 -57.5s36.5 -57.5 36.5 -93.5c0 -21.333 -5 -41.666 -15 -60.999s-24.167 -36.5 -42.5 -51.5s-40.333 -26.833 -66 -35.5s-54.167 -13 -85.5 -13z" />
    <glyph glyph-name="Scircumflex" unicode="&#x15c;" horiz-adv-x="575" 
d="M108 775l114 126h114l114 -126v-8h-125l-40 59h-12l-40 -59h-125v8zM291 -16c-30.667 0 -59.998 4.33496 -87.998 13.002s-53.667 21.667 -77 39s-43.666 38.5 -60.999 63.5s-31 54.167 -41 87.5l127 50c9.33301 -36 25.666 -65.833 48.999 -89.5s54 -35.5 92 -35.5
c14 0 27.5 1.83301 40.5 5.5s24.667 9 35 16s18.5 15.833 24.5 26.5s9 23 9 37c0 13.333 -2.33301 25.333 -7 36s-12.5 20.667 -23.5 30s-25.333 18.333 -43 27s-39.5 17.667 -65.5 27l-44 16c-19.333 6.66699 -38.833 15.667 -58.5 27s-37.5 25 -53.5 41
s-29.167 34.833 -39.5 56.5s-15.5 46.167 -15.5 73.5c0 28 5.5 54.167 16.5 78.5s26.667 45.666 47 63.999s44.666 32.666 72.999 42.999s59.833 15.5 94.5 15.5c36 0 67.167 -4.83301 93.5 -14.5s48.666 -22 66.999 -37s33.166 -31.5 44.499 -49.5s19.666 -35 24.999 -51
l-119 -50c-6.66699 20 -18.834 38 -36.501 54s-41.834 24 -72.501 24c-29.333 0 -53.666 -6.83301 -72.999 -20.5s-29 -31.5 -29 -53.5c0 -21.333 9.33301 -39.5 28 -54.5s48.334 -29.5 89.001 -43.5l45 -15c28.667 -10 54.834 -21.5 78.501 -34.5s44 -28.5 61 -46.5
s30 -38.5 39 -61.5s13.5 -49.5 13.5 -79.5c0 -37.333 -7.5 -69.5 -22.5 -96.5s-34.167 -49.167 -57.5 -66.5s-49.666 -30.333 -78.999 -39s-58 -13 -86 -13z" />
    <glyph glyph-name="scircumflex" unicode="&#x15d;" horiz-adv-x="483" 
d="M74 590l114 126h114l114 -126v-8h-125l-40 59h-12l-40 -59h-125v8zM250 -16c-32 0 -60.501 4.00098 -85.501 12.001s-46.667 18.5 -65 31.5s-33.833 28 -46.5 45s-22.334 34.167 -29.001 51.5l117 50c11.333 -25.333 26.5 -44.166 45.5 -56.499s40.167 -18.5 63.5 -18.5
c24 0 43 4.33301 57 13s21 19 21 31c0 13.333 -5.83301 24.166 -17.5 32.499s-31.834 15.833 -60.501 22.5l-69 15c-15.333 3.33301 -31.166 8.66602 -47.499 15.999s-31.166 16.666 -44.499 27.999s-24.333 25 -33 41s-13 34.667 -13 56c0 24 5.16699 45.333 15.5 64
s24.5 34.5 42.5 47.5s39.167 23 63.5 30s50.5 10.5 78.5 10.5c46.667 0 88.334 -9.16699 125.001 -27.5s63.667 -47.5 81 -87.5l-113 -46c-9.33301 19.333 -23 33.333 -41 42s-36 13 -54 13c-18.667 0 -35 -3.83301 -49 -11.5s-21 -17.5 -21 -29.5
c0 -11.333 5.83301 -20.333 17.5 -27s27.5 -12.667 47.5 -18l75 -18c50 -12 87.167 -31.167 111.5 -57.5s36.5 -57.5 36.5 -93.5c0 -21.333 -5 -41.666 -15 -60.999s-24.167 -36.5 -42.5 -51.5s-40.333 -26.833 -66 -35.5s-54.167 -13 -85.5 -13z" />
    <glyph glyph-name="uni015E" unicode="&#x15e;" horiz-adv-x="575" 
d="M298 -237c-24 0 -44.6631 6.33203 -61.9961 18.999s-29.666 28.334 -36.999 47.001l64 27c2.66699 -8 7 -14.667 13 -20s13.333 -8 22 -8c10.667 0 18.834 3.16699 24.501 9.5s8.5 13.833 8.5 22.5s-2.83301 16.5 -8.5 23.5s-13.834 10.5 -24.501 10.5
c-6 0 -11.167 -1.5 -15.5 -4.5s-8.16602 -6.16699 -11.499 -9.5l-61 28l31 80c-50.667 8 -95.334 28.833 -134.001 62.5s-66.334 79.167 -83.001 136.5l127 50c9.33301 -36 25.666 -65.833 48.999 -89.5s54 -35.5 92 -35.5c14 0 27.5 1.83301 40.5 5.5s24.667 9 35 16
s18.5 15.833 24.5 26.5s9 23 9 37c0 13.333 -2.33301 25.333 -7 36s-12.5 20.667 -23.5 30s-25.333 18.333 -43 27s-39.5 17.667 -65.5 27l-44 16c-19.333 6.66699 -38.833 15.667 -58.5 27s-37.5 25 -53.5 41s-29.167 34.833 -39.5 56.5s-15.5 46.167 -15.5 73.5
c0 28 5.5 54.167 16.5 78.5s26.667 45.666 47 63.999s44.666 32.666 72.999 42.999s59.833 15.5 94.5 15.5c36 0 67.167 -4.83301 93.5 -14.5s48.666 -22 66.999 -37s33.166 -31.5 44.499 -49.5s19.666 -35 24.999 -51l-119 -50c-6.66699 20 -18.834 38 -36.501 54
s-41.834 24 -72.501 24c-29.333 0 -53.666 -6.83301 -72.999 -20.5s-29 -31.5 -29 -53.5c0 -21.333 9.33301 -39.5 28 -54.5s48.334 -29.5 89.001 -43.5l45 -15c28.667 -10 54.834 -21.5 78.501 -34.5s44 -28.5 61 -46.5s30 -38.5 39 -61.5s13.5 -49.5 13.5 -79.5
c0 -35.333 -6.83301 -66.166 -20.5 -92.499s-31.334 -48.333 -53.001 -66s-46.167 -31.167 -73.5 -40.5s-54.666 -14.666 -81.999 -15.999l-14 -31c3.33301 0.666992 6.33301 1 9 1h9c26 0 48.167 -8.33301 66.5 -25s27.5 -40 27.5 -70c0 -28 -9.83301 -51 -29.5 -69
s-45.5 -27 -77.5 -27z" />
    <glyph glyph-name="uni015F" unicode="&#x15f;" horiz-adv-x="483" 
d="M264 -237c-24 0 -44.6709 6.33203 -62.0039 18.999s-29.666 28.334 -36.999 47.001l64 27c2.66699 -8 7 -14.667 13 -20s13.333 -8 22 -8c10.667 0 18.834 3.16699 24.501 9.5s8.5 13.833 8.5 22.5s-2.83301 16.5 -8.5 23.5s-13.834 10.5 -24.501 10.5
c-6 0 -11.167 -1.5 -15.5 -4.5s-8.16602 -6.16699 -11.499 -9.5l-61 28l31 79c-25.333 3.33301 -48 9.33301 -68 18s-37.5 19.334 -52.5 32.001s-27.667 26.5 -38 41.5s-18.5 30.167 -24.5 45.5l117 50c11.333 -25.333 26.5 -44.166 45.5 -56.499s40.167 -18.5 63.5 -18.5
c24 0 43 4.33301 57 13s21 19 21 31c0 13.333 -5.83301 24.166 -17.5 32.499s-31.834 15.833 -60.501 22.5l-69 15c-15.333 3.33301 -31.166 8.66602 -47.499 15.999s-31.166 16.666 -44.499 27.999s-24.333 25 -33 41s-13 34.667 -13 56c0 24 5.16699 45.333 15.5 64
s24.5 34.5 42.5 47.5s39.167 23 63.5 30s50.5 10.5 78.5 10.5c46.667 0 88.334 -9.16699 125.001 -27.5s63.667 -47.5 81 -87.5l-113 -46c-9.33301 19.333 -23 33.333 -41 42s-36 13 -54 13c-18.667 0 -35 -3.83301 -49 -11.5s-21 -17.5 -21 -29.5
c0 -11.333 5.83301 -20.333 17.5 -27s27.5 -12.667 47.5 -18l75 -18c50 -12 87.167 -31.167 111.5 -57.5s36.5 -57.5 36.5 -93.5c0 -20 -4.5 -39.167 -13.5 -57.5s-21.5 -34.666 -37.5 -48.999s-35.5 -26.333 -58.5 -36s-48.5 -15.5 -76.5 -17.5l-14 -32
c3.33301 0.666992 6.33301 1 9 1h9c26 0 48.167 -8.33301 66.5 -25s27.5 -40 27.5 -70c0 -28 -9.83301 -51 -29.5 -69s-45.5 -27 -77.5 -27z" />
    <glyph glyph-name="Scaron" unicode="&#x160;" horiz-adv-x="575" 
d="M115 900h125l40 -59h12l40 59h125v-8l-114 -126h-114l-114 126v8zM291 -16c-30.667 0 -59.998 4.33496 -87.998 13.002s-53.667 21.667 -77 39s-43.666 38.5 -60.999 63.5s-31 54.167 -41 87.5l127 50c9.33301 -36 25.666 -65.833 48.999 -89.5s54 -35.5 92 -35.5
c14 0 27.5 1.83301 40.5 5.5s24.667 9 35 16s18.5 15.833 24.5 26.5s9 23 9 37c0 13.333 -2.33301 25.333 -7 36s-12.5 20.667 -23.5 30s-25.333 18.333 -43 27s-39.5 17.667 -65.5 27l-44 16c-19.333 6.66699 -38.833 15.667 -58.5 27s-37.5 25 -53.5 41
s-29.167 34.833 -39.5 56.5s-15.5 46.167 -15.5 73.5c0 28 5.5 54.167 16.5 78.5s26.667 45.666 47 63.999s44.666 32.666 72.999 42.999s59.833 15.5 94.5 15.5c36 0 67.167 -4.83301 93.5 -14.5s48.666 -22 66.999 -37s33.166 -31.5 44.499 -49.5s19.666 -35 24.999 -51
l-119 -50c-6.66699 20 -18.834 38 -36.501 54s-41.834 24 -72.501 24c-29.333 0 -53.666 -6.83301 -72.999 -20.5s-29 -31.5 -29 -53.5c0 -21.333 9.33301 -39.5 28 -54.5s48.334 -29.5 89.001 -43.5l45 -15c28.667 -10 54.834 -21.5 78.501 -34.5s44 -28.5 61 -46.5
s30 -38.5 39 -61.5s13.5 -49.5 13.5 -79.5c0 -37.333 -7.5 -69.5 -22.5 -96.5s-34.167 -49.167 -57.5 -66.5s-49.666 -30.333 -78.999 -39s-58 -13 -86 -13z" />
    <glyph glyph-name="scaron" unicode="&#x161;" horiz-adv-x="483" 
d="M70 716h125l40 -59h12l40 59h125v-8l-114 -126h-114l-114 126v8zM250 -16c-32 0 -60.501 4.00098 -85.501 12.001s-46.667 18.5 -65 31.5s-33.833 28 -46.5 45s-22.334 34.167 -29.001 51.5l117 50c11.333 -25.333 26.5 -44.166 45.5 -56.499s40.167 -18.5 63.5 -18.5
c24 0 43 4.33301 57 13s21 19 21 31c0 13.333 -5.83301 24.166 -17.5 32.499s-31.834 15.833 -60.501 22.5l-69 15c-15.333 3.33301 -31.166 8.66602 -47.499 15.999s-31.166 16.666 -44.499 27.999s-24.333 25 -33 41s-13 34.667 -13 56c0 24 5.16699 45.333 15.5 64
s24.5 34.5 42.5 47.5s39.167 23 63.5 30s50.5 10.5 78.5 10.5c46.667 0 88.334 -9.16699 125.001 -27.5s63.667 -47.5 81 -87.5l-113 -46c-9.33301 19.333 -23 33.333 -41 42s-36 13 -54 13c-18.667 0 -35 -3.83301 -49 -11.5s-21 -17.5 -21 -29.5
c0 -11.333 5.83301 -20.333 17.5 -27s27.5 -12.667 47.5 -18l75 -18c50 -12 87.167 -31.167 111.5 -57.5s36.5 -57.5 36.5 -93.5c0 -21.333 -5 -41.666 -15 -60.999s-24.167 -36.5 -42.5 -51.5s-40.333 -26.833 -66 -35.5s-54.167 -13 -85.5 -13z" />
    <glyph glyph-name="uni0162" unicode="&#x162;" horiz-adv-x="583" 
d="M306 -237c-24 0 -44.6689 6.33203 -62.002 18.999s-29.666 28.334 -36.999 47.001l64 27c2.66699 -8 7 -14.667 13 -20s13.333 -8 22 -8c10.667 0 18.834 3.16699 24.501 9.5s8.5 13.833 8.5 22.5s-2.83301 16.5 -8.5 23.5s-13.834 10.5 -24.501 10.5
c-6 0 -11.167 -1.5 -15.5 -4.5s-8.16602 -6.16699 -11.499 -9.5l-61 28l36 92h-30v588h-200v128h535v-128h-200v-588h-37l-21 -47c3.33301 0.666992 6.33301 1 9 1h9c26 0 48.167 -8.33301 66.5 -25s27.5 -40 27.5 -70c0 -28 -9.83301 -51 -29.5 -69s-45.5 -27 -77.5 -27z
" />
    <glyph glyph-name="uni0163" unicode="&#x163;" horiz-adv-x="401" 
d="M110 378l-85.999 -0.00195312v112h86v150h131v-150h120v-112h-120v-191c0 -11.333 1.16699 -21.833 3.5 -31.5s6.83301 -17.834 13.5 -24.501c9.33301 -10.667 22.666 -16 39.999 -16c11.333 0 20.333 1.16699 27 3.5s13 5.5 19 9.5l37 -114
c-15.333 -7.33301 -31.833 -12.833 -49.5 -16.5s-37.167 -5.5 -58.5 -5.5h-12l-17 -39c3.33301 0.666992 6.33301 1 9 1h9c25.333 0 47.166 -8.33301 65.499 -25s27.5 -40 27.5 -70c0 -28 -9.66699 -51 -29 -69s-45 -27 -77 -27c-24.667 0 -45.5 6.33301 -62.5 19
s-29.167 28.334 -36.5 47.001l64 27c2.66699 -8 6.83398 -14.833 12.501 -20.5s13.167 -8.5 22.5 -8.5c10 0 18 3.33301 24 10s9 14.334 9 23.001s-3 16.5 -9 23.5s-14 10.5 -24 10.5c-6 0 -11.333 -1.5 -16 -4.5s-8.66699 -6.16699 -12 -9.5l-60 28l40 98
c-17.333 6.66699 -32 16.334 -44 29.001c-31.333 30 -47 72.667 -47 128v215z" />
    <glyph glyph-name="Tcaron" unicode="&#x164;" horiz-adv-x="583" 
d="M121 912h125l40 -59h12l40 59h125v-8l-114 -126h-114l-114 126v8zM224 0v588h-200v128h535v-128h-200v-588h-135z" />
    <glyph glyph-name="tcaron" unicode="&#x165;" horiz-adv-x="401" 
d="M295 545v171h118l-30 -171h-88zM110 378l-85.998 0.000976562v112h86v150h131v-150h120v-112h-120v-190c0 -11.333 1.16699 -21.833 3.5 -31.5s6.83301 -17.834 13.5 -24.501c9.33301 -10.667 22.666 -16 39.999 -16c11.333 0 20.333 1.16699 27 3.5s13 5.5 19 9.5
l37 -115c-15.333 -7.33301 -31.833 -12.833 -49.5 -16.5s-37.167 -5.5 -58.5 -5.5c-24.667 0 -46.834 3.83301 -66.501 11.5s-36.167 18.167 -49.5 31.5c-31.333 30 -47 72.667 -47 128v215z" />
    <glyph glyph-name="Tbar" unicode="&#x166;" horiz-adv-x="583" 
d="M224 0v321h-127v106h127v161h-200v128h535v-128h-200v-161h126v-106h-126v-321h-135z" />
    <glyph glyph-name="tbar" unicode="&#x167;" horiz-adv-x="401" 
d="M110 214l-85.998 0.000976562v100h86v64h-86v112h86v150h131v-150h120v-112h-120v-64h106v-100h-106v-26c0 -11.333 1.16699 -21.833 3.5 -31.5s6.83301 -17.834 13.5 -24.501c9.33301 -10.667 22.666 -16 39.999 -16c11.333 0 20.333 1.16699 27 3.5s13 5.5 19 9.5
l37 -115c-15.333 -7.33301 -31.833 -12.833 -49.5 -16.5s-37.167 -5.5 -58.5 -5.5c-24.667 0 -46.834 3.83301 -66.501 11.5s-36.167 18.167 -49.5 31.5c-31.333 30 -47 72.667 -47 128v51z" />
    <glyph glyph-name="Utilde" unicode="&#x168;" horiz-adv-x="669" 
d="M334 -16c-42 0 -80.168 6.83301 -114.501 20.5s-63.5 33.5 -87.5 59.5s-42.667 57.5 -56 94.5s-20 79.167 -20 126.5v431h135v-439c0 -24 3 -46 9 -66s15 -37.333 27 -52s27 -26.167 45 -34.5s38.667 -12.5 62 -12.5c24 0 45 4.16699 63 12.5s33 19.833 45 34.5
s21 32 27 52s9 42 9 66v439h135v-431c0 -44.667 -6.5 -85.5 -19.5 -122.5s-31.667 -68.667 -56 -95s-53.666 -46.833 -87.999 -61.5s-72.833 -22 -115.5 -22zM394.999 771c-14 0 -26.998 2.16602 -38.998 6.49902s-23 9.5 -33 15.5l-27 14.5c-8 4.33301 -15 6.5 -21 6.5
c-16.667 0 -25.334 -9.66699 -26.001 -29h-92c0 22 3.16699 41 9.5 57s15 29.167 26 39.5s23.333 18.166 37 23.499s28.167 8 43.5 8c14 0 27.167 -2.16699 39.5 -6.5s23.5 -9.16602 33.5 -14.499c10 -6 19 -11.167 27 -15.5s14.667 -6.5 20 -6.5c16 0 25 9.66699 27 29h92
c0 -22 -3.33301 -41 -10 -57s-15.334 -29.167 -26.001 -39.5s-23.167 -18.166 -37.5 -23.499s-28.833 -8 -43.5 -8z" />
    <glyph glyph-name="utilde" unicode="&#x169;" 
d="M395 64h-8.00098c-15.333 -24.667 -36 -44.167 -62 -58.5s-55.667 -21.5 -89 -21.5c-62 0 -108.167 19 -138.5 57s-45.5 88.667 -45.5 152v297h131v-281c0 -35.333 7.83301 -61.5 23.5 -78.5s38.5 -25.5 68.5 -25.5c18 0 33.833 3.83301 47.5 11.5s25.334 18 35.001 31
s17 28.333 22 46s7.5 36.5 7.5 56.5v240h131v-490h-123v64zM349.999 587c-14 0 -26.998 2.16602 -38.998 6.49902s-23 9.5 -33 15.5l-27 14.5c-8 4.33301 -15 6.5 -21 6.5c-16.667 0 -25.334 -9.66699 -26.001 -29h-92c0 22 3.16699 41 9.5 57s15 29.167 26 39.5
s23.333 18.166 37 23.499s28.167 8 43.5 8c14 0 27.167 -2.16699 39.5 -6.5s23.5 -9.16602 33.5 -14.499c10 -6 19 -11.167 27 -15.5s14.667 -6.5 20 -6.5c16 0 25 9.66699 27 29h92c0 -22 -3.33301 -41 -10 -57s-15.334 -29.167 -26.001 -39.5
s-23.167 -18.166 -37.5 -23.499s-28.833 -8 -43.5 -8z" />
    <glyph glyph-name="Umacron" unicode="&#x16a;" horiz-adv-x="669" 
d="M334 -16c-42 0 -80.168 6.83301 -114.501 20.5s-63.5 33.5 -87.5 59.5s-42.667 57.5 -56 94.5s-20 79.167 -20 126.5v431h135v-439c0 -24 3 -46 9 -66s15 -37.333 27 -52s27 -26.167 45 -34.5s38.667 -12.5 62 -12.5c24 0 45 4.16699 63 12.5s33 19.833 45 34.5
s21 32 27 52s9 42 9 66v439h135v-431c0 -44.667 -6.5 -85.5 -19.5 -122.5s-31.667 -68.667 -56 -95s-53.666 -46.833 -87.999 -61.5s-72.833 -22 -115.5 -22zM185.999 793v100h296v-100h-296z" />
    <glyph glyph-name="umacron" unicode="&#x16b;" 
d="M395 64h-8.00098c-15.333 -24.667 -36 -44.167 -62 -58.5s-55.667 -21.5 -89 -21.5c-62 0 -108.167 19 -138.5 57s-45.5 88.667 -45.5 152v297h131v-281c0 -35.333 7.83301 -61.5 23.5 -78.5s38.5 -25.5 68.5 -25.5c18 0 33.833 3.83301 47.5 11.5s25.334 18 35.001 31
s17 28.333 22 46s7.5 36.5 7.5 56.5v240h131v-490h-123v64zM138.999 609v100h296v-100h-296z" />
    <glyph glyph-name="Ubreve" unicode="&#x16c;" horiz-adv-x="669" 
d="M334 -16c-42 0 -80.168 6.83301 -114.501 20.5s-63.5 33.5 -87.5 59.5s-42.667 57.5 -56 94.5s-20 79.167 -20 126.5v431h135v-439c0 -24 3 -46 9 -66s15 -37.333 27 -52s27 -26.167 45 -34.5s38.667 -12.5 62 -12.5c24 0 45 4.16699 63 12.5s33 19.833 45 34.5
s21 32 27 52s9 42 9 66v439h135v-431c0 -44.667 -6.5 -85.5 -19.5 -122.5s-31.667 -68.667 -56 -95s-53.666 -46.833 -87.999 -61.5s-72.833 -22 -115.5 -22zM334.999 763c-18 0 -35.335 3.33301 -52.002 10s-31.167 16 -43.5 28s-22.333 26.333 -30 43s-11.5 35 -11.5 55
h93c0 -12 3.83301 -22.667 11.5 -32s18.5 -14 32.5 -14c13.333 0 23.833 4.66699 31.5 14s11.5 20 11.5 32h92c0 -20 -3.66699 -38.333 -11 -55s-17.166 -31 -29.499 -43s-26.666 -21.333 -42.999 -28s-33.5 -10 -51.5 -10z" />
    <glyph glyph-name="ubreve" unicode="&#x16d;" 
d="M395 64h-8.00098c-15.333 -24.667 -36 -44.167 -62 -58.5s-55.667 -21.5 -89 -21.5c-62 0 -108.167 19 -138.5 57s-45.5 88.667 -45.5 152v297h131v-281c0 -35.333 7.83301 -61.5 23.5 -78.5s38.5 -25.5 68.5 -25.5c18 0 33.833 3.83301 47.5 11.5s25.334 18 35.001 31
s17 28.333 22 46s7.5 36.5 7.5 56.5v240h131v-490h-123v64zM288.999 564c-18 0 -35.335 3.33301 -52.002 10s-31.167 16 -43.5 28s-22.333 26.333 -30 43s-11.5 35 -11.5 55h93c0 -12 3.83301 -22.667 11.5 -32s18.5 -14 32.5 -14c13.333 0 23.833 4.66699 31.5 14
s11.5 20 11.5 32h92c0 -20 -3.66699 -38.333 -11 -55s-17.166 -31 -29.499 -43s-26.666 -21.333 -42.999 -28s-33.5 -10 -51.5 -10z" />
    <glyph glyph-name="Uring" unicode="&#x16e;" horiz-adv-x="669" 
d="M334 748c-15.333 0 -29.5 2.83301 -42.5 8.5s-24.333 13.334 -34 23.001s-17.334 21 -23.001 34s-8.5 27.167 -8.5 42.5c0 14.667 2.83301 28.667 8.5 42s13.334 24.833 23.001 34.5s21 17.334 34 23.001s27.167 8.5 42.5 8.5c14.667 0 28.667 -2.83301 42 -8.5
s24.833 -13.334 34.5 -23.001s17.334 -21.167 23.001 -34.5s8.5 -27.333 8.5 -42c0 -15.333 -2.83301 -29.5 -8.5 -42.5s-13.334 -24.333 -23.001 -34s-21.167 -17.334 -34.5 -23.001s-27.333 -8.5 -42 -8.5zM334 821c9.33301 0 17.5 3.5 24.5 10.5s10.5 15.167 10.5 24.5
s-3.5 17.5 -10.5 24.5s-15.167 10.5 -24.5 10.5s-17.5 -3.5 -24.5 -10.5s-10.5 -15.167 -10.5 -24.5s3.5 -17.5 10.5 -24.5s15.167 -10.5 24.5 -10.5zM334 -16c-42 0 -80.168 6.83301 -114.501 20.5s-63.5 33.5 -87.5 59.5s-42.667 57.5 -56 94.5s-20 79.167 -20 126.5v431
h135v-439c0 -24 3 -46 9 -66s15 -37.333 27 -52s27 -26.167 45 -34.5s38.667 -12.5 62 -12.5c24 0 45 4.16699 63 12.5s33 19.833 45 34.5s21 32 27 52s9 42 9 66v439h135v-431c0 -44.667 -6.5 -85.5 -19.5 -122.5s-31.667 -68.667 -56 -95s-53.666 -46.833 -87.999 -61.5
s-72.833 -22 -115.5 -22z" />
    <glyph glyph-name="uring" unicode="&#x16f;" 
d="M287 564c-15.333 0 -29.5 2.83301 -42.5 8.5s-24.333 13.334 -34 23.001s-17.334 21 -23.001 34s-8.5 27.167 -8.5 42.5c0 14.667 2.83301 28.667 8.5 42s13.334 24.833 23.001 34.5s21 17.334 34 23.001s27.167 8.5 42.5 8.5c14.667 0 28.667 -2.83301 42 -8.5
s24.833 -13.334 34.5 -23.001s17.334 -21.167 23.001 -34.5s8.5 -27.333 8.5 -42c0 -15.333 -2.83301 -29.5 -8.5 -42.5s-13.334 -24.333 -23.001 -34s-21.167 -17.334 -34.5 -23.001s-27.333 -8.5 -42 -8.5zM287 637c9.33301 0 17.5 3.5 24.5 10.5s10.5 15.167 10.5 24.5
s-3.5 17.5 -10.5 24.5s-15.167 10.5 -24.5 10.5s-17.5 -3.5 -24.5 -10.5s-10.5 -15.167 -10.5 -24.5s3.5 -17.5 10.5 -24.5s15.167 -10.5 24.5 -10.5zM395 64h-8.00098c-15.333 -24.667 -36 -44.167 -62 -58.5s-55.667 -21.5 -89 -21.5c-62 0 -108.167 19 -138.5 57
s-45.5 88.667 -45.5 152v297h131v-281c0 -35.333 7.83301 -61.5 23.5 -78.5s38.5 -25.5 68.5 -25.5c18 0 33.833 3.83301 47.5 11.5s25.334 18 35.001 31s17 28.333 22 46s7.5 36.5 7.5 56.5v240h131v-490h-123v64z" />
    <glyph glyph-name="Uhungarumlaut" unicode="&#x170;" horiz-adv-x="669" 
d="M334 -16c-42 0 -80.168 6.83301 -114.501 20.5s-63.5 33.5 -87.5 59.5s-42.667 57.5 -56 94.5s-20 79.167 -20 126.5v431h135v-439c0 -24 3 -46 9 -66s15 -37.333 27 -52s27 -26.167 45 -34.5s38.667 -12.5 62 -12.5c24 0 45 4.16699 63 12.5s33 19.833 45 34.5
s21 32 27 52s9 42 9 66v439h135v-431c0 -44.667 -6.5 -85.5 -19.5 -122.5s-31.667 -68.667 -56 -95s-53.666 -46.833 -87.999 -61.5s-72.833 -22 -115.5 -22zM173.999 772l42 136h153l-90 -136h-105zM371.999 772l42 136h153l-90 -136h-105z" />
    <glyph glyph-name="uhungarumlaut" unicode="&#x171;" 
d="M132 588l42 136h153l-90 -136h-105zM329 588l42 136h153l-90 -136h-105zM395 64h-8.00098c-15.333 -24.667 -36 -44.167 -62 -58.5s-55.667 -21.5 -89 -21.5c-62 0 -108.167 19 -138.5 57s-45.5 88.667 -45.5 152v297h131v-281c0 -35.333 7.83301 -61.5 23.5 -78.5
s38.5 -25.5 68.5 -25.5c18 0 33.833 3.83301 47.5 11.5s25.334 18 35.001 31s17 28.333 22 46s7.5 36.5 7.5 56.5v240h131v-490h-123v64z" />
    <glyph glyph-name="Uogonek" unicode="&#x172;" horiz-adv-x="669" 
d="M56 716l135.004 -0.00292969v-439c0 -24 3 -46 9 -66s15 -37.333 27 -52s27 -26.167 45 -34.5s38.667 -12.5 62 -12.5c24 0 45 4.16699 63 12.5s33 19.833 45 34.5s21 32 27 52s9 42 9 66v439h135v-431c0 -58 -10.667 -108.667 -32 -152s-52 -78.666 -92 -105.999
l-35 -24c-12.667 -8.66699 -24.334 -18 -35.001 -28s-19.5 -20.333 -26.5 -31s-10.5 -21.334 -10.5 -32.001c0 -12 3.66699 -21.833 11 -29.5s16.666 -11.5 27.999 -11.5c8 0 16 1.66699 24 5l34 -83c-10.667 -5.33301 -22.834 -9.5 -36.501 -12.5
s-27.834 -4.5 -42.501 -4.5c-40 0 -71.5 10.667 -94.5 32s-34.5 49 -34.5 83c0 21.333 5 39.833 15 55.5s20.667 28.834 32 39.501c-1.33301 -0.666992 -3.33301 -1 -6 -1c-39.333 2.66699 -74.833 11.334 -106.5 26.001s-58.5 35 -80.5 61s-39 56.833 -51 92.5
s-18 75.834 -18 120.501v431z" />
    <glyph glyph-name="uogonek" unicode="&#x173;" 
d="M468 -224c-40.667 0 -72.501 10.665 -95.501 31.998s-34.5 49 -34.5 83c0 12.667 1.83301 24.334 5.5 35.001s8.5 20.334 14.5 29.001s12.5 16.167 19.5 22.5s13.833 11.833 20.5 16.5l-3 6v64h-8c-15.333 -24.667 -36 -44.167 -62 -58.5s-55.667 -21.5 -89 -21.5
c-62 0 -108.167 19 -138.5 57s-45.5 88.667 -45.5 152v297h131v-281c0 -35.333 7.83301 -61.5 23.5 -78.5s38.5 -25.5 68.5 -25.5c18 0 33.833 3.83301 47.5 11.5s25.334 18 35.001 31s17 28.333 22 46s7.5 36.5 7.5 56.5v240h131v-490
c-19.333 -13.333 -35.666 -27 -48.999 -41s-20 -29.667 -20 -47c0 -12 3.66699 -21.833 11 -29.5s16.666 -11.5 27.999 -11.5c8 0 16.333 1.66699 25 5l33 -83c-10 -5.33301 -22 -9.5 -36 -12.5s-28 -4.5 -42 -4.5z" />
    <glyph glyph-name="Wcircumflex" unicode="&#x174;" horiz-adv-x="954" 
d="M310 774l114 126h114l114 -126v-8h-125l-40 59h-12l-40 -59h-125v8zM16 716h143l111 -418l16 -77h8l21 77l103 322h126l104 -322l20 -76h8l15 76l104 418h143l-190 -716h-130l-112 345l-21 79h-8l-21 -79l-112 -345h-130z" />
    <glyph glyph-name="wcircumflex" unicode="&#x175;" horiz-adv-x="805" 
d="M230 590l114 126h114l114 -126v-8h-125l-40 59h-12l-40 -59h-125v8zM4 490h147l81 -307h7l97 307h135l98 -307h7l80 307h145l-157 -490h-141l-98 309h-7l-98 -309h-139z" />
    <glyph glyph-name="Ycircumflex" unicode="&#x176;" horiz-adv-x="637" 
d="M253 333l-241 383h161l143 -237h8l138 237h163l-237 -383v-333h-135v333zM149 774l114 126h114l114 -126v-8h-125l-40 59h-12l-40 -59h-125v8z" />
    <glyph glyph-name="ycircumflex" unicode="&#x177;" horiz-adv-x="553" 
d="M210 24l-206 466h149l124 -297h7l119 297h146l-307 -706h-141zM107 590l114 126h114l114 -126v-8h-125l-40 59h-12l-40 -59h-125v8z" />
    <glyph glyph-name="Ydieresis" unicode="&#x178;" horiz-adv-x="637" 
d="M253 333l-241 383h161l143 -237h8l138 237h163l-237 -383v-333h-135v333zM415 771c-19.333 0 -36 7.16699 -50 21.5s-21 31.166 -21 50.499c0 20 7 37 21 51s30.667 21 50 21c20.667 0 37.834 -7 51.501 -21s20.5 -31 20.5 -51c0 -19.333 -6.83301 -36.166 -20.5 -50.499
s-30.834 -21.5 -51.501 -21.5zM225 771c-20 0 -37 7.16699 -51 21.5s-21 31.166 -21 50.499c0 20 7 37 21 51s31 21 51 21s36.833 -7 50.5 -21s20.5 -31 20.5 -51c0 -19.333 -6.83301 -36.166 -20.5 -50.499s-30.5 -21.5 -50.5 -21.5z" />
    <glyph glyph-name="Zacute" unicode="&#x179;" horiz-adv-x="596" 
d="M241 772l42 136h153l-90 -136h-105zM32 136l363 452h-347v128h504v-136l-359 -452h363v-128h-524v136z" />
    <glyph glyph-name="zacute" unicode="&#x17a;" horiz-adv-x="479" 
d="M195 588l42 136h153l-90 -136h-105zM32 108l250 270h-242v112h403v-108l-250 -270h254v-112h-415v108z" />
    <glyph glyph-name="Zdotaccent" unicode="&#x17b;" horiz-adv-x="596" 
d="M302 785c-19.333 0 -36 7 -50 21s-21 30.667 -21 50s7 36 21 50s30.667 21 50 21s35.833 -7 49.5 -21s20.5 -30.667 20.5 -50s-6.83301 -36 -20.5 -50s-30.167 -21 -49.5 -21zM32 136l363 452h-347v128h504v-136l-359 -452h363v-128h-524v136z" />
    <glyph glyph-name="zdotaccent" unicode="&#x17c;" horiz-adv-x="479" 
d="M32 108l250 270h-242v112h403v-108l-250 -270h254v-112h-415v108zM246 575c-21.333 0 -39.333 7.5 -54 22.5s-22 32.833 -22 53.5c0 21.333 7.33301 39.333 22 54s32.667 22 54 22s39.166 -7.33301 53.499 -22s21.5 -32.667 21.5 -54
c0 -20.667 -7.16699 -38.5 -21.5 -53.5s-32.166 -22.5 -53.499 -22.5z" />
    <glyph glyph-name="Zcaron" unicode="&#x17d;" horiz-adv-x="596" 
d="M133 900h125l40 -59h12l40 59h125v-8l-114 -126h-114l-114 126v8zM32 136l363 452h-347v128h504v-136l-359 -452h363v-128h-524v136z" />
    <glyph glyph-name="zcaron" unicode="&#x17e;" horiz-adv-x="479" 
d="M76 716h125l40 -59h12l40 59h125v-8l-114 -126h-114l-114 126v8zM32 108l250 270h-242v112h403v-108l-250 -270h254v-112h-415v108z" />
    <glyph glyph-name="uni0192" unicode="&#x192;" horiz-adv-x="614" 
d="M133 -220c-15.333 0 -31.667 1.50098 -49 4.50098s-32.333 7.16699 -45 12.5l36 118c10.667 -7.33301 25.667 -11 45 -11c39.333 0 64 24.667 74 74l65 330h-92v112h114l22 109c12 60.667 35.667 107.667 71 141s82 50 140 50c32 0 61.333 -5.33301 88 -16l-44 -118
c-11.333 6.66699 -26 10 -44 10c-19.333 0 -36.666 -6 -51.999 -18s-25.333 -30 -30 -54l-21 -104h113v-112h-135l-72 -365c-4.66699 -23.333 -11.834 -44.833 -21.501 -64.5s-22 -36.834 -37 -51.501s-33 -26.167 -54 -34.5s-44.833 -12.5 -71.5 -12.5z" />
    <glyph glyph-name="Aringacute" unicode="&#x1fa;" horiz-adv-x="716" 
d="M263 668c-10.667 11.333 -19.167 24.501 -25.5 39.501s-9.5 31.167 -9.5 48.5c0 30.667 9.16699 57.5 27.5 80.5s41.5 38.167 69.5 45.5l30 71h116l-50 -84c20 -11.333 36.167 -26.833 48.5 -46.5s18.5 -41.834 18.5 -66.501c0 -17.333 -3.16699 -33.5 -9.5 -48.5
s-14.833 -28.167 -25.5 -39.5l251 -668h-149l-59 171h-275l-60 -171h-149zM452 295.001l-64 179l-26 87h-8l-26 -87l-64 -179h188zM358 716.001c11.333 0 20.833 3.83301 28.5 11.5s11.5 17.167 11.5 28.5s-3.83301 20.833 -11.5 28.5s-17.167 11.5 -28.5 11.5
s-20.833 -3.83301 -28.5 -11.5s-11.5 -17.167 -11.5 -28.5s3.83301 -20.833 11.5 -28.5s17.167 -11.5 28.5 -11.5z" />
    </font>
</defs>
</svg>
